<?xml version="1.0" encoding="UTF-8"?> <svg xmlns="http://www.w3.org/2000/svg" width="296" height="240" viewBox="0 0 296 240" fill="none"><g clip-path="url(#clip0_115_6407)"><path d="M86.6139 17.7926C87.1465 17.3766 87.6915 16.964 88.2984 16.6993C90.0015 15.9532 91.9833 16.4792 93.5254 17.5726C95.0675 18.6659 96.2566 20.2612 97.4178 21.8325C97.8451 22.4101 99.0311 23.4863 98.9258 24.308C98.9227 24.3389 98.9073 24.3665 98.9011 24.394C99.3872 24.7309 99.861 25.0919 100.301 25.4942C99.5111 22.1935 99.0899 19.2676 99.0125 16.6099C98.226 16.2936 97.4395 15.4615 96.9812 14.9148C96.1296 13.904 95.5165 12.6353 95.2224 11.291C94.6928 8.87737 95.1171 6.27809 96.1451 4.07421C96.8542 2.55452 97.8885 1.15518 99.2881 0.44347C100.688 -0.268237 102.49 -0.161653 103.614 1.00733C104.617 2.04911 104.911 3.68913 104.933 5.21225C104.955 6.80414 104.723 8.39602 104.27 9.90539C103.871 11.2394 103.298 12.5115 102.58 13.6668C102.007 14.5848 100.979 16.3279 99.9725 16.6855C99.8548 16.7268 99.7309 16.7405 99.6071 16.7405C99.6907 19.1541 100.062 21.805 100.744 24.7653C101.016 24.253 101.35 23.7854 101.716 23.3419C101.716 23.3144 101.707 23.2937 101.707 23.2662C101.744 22.3276 102.4 21.1242 102.809 20.3266C103.732 18.5146 105.035 16.9434 106.602 15.7985C108.048 14.7395 109.779 14.0312 111.501 14.2444C113.223 14.461 114.895 15.7606 115.325 17.6241C115.787 19.6149 114.74 21.75 113.216 22.9121C111.69 24.0742 109.785 24.4318 107.94 24.5521C106.571 24.6415 105.196 24.614 103.831 24.4765C103.218 24.4146 102.397 24.4008 101.979 23.9986C101.573 24.5212 101.22 25.085 100.966 25.7039C101.682 28.6195 102.685 31.8342 103.989 35.4134C104.887 34.9183 105.763 34.4988 106.621 34.1275C107.277 32.4944 108.448 31.15 109.816 30.2045C111.232 29.2246 112.848 28.647 114.486 28.2998C115.985 27.9834 117.576 27.8597 119.007 28.451C120.438 29.0424 121.664 30.4933 121.71 32.1884C121.747 33.6358 120.924 34.9871 119.837 35.7847C118.75 36.5824 117.434 36.9021 116.14 37.0568C113.662 37.3525 111.132 37.0981 108.745 36.3108C108.172 36.1217 106.81 35.6541 106.553 34.8736C105.791 35.214 105.014 35.5887 104.218 36.0288C105.419 39.2779 106.856 42.8227 108.55 46.7216C108.621 46.8867 108.686 47.0517 108.754 47.2167C109.237 46.6838 109.754 46.2334 110.278 45.8242C110.123 44.473 111.739 42.4858 112.452 41.891C113.848 40.7254 115.595 40.22 117.316 39.8762C118.824 39.577 120.413 39.3879 121.859 39.9518C123.305 40.5191 124.55 42.0354 124.448 43.7338C124.33 45.7142 122.484 47.0792 120.707 47.3096C118.933 47.5365 117.165 46.9623 115.39 46.7251C114.436 46.5978 113.47 46.5669 112.51 46.6357C111.959 46.6735 110.962 46.9726 110.516 46.4294C109.993 46.8454 109.485 47.3061 109.008 47.8493C109.141 48.1794 109.265 48.5095 109.389 48.8361C109.401 48.8636 109.414 48.8911 109.42 48.9221C110.646 52.2227 111.424 55.5165 111.885 58.6487C112.644 58.0986 113.396 57.662 114.139 57.2872C114.328 56.5377 115.043 55.7435 115.827 55.1315C117.292 53.99 118.849 52.9516 120.561 52.374C122.274 51.7964 124.166 51.7104 125.829 52.4531C126.498 52.7522 127.135 53.1958 127.56 53.8421C127.947 54.4335 128.133 55.1555 128.309 55.8638C128.479 56.5446 128.647 57.2459 128.582 57.9508C128.445 59.4464 127.25 60.6154 125.946 61.028C124.646 61.4405 123.255 61.2411 121.921 60.973C119.698 60.526 117.49 59.9071 115.356 59.0785C114.638 58.8 114.266 58.4287 114.139 58.0127C113.427 58.3874 112.709 58.8206 111.984 59.3639C112.043 59.8108 112.095 60.2578 112.145 60.6979C112.157 60.7392 112.164 60.7839 112.161 60.8285C112.439 63.4725 112.507 65.9652 112.452 68.2138C113.037 68.2035 113.591 68.2035 114.121 68.2138C114.786 67.6706 116.14 67.4368 116.623 67.2649C117.917 66.8076 119.227 66.3434 120.583 66.2712C121.939 66.199 123.367 66.5566 124.376 67.564C125.674 68.8602 126.03 71.1741 125.191 72.876C124.355 74.5745 122.407 75.4925 120.722 74.9767C119.057 74.4679 117.908 72.8382 116.626 71.5523C116 70.9265 113.987 69.9604 113.765 69.1112C113.743 69.0252 113.737 68.9461 113.74 68.8671C113.316 68.8602 112.885 68.8602 112.43 68.8671C112.427 68.9943 112.418 69.118 112.414 69.2453C112.421 69.2693 112.43 69.2968 112.43 69.3243C112.43 69.3759 112.421 69.424 112.405 69.4687C112.148 75.1968 111.16 79.0441 111.139 79.1232C111.105 79.2539 111.006 79.3398 110.894 79.357C110.854 79.3639 110.814 79.357 110.773 79.3467C110.615 79.2951 110.526 79.1129 110.572 78.9375C110.594 78.8619 111.538 75.183 111.808 69.6785C111.362 69.6991 110.94 69.7266 110.529 69.7576C110.287 70.318 109.476 70.7684 108.906 71.1569C107.435 72.1643 106.262 73.6152 105.014 74.9458C104.605 75.3824 104.178 75.8157 103.67 76.101C102.951 76.5033 102.128 76.5858 101.326 76.6511C100.648 76.7062 99.9074 76.7371 99.3624 76.2901C99.0435 76.0288 98.8329 75.63 98.6812 75.2208C98.0309 73.4639 98.3932 71.3047 99.5668 69.926C101.14 68.0797 103.673 67.8493 105.958 67.7393C107.262 67.674 108.94 67.5468 110.042 68.4923C110.293 68.7055 110.442 68.9049 110.526 69.0974C110.947 69.063 111.377 69.0355 111.835 69.0149C111.925 66.6116 111.882 63.892 111.581 60.9867C111.086 60.6463 110.578 60.3781 110.061 60.1547C109.965 60.2578 109.82 60.3644 109.59 60.4779C107.779 61.3683 105.862 61.9528 104.075 62.9224C101.843 64.1395 99.7309 65.7692 97.2878 66.285C96.1049 66.536 94.6959 66.4156 93.9651 65.3498C93.5626 64.7653 93.448 63.9917 93.4573 63.2559C93.4976 60.4675 95.2378 57.9095 97.5014 56.6993C99.765 55.489 102.453 55.5062 104.862 56.297C105.692 56.5686 106.497 56.9296 107.265 57.3766C108.024 57.8167 108.745 58.3427 109.414 58.941C109.597 59.106 109.761 59.2504 109.891 59.3845C110.43 59.5874 110.962 59.8418 111.485 60.1615C111.071 56.6718 110.269 52.9448 108.884 49.2074C108.126 48.7158 107.379 48.3135 106.649 47.9869C106.091 48.9083 103.605 48.8705 102.762 49.1009C101.381 49.4825 100.118 50.2458 98.8329 50.93C97.743 51.511 96.6282 52.0405 95.4949 52.515C94.2593 53.0307 92.8473 53.4742 91.6613 52.8347C90.3453 52.1265 89.8034 50.2355 90.1502 48.6573C90.497 47.0792 91.5436 45.8002 92.7079 44.8237C94.5163 43.3041 96.7613 42.3345 99.0249 42.4926C100.047 42.5648 101.041 42.8605 102.029 43.1528C103.112 43.476 104.23 43.8198 105.091 44.6174C105.568 45.0575 106.633 46.3606 106.76 47.3371C107.333 47.588 107.915 47.8734 108.507 48.2207C108.346 47.815 108.178 47.4093 108.002 47.0036C106.661 43.9229 105.478 41.0555 104.447 38.3806C103.28 37.5829 102.125 36.9984 100.997 36.548C100.61 36.768 99.9322 36.8677 99.6938 36.8815C99.2572 36.9056 98.8267 36.995 98.3963 37.074C96.9626 37.3457 95.5196 37.6173 94.1478 38.1536C92.8256 38.6728 91.587 39.4292 90.2679 39.9656C88.9487 40.5019 87.4964 40.8079 86.1432 40.3885C85.7902 40.2784 85.4403 40.1134 85.174 39.8349C84.5485 39.1782 84.5268 38.0677 84.7467 37.1428C85.3505 34.5917 87.4252 32.6663 89.726 32.0061C92.0267 31.346 94.4978 31.8102 96.687 32.8279C98.0743 33.4742 100.205 34.4335 101.121 35.8775C102.081 36.2557 103.063 36.7405 104.057 37.356C103.883 36.9021 103.719 36.4517 103.555 36.0082C103.555 36.0082 103.552 36.0082 103.552 36.0048C103.549 35.9979 103.552 35.991 103.546 35.9841C102.295 32.57 101.31 29.4791 100.582 26.6563C99.9787 25.9996 99.285 25.4323 98.5481 24.9269C98.1486 25.2707 97.5169 25.4289 97.1236 25.5561C95.2843 26.1509 93.3458 26.2643 91.4384 26.2781C89.6981 26.2884 87.8773 26.1956 86.3693 25.2329C84.8613 24.2702 83.7961 22.1798 84.4123 20.3713C84.7962 19.2435 85.7159 18.4699 86.6046 17.7754L86.6139 17.7926Z" fill="#D3F4E4"></path><path d="M197.012 71.1192C197.641 71.3048 198.276 71.5042 198.848 71.8515C200.456 72.8211 201.366 74.8462 201.601 76.861C201.837 78.8757 201.499 80.9112 201.162 82.9087C201.038 83.6411 201.056 85.343 200.422 85.7831C200.397 85.8003 200.369 85.8037 200.344 85.8175C200.425 86.4501 200.48 87.0827 200.483 87.7153C202.255 84.9235 204.004 82.6853 205.788 80.9146C205.503 80.0413 205.571 78.8379 205.652 78.0953C205.803 76.72 206.283 75.386 207.023 74.2686C208.349 72.2675 210.417 70.961 212.597 70.4178C214.099 70.043 215.731 70.0258 217.121 70.7616C218.512 71.4939 219.595 73.0996 219.509 74.8049C219.431 76.328 218.493 77.6311 217.453 78.6282C216.369 79.67 215.121 80.4917 213.789 81.0762C212.613 81.5919 211.368 81.922 210.108 82.0526C209.104 82.1558 207.243 82.3999 206.348 81.7707C206.243 81.6951 206.153 81.6022 206.073 81.4957C204.459 83.1185 202.871 85.1367 201.264 87.6156C201.79 87.5159 202.329 87.5056 202.871 87.5297C202.889 87.5125 202.896 87.4919 202.917 87.4747C203.589 86.9039 204.84 86.6908 205.655 86.5257C207.497 86.1475 209.42 86.2472 211.216 86.8455C212.876 87.3956 214.477 88.4133 215.434 90.0189C216.39 91.6246 216.567 93.88 215.558 95.4444C214.48 97.1154 212.334 97.5967 210.55 97.0466C208.77 96.4931 207.299 95.104 206.029 93.6084C205.088 92.5013 204.224 91.3117 203.444 90.0602C203.094 89.4963 202.577 88.7915 202.586 88.1795C201.964 88.1692 201.351 88.2345 200.759 88.4133C199.208 90.8957 197.632 93.8147 195.997 97.222C196.916 97.6689 197.768 98.1468 198.573 98.6351C200.121 98.1468 201.803 98.2775 203.332 98.8345C204.918 99.4087 206.355 100.413 207.649 101.585C208.832 102.658 209.937 103.933 210.448 105.529C210.959 107.127 210.745 109.101 209.606 110.229C208.634 111.188 207.169 111.356 205.921 110.944C204.673 110.531 203.608 109.617 202.67 108.616C200.874 106.698 199.424 104.384 198.437 101.843C198.198 101.234 197.647 99.7731 198.022 99.0511C197.297 98.6213 196.542 98.2019 195.727 97.803C194.253 100.911 192.73 104.411 191.129 108.358C191.061 108.523 190.986 108.685 190.918 108.85C191.596 108.922 192.237 109.07 192.86 109.252C193.693 108.252 196.105 108.355 196.972 108.578C198.672 109.018 200.146 110.181 201.487 111.425C202.663 112.515 203.812 113.746 204.351 115.341C204.89 116.933 204.639 118.969 203.404 119.973C201.964 121.145 199.83 120.45 198.536 119.085C197.238 117.721 196.501 115.847 195.526 114.186C195.003 113.292 194.402 112.453 193.739 111.68C193.358 111.236 192.51 110.579 192.603 109.85C191.98 109.675 191.336 109.534 190.655 109.479C190.513 109.802 190.367 110.122 190.218 110.438C190.209 110.466 190.197 110.497 190.181 110.521C188.689 113.684 186.917 116.462 185.05 118.865C185.917 119.158 186.701 119.519 187.438 119.911C188.076 119.591 189.085 119.687 190.008 119.962C191.736 120.478 193.454 121.135 194.953 122.221C196.452 123.308 197.728 124.865 198.282 126.753C198.505 127.512 198.607 128.341 198.434 129.118C198.273 129.83 197.895 130.452 197.52 131.054C197.158 131.635 196.783 132.23 196.257 132.625C195.136 133.467 193.56 133.203 192.439 132.357C191.318 131.515 190.562 130.201 189.893 128.895C188.775 126.715 187.784 124.439 186.986 122.094C186.716 121.303 186.735 120.75 186.939 120.375C186.224 120.01 185.462 119.677 184.62 119.409C184.347 119.746 184.075 120.079 183.802 120.402C183.781 120.44 183.756 120.471 183.722 120.499C182.074 122.434 180.399 124.091 178.811 125.491C179.195 125.982 179.548 126.454 179.882 126.914C180.684 127.134 181.715 128.135 182.143 128.437C183.288 129.242 184.449 130.064 185.372 131.171C186.292 132.278 186.964 133.725 186.914 135.231C186.852 137.167 185.484 138.958 183.771 139.336C182.059 139.715 180.176 138.645 179.452 136.885C178.733 135.138 179.12 133.117 179.185 131.198C179.216 130.263 178.591 127.932 179.034 127.196C179.077 127.121 179.13 127.066 179.185 127.017C178.916 126.653 178.643 126.285 178.343 125.903C178.253 125.982 178.163 126.055 178.074 126.13C178.061 126.151 178.049 126.175 178.03 126.196C177.996 126.23 177.956 126.254 177.913 126.268C173.794 129.727 170.503 131.356 170.434 131.391C170.323 131.446 170.199 131.418 170.116 131.332C170.085 131.301 170.06 131.264 170.044 131.222C169.979 131.057 170.044 130.861 170.196 130.789C170.261 130.758 173.407 129.201 177.38 125.897C177.08 125.529 176.789 125.188 176.504 124.862C175.962 125.016 175.132 124.614 174.494 124.38C172.853 123.775 171.097 123.706 169.379 123.5C168.812 123.431 168.239 123.345 167.716 123.098C166.976 122.747 166.39 122.097 165.83 121.458C165.356 120.918 164.861 120.306 164.817 119.553C164.793 119.113 164.932 118.68 165.118 118.288C165.91 116.607 167.635 115.527 169.341 115.64C171.627 115.795 173.41 117.8 174.955 119.677C175.835 120.746 177.002 122.09 177.058 123.638C177.07 123.988 177.03 124.246 176.953 124.435C177.247 124.772 177.544 125.123 177.848 125.498C179.566 124.033 181.415 122.245 183.226 120.124C183.143 119.484 183.003 118.879 182.824 118.298C182.691 118.284 182.527 118.226 182.3 118.106C180.52 117.136 178.891 115.881 177.07 114.984C174.798 113.863 172.314 113.117 170.391 111.367C169.459 110.521 168.638 109.245 168.902 107.942C169.047 107.224 169.505 106.629 170.023 106.165C171.973 104.408 174.859 104.246 177.148 105.395C179.436 106.546 181.152 108.84 182.152 111.401C182.496 112.281 182.765 113.199 182.951 114.138C183.133 115.07 183.233 116.019 183.248 116.971C183.251 117.232 183.257 117.466 183.248 117.662C183.452 118.253 183.623 118.869 183.737 119.519C185.88 116.923 187.936 113.849 189.627 110.27C189.478 109.307 189.277 108.413 189.032 107.585C188.038 107.702 186.468 105.563 185.766 104.992C184.617 104.061 183.276 103.476 181.978 102.823C180.876 102.269 179.795 101.661 178.743 101.001C177.594 100.282 176.38 99.364 176.061 97.9405C175.705 96.3659 176.665 94.6915 177.975 93.9729C179.284 93.2543 180.842 93.323 182.266 93.6875C184.474 94.2514 186.589 95.5407 187.933 97.5658C188.54 98.4803 188.977 99.5187 189.407 100.547C189.881 101.674 190.361 102.85 190.364 104.091C190.364 104.779 190.153 106.522 189.559 107.258C189.754 107.908 189.93 108.585 190.07 109.314C190.246 108.915 190.42 108.513 190.587 108.104C191.853 104.985 193.073 102.139 194.259 99.5427C194.058 98.0368 193.721 96.6787 193.309 95.4307C192.909 95.2416 192.401 94.7293 192.24 94.5367C191.943 94.1826 191.606 93.8697 191.274 93.5568C190.166 92.5116 189.051 91.4561 187.8 90.6344C186.592 89.8402 185.273 89.2729 184.056 88.4958C182.839 87.7188 181.694 86.677 181.118 85.257C180.966 84.8857 180.857 84.4834 180.879 84.0777C180.929 83.1219 181.684 82.393 182.461 81.9839C184.611 80.8596 187.27 81.3925 189.206 82.9225C191.138 84.4559 192.405 86.8558 193.107 89.376C193.553 90.9713 194.259 93.3987 193.851 95.1109C194.207 96.1699 194.504 97.3182 194.715 98.5594C194.919 98.1193 195.12 97.6896 195.322 97.2667C195.322 97.2667 195.322 97.2632 195.322 97.2598C195.322 97.2529 195.331 97.2495 195.334 97.2392C196.888 93.9832 198.387 91.1604 199.867 88.7262C199.932 87.791 199.88 86.8352 199.756 85.8862C199.26 85.7659 198.746 85.3327 198.406 85.0783C196.814 83.8921 195.489 82.3174 194.256 80.7049C193.132 79.2299 192.027 77.6208 191.72 75.7195C191.414 73.8182 192.175 71.5696 193.817 70.9301C194.842 70.5312 195.969 70.8166 197.015 71.1295L197.012 71.1192Z" fill="#D3F4E4"></path><path d="M0.681249 131.662C0.935167 130.995 1.20147 130.328 1.59164 129.744C2.68163 128.111 4.61697 127.396 6.44704 127.416C8.27711 127.44 10.0452 128.097 11.7793 128.747C12.4141 128.984 13.9345 129.201 14.238 129.964C14.2504 129.995 14.2504 130.022 14.2566 130.053C14.8294 130.053 15.4054 130.081 15.969 130.167C13.727 127.829 11.9775 125.591 10.646 123.383C9.82539 123.576 8.76327 123.332 8.11299 123.139C6.90843 122.782 5.78438 122.063 4.89257 121.097C3.29474 119.361 2.41532 116.906 2.23882 114.43C2.11496 112.725 2.32862 110.93 3.17707 109.503C4.02553 108.076 5.60787 107.11 7.11899 107.444C8.466 107.739 9.49715 108.957 10.2403 110.239C11.0176 111.576 11.578 113.065 11.9125 114.609C12.2097 115.977 12.3274 117.39 12.2686 118.793C12.2221 119.911 12.1788 121.991 11.4913 122.885C11.4108 122.991 11.3117 123.074 11.2064 123.146C12.4265 125.147 14.0057 127.176 15.9906 129.29C15.9782 128.695 16.0402 128.1 16.1393 127.513C16.1269 127.488 16.1083 127.478 16.0959 127.454C15.681 126.636 15.6655 125.23 15.6314 124.312C15.554 122.235 15.9101 120.131 16.6936 118.24C17.4181 116.49 18.5484 114.874 20.1122 114.045C21.6759 113.217 23.7134 113.34 24.9676 114.667C26.3053 116.084 26.4384 118.515 25.6952 120.395C24.9521 122.276 23.506 123.7 21.998 124.886C20.877 125.766 19.6972 126.55 18.4741 127.234C17.9229 127.54 17.22 128.011 16.675 127.915C16.579 128.599 16.5511 129.283 16.6285 129.957C18.6258 132.013 21.0071 134.152 23.8187 136.424C24.3482 135.475 24.8901 134.606 25.4413 133.791C25.2215 132.02 25.5745 130.191 26.2836 128.585C27.0175 126.921 28.1137 125.484 29.3399 124.226C30.4608 123.077 31.7521 122.039 33.2478 121.699C34.7434 121.358 36.4744 121.87 37.3197 123.284C38.0412 124.487 37.9824 126.12 37.4405 127.437C36.8986 128.75 35.9325 129.795 34.9075 130.686C32.9474 132.391 30.6776 133.66 28.2778 134.396C27.7018 134.571 26.3238 134.973 25.7324 134.461C25.2493 135.197 24.7663 135.971 24.2987 136.809C26.8657 138.865 29.7734 141.028 33.0682 143.342C33.2075 143.438 33.3406 143.541 33.4769 143.641C33.6348 142.905 33.8578 142.221 34.1086 141.564C33.3314 140.509 33.7618 137.872 34.0807 136.95C34.7124 135.142 35.9541 133.684 37.2485 132.384C38.3849 131.243 39.6452 130.153 41.1409 129.782C42.6365 129.414 44.417 129.971 45.1385 131.47C45.9808 133.22 45.0642 135.465 43.6677 136.699C42.2711 137.934 40.4937 138.484 38.8773 139.323C38.0072 139.773 37.1742 140.316 36.3908 140.939C35.9418 141.296 35.2357 142.135 34.6009 141.932C34.3563 142.592 34.1427 143.28 33.9971 144.023C34.2665 144.226 34.5297 144.428 34.7929 144.638C34.8177 144.655 34.8394 144.669 34.8611 144.693C37.4746 146.777 39.7041 149.111 41.5868 151.501C41.9677 150.59 42.3981 149.778 42.8533 149.022C42.6582 148.276 42.8842 147.179 43.2589 146.203C43.9587 144.373 44.7855 142.579 45.9653 141.083C47.1451 139.587 48.7089 138.405 50.4708 138.057C51.1799 137.917 51.9324 137.92 52.6012 138.223C53.2144 138.498 53.7129 139 54.1991 139.498C54.6666 139.976 55.1435 140.475 55.4253 141.107C56.0198 142.458 55.5646 144.153 54.6543 145.267C53.7439 146.381 52.4712 147.028 51.2109 147.581C49.1114 148.506 46.9438 149.276 44.7391 149.826C43.9959 150.012 43.5036 149.916 43.197 149.637C42.7728 150.373 42.3671 151.164 42.011 152.051C42.2742 152.398 42.5312 152.742 42.7821 153.089C42.813 153.117 42.8378 153.151 42.8564 153.192C44.352 155.273 45.5968 157.349 46.6218 159.288C47.111 158.934 47.5848 158.611 48.04 158.308C48.3466 157.459 49.3839 156.466 49.7122 156.036C50.5916 154.887 51.4834 153.725 52.6012 152.869C53.716 152.01 55.1002 151.477 56.4379 151.742C58.1565 152.078 59.5592 153.835 59.6583 155.771C59.7574 157.707 58.5404 159.625 56.8683 160.179C55.2116 160.726 53.4621 160.014 51.7621 159.677C50.9322 159.512 48.7646 159.873 48.1701 159.285C48.1112 159.226 48.0679 159.161 48.0338 159.092C47.6715 159.336 47.3061 159.587 46.9222 159.863C46.9779 159.973 47.0336 160.083 47.0894 160.193C47.1079 160.21 47.1265 160.227 47.142 160.248C47.1699 160.292 47.1823 160.337 47.1885 160.385C49.6967 165.398 50.6907 169.245 50.7092 169.324C50.7433 169.455 50.7 169.586 50.6102 169.668C50.5792 169.696 50.542 169.72 50.5018 169.73C50.3438 169.778 50.1797 169.675 50.1364 169.5C50.1178 169.424 49.1672 165.745 46.7766 160.918C46.4081 161.197 46.0644 161.468 45.73 161.736C45.7919 162.355 45.3181 163.211 45.0209 163.878C44.2529 165.597 43.9464 167.516 43.5221 169.379C43.3828 169.991 43.2249 170.61 42.9307 171.15C42.5127 171.913 41.8531 172.467 41.2028 172.993C40.6547 173.437 40.0385 173.897 39.3635 173.839C38.9671 173.804 38.5986 173.591 38.2766 173.333C36.8893 172.226 36.1678 170.177 36.5084 168.317C36.9636 165.828 39.0043 164.147 40.8932 162.709C41.9677 161.891 43.3332 160.794 44.7205 160.952C45.0333 160.987 45.2593 161.069 45.4172 161.183C45.7578 160.908 46.1109 160.629 46.4886 160.347C45.4203 158.253 44.0888 155.971 42.4507 153.681C41.8686 153.681 41.3081 153.753 40.7662 153.866C40.7352 154.011 40.6609 154.186 40.5216 154.416C39.4099 156.235 38.0598 157.855 37.007 159.728C35.6909 162.07 34.6753 164.697 32.8483 166.567C31.9627 167.475 30.7117 168.2 29.5845 167.726C28.9652 167.464 28.4976 166.876 28.157 166.244C26.8626 163.854 27.1228 160.66 28.4698 158.302C29.8168 155.946 32.102 154.382 34.5266 153.639C35.3596 153.385 36.2174 153.217 37.0813 153.144C37.9359 153.072 38.7999 153.096 39.6514 153.213C39.8868 153.244 40.0942 153.272 40.2676 153.309C40.8219 153.165 41.3948 153.069 41.9924 153.034C39.9766 150.318 37.5241 147.626 34.5669 145.264C33.6875 145.291 32.8638 145.391 32.0896 145.542C32.0556 146.653 29.9282 148.076 29.3213 148.771C28.3304 149.906 27.6213 151.295 26.8596 152.629C26.2124 153.763 25.5187 154.867 24.7818 155.933C23.9798 157.095 22.992 158.302 21.679 158.453C20.2267 158.621 18.8642 157.335 18.4059 155.795C17.9477 154.255 18.2294 152.553 18.7528 151.037C19.5641 148.688 21.0071 146.543 23.0043 145.35C23.9054 144.81 24.8901 144.477 25.8687 144.147C26.9401 143.786 28.0548 143.421 29.1665 143.59C29.7796 143.682 31.3062 144.164 31.876 144.917C32.4829 144.793 33.1115 144.693 33.7804 144.642C33.449 144.391 33.1146 144.143 32.774 143.902C30.1698 142.073 27.8009 140.334 25.6519 138.669C24.2801 138.68 23.0229 138.859 21.8524 139.141C21.6295 139.553 21.1 140.038 20.9049 140.189C20.5457 140.464 20.2205 140.794 19.8954 141.114C18.8085 142.187 17.7123 143.263 16.805 144.525C15.9287 145.742 15.2382 147.114 14.3742 148.341C13.5103 149.569 12.4234 150.686 11.0733 151.119C10.7203 151.233 10.3456 151.298 9.98641 151.219C9.14105 151.03 8.59605 150.102 8.34213 149.187C7.63922 146.667 8.48767 143.816 10.1227 141.905C11.7607 139.993 14.0801 138.938 16.4242 138.518C17.9105 138.25 20.1741 137.817 21.6419 138.504C22.6358 138.26 23.7011 138.095 24.8375 138.037C24.4752 137.751 24.1191 137.47 23.7692 137.188C23.7692 137.188 23.7661 137.188 23.763 137.188C23.7568 137.184 23.7537 137.177 23.7475 137.17C21.0597 135.008 18.7528 132.962 16.7895 130.995C15.9628 130.793 15.105 130.717 14.2411 130.72C14.0646 131.246 13.6063 131.752 13.3307 132.092C12.0518 133.677 10.4602 134.912 8.84997 136.043C7.3791 137.074 5.78747 138.061 4.04721 138.133C2.30694 138.202 0.408752 137.054 0.071227 135.156C-0.139339 133.973 0.272503 132.776 0.696732 131.666L0.681249 131.662Z" fill="#D3F4E4"></path><path d="M249.706 91.7105C250.443 90.2459 251.499 88.8362 252.958 88.4064C254.593 87.9251 256.386 88.8637 257.408 90.3662C258.426 91.8653 258.77 93.8182 258.742 95.6989C258.699 98.4254 257.891 101.186 256.243 103.211C255.324 104.342 254.141 105.212 252.84 105.697C251.846 106.068 249.945 106.636 249.115 105.68C248.31 104.752 248.133 102.472 248.013 101.252C247.861 99.7147 247.904 98.1572 248.146 96.634C248.418 94.9115 248.942 93.2371 249.71 91.714L249.706 91.7105Z" fill="#7F9868"></path><path d="M249.164 112.13C251.026 111.284 252.924 110.428 254.93 110.266C256.937 110.101 259.101 110.741 260.396 112.446C260.857 113.055 261.192 113.767 261.51 114.478C262.043 115.661 262.569 116.943 262.412 118.257C262.158 120.361 260.145 121.767 258.234 121.822C256.324 121.877 254.518 120.915 252.84 119.897C251.004 118.779 249.183 117.545 247.681 115.905C247.204 115.386 246.254 114.509 246.539 113.65C246.823 112.794 248.477 112.439 249.161 112.13H249.164Z" fill="#7F9868"></path><path d="M243.12 100.983C242.219 99.1199 240.878 97.4318 239.113 96.6444C237.345 95.8571 235.119 96.1459 233.824 97.6965C232.443 99.3537 232.449 102.025 233.381 104.033C234.31 106.041 235.986 107.492 237.713 108.678C238.995 109.558 240.336 110.328 241.723 110.985C242.606 111.401 243.851 112.182 244.343 111.044C244.746 110.115 244.678 108.572 244.659 107.564C244.619 105.278 244.095 103.002 243.12 100.987V100.983Z" fill="#7F9868"></path><path d="M244.69 123.191C247.288 123.476 249.895 124.456 251.809 126.426C253.723 128.396 254.825 131.46 254.212 134.275C253.989 135.297 253.45 136.359 252.534 136.631C252.143 136.748 251.732 136.703 251.338 136.607C249.833 136.232 248.57 135.094 247.548 133.811C246.526 132.529 245.684 131.078 244.647 129.809C243.572 128.496 242.306 127.396 241.045 126.306C240.668 125.979 240.29 125.642 239.881 125.367C239.525 125.126 238.2 124.033 238.797 123.655C240.349 122.672 242.987 123.005 244.69 123.191Z" fill="#7F9868"></path><path d="M234.481 118.907C234.663 116.882 234.152 114.826 233.245 113.058C232.338 111.291 231.047 109.795 229.625 108.51C228.325 107.334 226.845 106.295 225.182 106.037C223.519 105.78 221.652 106.471 220.812 108.087C220.097 109.462 220.258 111.25 220.936 112.649C221.611 114.048 222.735 115.121 223.915 116.022C226.173 117.745 228.737 118.962 231.415 119.584C232.202 119.766 234.36 120.258 234.481 118.91V118.907Z" fill="#7F9868"></path><path d="M231.031 129.727C232.239 129.455 233.484 129.771 234.682 130.084C235.775 130.373 236.877 130.662 237.899 131.185C240.16 132.34 241.878 134.581 242.913 137.098C243.581 138.721 243.99 140.564 243.585 142.29C243.179 144.016 241.764 145.529 240.16 145.453C238.711 145.384 237.552 144.14 236.602 142.923C235.729 141.809 234.902 140.653 234.118 139.457C233.199 138.051 232.335 136.579 231.18 135.414C230.446 134.674 227.87 133.196 227.935 131.955C227.993 130.799 230.229 129.906 231.034 129.723L231.031 129.727Z" fill="#7F9868"></path><path d="M225.207 122.826C224.405 120.891 222.952 119.388 221.45 118.061C220.134 116.895 218.685 115.795 217.022 115.506C215.36 115.218 213.443 115.964 212.743 117.662C211.925 119.643 213.071 122.035 214.681 123.284C216.292 124.532 218.27 124.999 220.097 125.797C221.082 126.227 222.026 126.756 222.924 127.378C223.46 127.75 224.327 128.682 225.027 128.307C226.442 127.55 225.68 123.957 225.21 122.826H225.207Z" fill="#7F9868"></path><path d="M222.937 140.805C223.887 140.818 224.838 140.935 225.767 141.152C228.47 141.781 231.075 143.321 232.697 145.804C234.32 148.286 234.8 151.769 233.53 154.489C233.193 155.207 232.719 155.888 232.053 156.222C230.849 156.827 229.43 156.129 228.402 155.2C226.281 153.289 225.008 150.487 223.42 148.018C222.147 146.041 220.568 144.37 219.236 142.458C218.487 141.382 219.078 141.293 220.125 141.076C221.051 140.884 221.995 140.794 222.937 140.805Z" fill="#7F9868"></path><path d="M215.716 133.674C214.833 131.721 213.817 129.816 212.433 128.265C211.049 126.715 209.259 125.536 207.305 125.291C206.519 125.192 205.695 125.254 204.98 125.632C204.326 125.979 203.806 126.57 203.305 127.151C202.821 127.712 202.329 128.293 202.06 129.008C201.49 130.535 202.097 132.357 203.162 133.509C204.227 134.66 205.667 135.272 207.082 135.785C209.442 136.637 211.867 137.322 214.319 137.755C216.982 138.226 216.626 135.682 215.716 133.67V133.674Z" fill="#7F9868"></path><path d="M219.335 151.583C221.494 153.017 223.835 154.705 224.488 157.401C224.977 159.416 224.312 161.716 222.856 163.036C222.519 163.342 222.129 163.607 221.695 163.675C220.958 163.792 220.252 163.335 219.623 162.888C218.88 162.359 218.119 161.805 217.617 160.997C217.261 160.426 217.05 159.763 216.858 159.099C216.279 157.091 215.824 155.008 214.876 153.182C214.266 152.01 213.087 150.301 215.028 149.947C216.539 149.672 218.103 150.768 219.332 151.583H219.335Z" fill="#7F9868"></path><path d="M209.247 144.944C208.213 143.751 207.16 142.548 205.884 141.692C204.608 140.836 203.057 140.358 201.608 140.746C199.744 141.248 198.313 143.28 198.325 145.408C198.338 147.537 199.79 149.551 201.657 150.029C203.509 150.5 205.382 149.589 207.228 149.087C208.126 148.843 210.526 149.073 211.142 148.382C212.031 147.382 209.804 145.584 209.247 144.944Z" fill="#7F9868"></path><path d="M251.081 130.951C251.026 130.872 245.545 123.125 235.434 123.304C235.815 122.964 236.187 122.627 236.552 122.29C236.552 122.29 236.555 122.29 236.558 122.29C236.565 122.286 236.568 122.276 236.574 122.273C239.389 119.694 241.792 117.277 243.823 114.97C250.072 112.979 258.426 117.153 258.51 117.194C258.674 117.277 258.866 117.194 258.94 117.016C259.015 116.833 258.947 116.62 258.779 116.538C258.445 116.369 250.954 112.629 244.656 114.007C249.697 108.052 252.23 102.802 252.942 97.3767C252.967 97.1773 252.84 96.9951 252.667 96.9676C252.49 96.9401 252.323 97.0742 252.298 97.2736C251.623 102.41 249.254 107.406 244.575 113.051C244.356 106.484 237.19 100.285 236.871 100.01C236.735 99.9244 236.524 99.9175 236.413 100.076C236.305 100.234 236.329 100.461 236.472 100.585C236.549 100.653 244.297 107.351 243.916 113.832C241.854 116.239 239.373 118.766 236.432 121.472C230.675 112.453 223.869 109.472 223.801 109.441C223.633 109.369 223.445 109.462 223.38 109.648C223.314 109.833 223.398 110.043 223.565 110.115C223.63 110.143 230.285 113.069 235.927 121.929C233.239 124.377 230.183 126.973 226.711 129.761C226.566 129.878 226.427 130.002 226.281 130.122C224.079 122.118 216.291 118.955 216.211 118.92C216.041 118.855 215.855 118.951 215.796 119.141C215.737 119.33 215.83 119.539 215.994 119.601C216.072 119.632 223.729 122.74 225.736 130.579C225.454 130.82 225.176 131.068 224.903 131.315C224.878 131.332 224.853 131.353 224.832 131.38C222.094 133.863 219.797 136.596 217.877 139.361C213.316 130.036 204.995 129.297 204.909 129.29C204.729 129.276 204.574 129.428 204.562 129.627C204.549 129.826 204.686 129.998 204.865 130.012C204.949 130.019 213.083 130.741 217.447 139.993C217.177 140.392 216.917 140.791 216.666 141.19C216.635 141.224 216.61 141.262 216.592 141.307C215.081 143.703 213.845 146.075 212.839 148.279C204.388 143.005 200.546 143.899 200.384 143.94C200.211 143.985 200.103 144.177 200.14 144.373C200.158 144.463 200.205 144.535 200.267 144.587C200.341 144.645 200.434 144.669 200.53 144.645C200.567 144.635 204.342 143.799 212.545 148.926C212.489 149.053 212.436 149.173 212.384 149.3C212.365 149.321 212.343 149.342 212.331 149.366C212.306 149.414 212.294 149.469 212.288 149.52C209.844 155.207 208.996 159.502 208.977 159.591C208.95 159.735 209.005 159.876 209.104 159.959C209.142 159.986 209.182 160.01 209.228 160.017C209.405 160.059 209.578 159.935 209.615 159.739C209.631 159.653 210.445 155.548 212.771 150.071C221.967 156.111 221.488 160.344 221.478 160.42C221.453 160.56 221.509 160.698 221.608 160.777C221.645 160.808 221.689 160.829 221.735 160.839C221.912 160.877 222.082 160.75 222.116 160.554C222.15 160.361 222.813 155.812 213.053 149.417C214.093 147.041 215.415 144.435 217.069 141.802C225.21 141.272 230.499 151.786 230.551 151.893C230.638 152.068 230.836 152.133 230.994 152.037C231.152 151.941 231.211 151.721 231.124 151.546C231.071 151.436 225.807 140.959 217.546 141.059C219.586 137.927 222.113 134.788 225.207 131.972C235.781 131.58 239.897 140.605 239.937 140.695C240.017 140.877 240.209 140.949 240.373 140.86C240.534 140.77 240.603 140.554 240.522 140.375C240.482 140.282 236.413 131.325 226.033 131.233C226.38 130.934 226.73 130.634 227.092 130.346C229.836 128.142 232.325 126.055 234.58 124.064C244.901 123.418 250.505 131.312 250.561 131.391C250.673 131.552 250.874 131.58 251.019 131.456C251.162 131.336 251.19 131.109 251.078 130.947L251.081 130.951Z" fill="#539173"></path><path d="M288.46 155.242C289.704 154.293 291.212 153.543 292.693 153.877C294.352 154.251 295.585 155.974 295.901 157.82C296.217 159.667 295.746 161.585 294.972 163.256C293.848 165.68 292.021 167.76 289.735 168.767C288.463 169.328 287.051 169.527 285.691 169.324C284.654 169.17 282.722 168.743 282.359 167.478C282.006 166.247 282.759 164.119 283.137 162.964C283.613 161.513 284.273 160.134 285.097 158.89C286.026 157.48 287.162 156.235 288.46 155.245V155.242Z" fill="#7F9868"></path><path d="M279.836 173.289C281.842 173.447 283.886 173.612 285.75 174.451C287.614 175.29 289.302 176.926 289.782 179.092C289.952 179.866 289.968 180.667 289.971 181.465C289.977 182.788 289.937 184.198 289.271 185.295C288.203 187.055 285.84 187.33 284.103 186.44C282.366 185.549 281.13 183.799 280.034 182.063C278.832 180.158 277.693 178.157 276.999 175.95C276.779 175.252 276.275 173.997 276.875 173.364C277.473 172.735 279.099 173.23 279.833 173.289H279.836Z" fill="#7F9868"></path><path d="M278.857 160.32C278.789 158.205 278.263 156.036 276.993 154.458C275.724 152.883 273.612 152.047 271.831 152.804C269.933 153.612 268.874 156.012 268.908 158.267C268.942 160.523 269.865 162.647 270.942 164.559C271.741 165.979 272.636 167.33 273.621 168.599C274.246 169.407 275.052 170.717 275.95 169.936C276.68 169.3 277.235 167.884 277.619 166.969C278.492 164.899 278.932 162.599 278.86 160.313L278.857 160.32Z" fill="#7F9868"></path><path d="M271.413 181.007C273.63 182.537 275.578 184.7 276.507 187.406C277.436 190.115 277.207 193.402 275.531 195.627C274.925 196.435 274.017 197.119 273.088 196.912C272.692 196.827 272.339 196.582 272.026 196.301C270.825 195.224 270.15 193.584 269.741 191.931C269.335 190.28 269.159 188.565 268.735 186.918C268.295 185.212 267.598 183.603 266.904 182.004C266.697 181.527 266.493 181.038 266.236 180.591C266.013 180.203 265.257 178.57 265.945 178.522C267.728 178.401 269.961 179.997 271.413 181.001V181.007Z" fill="#7F9868"></path><path d="M263.966 172.147C264.935 170.421 265.301 168.327 265.189 166.295C265.078 164.263 264.517 162.286 263.756 160.437C263.059 158.742 262.145 157.084 260.758 156.036C259.371 154.987 257.42 154.691 256.023 155.726C254.834 156.61 254.268 158.291 254.314 159.88C254.364 161.468 254.94 162.981 255.639 164.367C256.977 167.017 258.792 169.373 260.947 171.246C261.579 171.797 263.319 173.296 263.966 172.147Z" fill="#7F9868"></path><path d="M256.559 180.158C257.748 180.509 258.739 181.403 259.69 182.273C260.557 183.067 261.427 183.871 262.136 184.841C263.703 186.99 264.35 189.844 264.276 192.608C264.229 194.389 263.861 196.245 262.811 197.593C261.758 198.941 259.888 199.605 258.479 198.748C257.206 197.975 256.664 196.29 256.296 194.733C255.958 193.306 255.676 191.862 255.45 190.404C255.187 188.692 254.998 186.949 254.425 185.333C254.063 184.311 252.341 181.719 252.893 180.636C253.407 179.629 255.766 179.924 256.562 180.158H256.559Z" fill="#7F9868"></path><path d="M254.085 171.105C254.137 168.974 253.435 166.914 252.617 164.985C251.902 163.294 251.041 161.595 249.663 160.516C248.288 159.44 246.269 159.168 244.965 160.347C243.442 161.723 243.516 164.432 244.461 166.34C245.405 168.252 246.997 169.641 248.316 171.257C249.025 172.127 249.663 173.065 250.22 174.062C250.552 174.657 250.96 175.919 251.735 175.929C253.304 175.946 254.054 172.35 254.085 171.105Z" fill="#7F9868"></path><path d="M244.885 186.113C245.734 186.591 246.536 187.165 247.285 187.815C249.459 189.706 251.18 192.367 251.645 195.389C252.109 198.412 251.156 201.771 248.929 203.586C248.341 204.064 247.644 204.442 246.916 204.415C245.594 204.367 244.6 203.039 244.049 201.705C242.909 198.948 242.885 195.809 242.442 192.814C242.089 190.418 241.339 188.142 240.906 185.773C240.661 184.442 241.228 184.648 242.253 184.972C243.16 185.254 244.043 185.635 244.882 186.113H244.885Z" fill="#7F9868"></path><path d="M241.253 176.17C241.24 173.987 241.089 171.776 240.466 169.706C239.844 167.636 238.707 165.697 237.054 164.518C236.388 164.043 235.623 163.693 234.83 163.682C234.106 163.672 233.406 163.947 232.722 164.222C232.065 164.487 231.39 164.765 230.864 165.278C229.746 166.364 229.563 168.3 230.059 169.857C230.554 171.415 231.601 172.67 232.666 173.825C234.44 175.75 236.345 177.552 238.37 179.147C240.568 180.88 241.265 178.422 241.253 176.17Z" fill="#7F9868"></path><path d="M237.36 194.011C238.726 196.355 240.15 199.02 239.664 201.76C239.299 203.806 237.788 205.542 235.958 206.013C235.53 206.123 235.078 206.168 234.663 206.013C233.954 205.756 233.508 204.999 233.121 204.291C232.663 203.452 232.205 202.579 232.075 201.609C231.982 200.921 232.059 200.223 232.152 199.536C232.434 197.449 232.855 195.358 232.731 193.254C232.654 191.903 232.273 189.792 234.156 190.428C235.62 190.923 236.586 192.677 237.364 194.011H237.36Z" fill="#7F9868"></path><path d="M230.96 183.098C230.508 181.52 230.046 179.921 229.241 178.529C228.436 177.133 227.238 175.943 225.782 175.579C223.912 175.114 221.819 176.232 220.98 178.147C220.14 180.062 220.642 182.582 222.125 183.926C223.596 185.261 225.64 185.364 227.495 185.821C228.399 186.044 230.458 187.43 231.285 187.114C232.48 186.653 231.201 183.947 230.957 183.098H230.96Z" fill="#7F9868"></path><path d="M274.052 191.105C274.033 191.006 272.206 181.368 263.068 176.558C263.545 176.438 264.013 176.321 264.474 176.201C264.474 176.201 264.477 176.201 264.48 176.201C264.489 176.201 264.492 176.194 264.502 176.194C268.054 175.266 271.172 174.279 273.912 173.206C280.31 174.492 286.137 182.338 286.196 182.417C286.311 182.572 286.515 182.596 286.655 182.469C286.794 182.341 286.819 182.114 286.701 181.96C286.469 181.643 281.245 174.609 275.042 172.749C281.935 169.885 286.302 166.423 289.104 161.908C289.206 161.743 289.166 161.516 289.02 161.406C288.872 161.293 288.67 161.334 288.568 161.499C285.918 165.773 281.802 169.091 275.352 171.851C277.774 165.855 273.816 156.775 273.64 156.373C273.553 156.228 273.364 156.118 273.203 156.208C273.042 156.297 272.974 156.514 273.054 156.692C273.098 156.792 277.374 166.608 274.451 172.23C271.642 173.371 268.41 174.42 264.694 175.403C263.127 164.487 258.213 158.467 258.16 158.408C258.039 158.26 257.832 158.253 257.699 158.387C257.565 158.522 257.556 158.752 257.68 158.9C257.73 158.958 262.529 164.851 264.056 175.568C260.668 176.445 256.897 177.27 252.67 178.064C252.49 178.099 252.317 178.14 252.14 178.174C253.357 169.912 247.632 163.249 247.573 163.18C247.449 163.036 247.242 163.036 247.111 163.173C246.981 163.314 246.985 163.548 247.105 163.686C247.161 163.751 252.791 170.304 251.465 178.315C251.115 178.394 250.769 178.477 250.425 178.566C250.394 178.57 250.363 178.577 250.335 178.59C246.892 179.471 243.739 180.791 240.918 182.328C240.544 171.724 233.378 166.973 233.304 166.925C233.149 166.825 232.948 166.883 232.858 167.055C232.768 167.231 232.821 167.451 232.976 167.55C233.047 167.595 240.058 172.243 240.28 182.685C239.881 182.912 239.488 183.139 239.104 183.373C239.06 183.387 239.023 183.411 238.989 183.442C236.679 184.848 234.626 186.368 232.846 187.853C227.371 178.972 223.568 177.882 223.407 177.841C223.234 177.796 223.057 177.916 223.017 178.109C222.999 178.198 223.011 178.288 223.045 178.36C223.088 178.449 223.163 178.518 223.256 178.542C223.293 178.552 227.009 179.656 232.325 188.286C232.226 188.372 232.13 188.458 232.031 188.54C232.006 188.551 231.982 188.558 231.957 188.575C231.914 188.606 231.883 188.647 231.858 188.692C227.402 192.594 224.925 196.025 224.875 196.098C224.792 196.215 224.785 196.369 224.844 196.49C224.866 196.534 224.894 196.572 224.931 196.603C225.073 196.727 225.278 196.699 225.389 196.541C225.439 196.472 227.804 193.192 232.072 189.421C237.912 199.357 235.794 202.919 235.753 202.981C235.676 203.098 235.67 203.246 235.725 203.366C235.747 203.411 235.778 203.452 235.815 203.483C235.958 203.603 236.162 203.572 236.27 203.414C236.379 203.259 238.785 199.505 232.582 188.974C234.462 187.354 236.685 185.666 239.221 184.119C246.734 187.647 247.285 199.67 247.291 199.794C247.297 199.993 247.449 200.148 247.632 200.141C247.811 200.131 247.951 199.962 247.944 199.763C247.941 199.639 247.396 187.657 239.946 183.689C243.027 181.884 246.542 180.309 250.437 179.305C260.077 184.153 260.17 194.265 260.17 194.368C260.17 194.571 260.315 194.729 260.495 194.733C260.674 194.733 260.82 194.571 260.82 194.372C260.82 194.269 260.743 184.236 251.471 179.054C251.902 178.958 252.335 178.862 252.775 178.779C256.113 178.15 259.179 177.504 261.994 176.827C271.506 181.32 273.386 191.15 273.404 191.25C273.438 191.449 273.612 191.573 273.788 191.535C273.965 191.494 274.079 191.305 274.045 191.109L274.052 191.105Z" fill="#539173"></path><path d="M45.5843 119.268C42.3453 119.715 39.001 119.347 35.6599 118.594C32.6841 117.913 29.6556 117.009 27.2434 114.946C24.8436 112.893 23.1869 109.424 23.8713 106.141C25.1378 100.117 32.3001 98.9617 37.8646 99.0958C33.8391 96.0323 29.8167 91.3289 30.6403 85.9791C31.2349 82.0698 34.4119 79.1199 37.8553 78.0815C41.2987 77.0466 44.9588 77.6002 48.4425 78.4632C48.4425 78.4632 45.2747 74.5746 44.2466 71.2945C42.494 65.6593 44.4943 61.6985 46.8415 59.2711C49.1887 56.8541 52.8489 56.1286 55.8061 57.5073C55.4128 52.7523 55.0381 47.7738 56.6762 43.3488C57.856 40.1135 60.5005 37.3182 63.4639 36.5515C55.9268 40.2545 58.7261 54.7533 61.9063 56.2386C61.9063 56.2386 55.5707 60.3301 57.8188 67.7669C58.5992 70.3662 60.646 71.7174 63.6435 72.5219C61.2994 75.1315 59.2463 78.3291 58.9553 81.9942C58.6518 85.649 60.6491 89.7198 63.9098 90.3971C61.801 92.0234 60.4416 94.7705 60.3147 97.6002C60.1908 100.444 61.2808 103.376 63.2719 105.154C71.1774 112.182 77.5191 103.081 77.4944 101.427C78.092 103.988 82.5015 109.424 89.2892 106.949C91.754 106.055 93.7668 103.118 93.1258 100.323C95.1076 102.159 97.1699 103.971 99.5852 104.975C102.01 105.982 104.862 106.068 107.054 104.556C107.943 103.944 108.677 103.019 109.144 101.963C109.652 105.243 109.054 108.726 107.184 111.325C104.1 115.599 97.6715 116.503 94.0671 112.77C97.7551 117.445 93.4385 125.563 87.8864 126.34C86.654 126.512 85.4308 126.436 84.251 126.168C80.1078 125.23 76.3517 121.881 73.5896 118.14C72.0754 123.889 66.9846 128.571 61.6152 128.042C56.2644 127.499 53.0347 121.771 53.27 116.263C50.8299 117.975 48.2567 118.893 45.5905 119.271L45.5843 119.268Z" fill="#7F9868"></path><path d="M83.4027 130.796L82.8268 133.942L48.2134 134.643L47.687 131.521L83.4027 130.796Z" fill="#FEB161"></path><path d="M82.8267 133.942L82.2507 137.098L48.7522 137.779L48.2134 134.643L82.8267 133.942Z" fill="#E5802E"></path><path d="M82.2508 137.098L81.6748 140.254L49.2879 140.911L48.7522 137.779L82.2508 137.098Z" fill="#FEB161"></path><path d="M81.6747 140.254L79.3307 153.151L51.4802 153.715L49.2878 140.911L81.6747 140.254Z" fill="#E5802E"></path><path d="M83.4025 130.796L47.6868 131.521L45.5842 119.264C48.2473 118.886 50.8236 117.968 53.2637 116.256C53.0314 121.764 56.2612 127.492 61.6089 128.035C66.9783 128.568 72.0691 123.882 73.5833 118.133C76.3454 121.874 80.1016 125.223 84.2448 126.161L83.3994 130.796H83.4025Z" fill="#E5802E"></path><path d="M106.803 96.1251C103.71 91.8652 98.3683 90.0051 93.4974 90.8819C96.5971 87.4505 95.0457 81.1483 91.5683 78.219C91.3949 78.0746 91.2184 77.9405 91.0419 77.8064C92.2991 76.493 93.0422 74.8289 93.0113 73.0342C92.9803 71.1191 92.0761 69.3863 90.6176 68.0969C90.8685 67.6396 91.0728 67.1549 91.2153 66.646C92.7357 61.2137 90.0695 54.7739 85.4061 52.3981C83.669 51.5076 81.7367 51.2085 79.8416 51.4251C78.9591 48.7089 76.2651 46.6357 72.9053 46.1097C72.8805 45.783 72.8496 45.4564 72.8031 45.1298C72.286 41.3443 70.1184 37.5692 66.7865 36.5687C65.6687 36.2317 64.5446 36.2558 63.4577 36.548C55.9207 40.251 58.72 54.7498 61.9001 56.2351C61.9001 56.2351 55.5646 60.3266 57.8127 67.7634C58.593 70.3627 60.6398 71.7139 63.6373 72.5185C61.2932 75.128 59.2402 78.3256 58.9491 81.9907C58.6457 85.6455 60.6429 89.7163 63.9036 90.3936C61.7949 92.0199 60.4355 94.767 60.3085 97.5967C60.1847 100.44 61.2746 103.373 63.2657 105.15C71.1712 112.178 77.513 103.077 77.4882 101.427C78.0859 103.988 82.4954 109.424 89.283 106.949C91.7479 106.055 93.7606 103.118 93.1197 100.323C95.1014 102.159 97.1637 103.971 99.5791 104.975C102.004 105.982 104.856 106.068 107.048 104.556C107.937 103.944 108.671 103.019 109.138 101.963C108.81 99.8487 108.017 97.7961 106.806 96.1251H106.803ZM77.4542 101.269C77.4758 101.313 77.4851 101.348 77.4882 101.413C77.4789 101.368 77.4665 101.313 77.4542 101.269Z" fill="#8AAB7E"></path><path d="M247.09 180.402C251.252 186.608 256.352 200.866 246.015 210.318L245.22 211.044L233.081 213.849C243.863 198.14 233.923 182.947 233.923 182.947V182.895L246.762 179.935L247.09 180.402Z" fill="#97A2DA"></path><path d="M246.762 179.935L233.923 182.895L229.13 184.012L226.229 184.686L198 191.205L163.573 199.178L156.067 200.89L147.415 202.892L121.689 208.84C124.426 207.983 202.469 183.184 246.765 179.938L246.762 179.935Z" fill="#8391CC"></path><path d="M145.377 156.668L246.762 179.935C202.465 183.18 124.423 207.98 121.686 208.836L121.614 208.864L32.1579 175.001C31.9721 174.922 31.7832 174.898 31.5974 174.898L145.377 156.668Z" fill="#97A2DA"></path><path d="M233.923 182.947C233.923 182.947 243.863 198.137 233.081 213.849L228.216 214.967C238.484 199.412 229.151 184.092 229.151 184.092L229.127 184.012L233.92 182.895V182.947H233.923Z" fill="#7184BF"></path><path d="M224.569 215.823C228.359 210.628 229.433 204.734 229.362 199.488C229.223 191.332 226.25 184.765 226.25 184.765L226.225 184.686L229.127 184.012L229.152 184.092C229.152 184.092 238.485 199.412 228.216 214.967L224.569 215.823Z" fill="#97A2DA"></path><path d="M229.362 199.488C229.433 204.734 228.356 210.628 224.569 215.823L202.654 220.887L201.462 214.551L226.136 199.543L229.362 199.491V199.488Z" fill="#7184BF"></path><path d="M229.362 199.488L226.136 199.539L199.192 197.514L198 191.205L226.228 184.686L226.253 184.765C226.253 184.765 229.223 191.336 229.365 199.488H229.362Z" fill="#7184BF"></path><path d="M226.136 199.543L201.459 214.551L174.869 212.189L199.192 197.514L226.136 199.543Z" fill="#97A2DA"></path><path d="M201.459 214.551L202.651 220.887L165.115 229.586V229.558C168.973 223.376 169.744 217.614 169.184 212.862L174.866 212.188L201.456 214.551H201.459Z" fill="#7184BF"></path><path d="M198 191.205L199.192 197.514L174.869 212.185L169.187 212.859C168.273 204.81 163.644 199.536 163.644 199.536L163.573 199.171L198 191.198V191.205Z" fill="#7184BF"></path><path d="M169.187 212.862C169.747 217.614 168.976 223.38 165.118 229.558V229.586L156.138 231.662C166.149 220.004 156.138 201.307 156.138 201.307L156.067 200.891L163.573 199.178L163.644 199.543C163.644 199.543 168.273 204.814 169.187 212.866V212.862Z" fill="#97A2DA"></path><path d="M156.135 201.307C156.135 201.307 166.146 220.003 156.135 231.662L147.483 233.663C157.726 221.097 147.483 203.332 147.483 203.332L147.412 202.892L156.063 200.891L156.135 201.307Z" fill="#7184BF"></path><path d="M147.483 203.332C147.483 203.332 157.726 221.093 147.483 233.663L120.072 240L120.843 239.275C131.204 229.823 126.083 215.565 121.943 209.359L121.614 208.867L121.686 208.84L147.412 202.892L147.483 203.332Z" fill="#97A2DA"></path><path d="M121.943 209.355C126.083 215.561 131.204 229.82 120.843 239.271L120.072 239.997L30.9904 203.486C30.0769 203.122 29.6094 202.005 29.9376 200.994C30.2875 199.979 31.2939 199.46 32.2074 199.852L119.372 235.558C127.674 226.938 121.01 214.757 119.419 212.161L31.0152 178.69C30.1017 178.353 29.6125 177.236 29.9407 176.222C30.176 175.417 30.8759 174.898 31.6005 174.898C31.7862 174.898 31.9751 174.925 32.1609 175.001L121.617 208.864L121.946 209.355H121.943Z" fill="#B9C3EA"></path><path d="M119.419 212.161C121.01 214.757 127.674 226.938 119.372 235.558L32.2073 199.852C38.7782 188.712 31.0151 178.69 31.0151 178.69L119.419 212.161ZM117.456 217.432C91.4476 205.642 65.1857 194.994 38.7349 185.57C64.7428 197.384 91.0048 208.008 117.456 217.432ZM117.456 221.64C91.4476 209.85 65.1857 199.23 38.7349 189.802C64.7428 201.592 91.0048 212.213 117.456 221.64ZM117.456 225.848C91.4476 214.086 65.1857 203.438 38.7349 194.011C64.7428 205.8 91.0048 216.421 117.456 225.848ZM117.456 229.744C91.4476 217.954 65.1857 207.306 38.7349 197.906C64.7428 209.696 91.0048 220.316 117.456 229.744Z" fill="#FAE8DC"></path><path d="M38.7319 185.57C65.1827 194.997 91.4477 205.642 117.453 217.432C91.0018 208.004 64.7368 197.384 38.7319 185.57Z" fill="#D8C2B4"></path><path d="M38.7319 189.802C65.1827 199.23 91.4477 209.851 117.453 221.64C91.0018 212.213 64.7368 201.592 38.7319 189.802Z" fill="#D8C2B4"></path><path d="M38.7319 194.011C65.1827 203.438 91.4477 214.083 117.453 225.848C91.0018 216.421 64.7368 205.8 38.7319 194.011Z" fill="#D8C2B4"></path><path d="M38.7319 197.906C65.1827 207.306 91.4477 217.954 117.453 229.744C91.0018 220.316 64.7368 209.696 38.7319 197.906Z" fill="#D8C2B4"></path><path d="M246.319 144.697C250.608 150.755 256.014 164.793 245.947 174.499L245.173 175.245L233.158 178.387C243.52 162.441 233.273 147.609 233.273 147.609V147.557L245.981 144.239L246.319 144.697Z" fill="#C45854"></path><path d="M245.981 144.239L233.273 147.557L228.529 148.805L225.658 149.562L197.718 156.864L163.644 165.79L156.212 167.712L147.647 169.95L122.184 176.61C124.887 175.678 201.976 148.747 245.981 144.236V144.239Z" fill="#C45854"></path><path d="M144.541 124.009L245.984 144.239C201.976 148.747 124.887 175.682 122.187 176.613L122.119 176.641L32.2939 145.522C32.105 145.45 31.9192 145.429 31.7334 145.436L144.541 124.012V124.009Z" fill="#C45854"></path><path d="M233.273 147.609C233.273 147.609 243.52 162.441 233.158 178.387L228.343 179.639C238.197 163.861 228.551 148.884 228.551 148.884L228.526 148.809L233.27 147.561V147.612L233.273 147.609Z" fill="#C7645D"></path><path d="M224.733 180.595C228.38 175.317 229.316 169.421 229.12 164.201C228.789 156.091 225.68 149.637 225.68 149.637L225.655 149.562L228.526 148.805L228.551 148.881C228.551 148.881 238.196 163.858 228.343 179.635L224.733 180.595Z" fill="#C7645D"></path><path d="M229.124 164.201C229.316 169.421 228.383 175.317 224.736 180.595L203.044 186.268L201.71 179.997L225.912 164.346L229.124 164.201Z" fill="#C45854"></path><path d="M229.124 164.201L225.912 164.346L199.053 163.108L197.718 156.861L225.659 149.558L225.683 149.634C225.683 149.634 228.792 156.087 229.124 164.198V164.201Z" fill="#C45854"></path><path d="M225.912 164.346L201.707 179.997L175.188 178.412L199.053 163.108L225.912 164.346Z" fill="#C7645D"></path><path d="M201.707 179.997L203.041 186.268L165.889 196.008V195.981C169.583 189.72 170.218 183.961 169.546 179.247L175.185 178.411L201.703 179.997H201.707Z" fill="#C45854"></path><path d="M197.718 156.861L199.053 163.108L175.191 178.411L169.552 179.247C168.456 171.263 163.724 166.151 163.724 166.151L163.647 165.79L197.721 156.864L197.718 156.861Z" fill="#C45854"></path><path d="M169.549 179.247C170.218 183.961 169.586 189.72 165.889 195.981V196.008L157.002 198.336C166.691 186.443 156.292 168.124 156.292 168.124L156.212 167.712L163.644 165.79L163.721 166.151C163.721 166.151 168.453 171.264 169.549 179.247Z" fill="#C7645D"></path><path d="M156.289 168.124C156.289 168.124 166.688 186.443 156.999 198.336L148.433 200.574C158.333 187.77 147.724 170.39 147.724 170.39L147.644 169.954L156.209 167.715L156.289 168.128V168.124Z" fill="#C7645D"></path><path d="M147.727 170.387C147.727 170.387 158.336 187.767 148.437 200.571L121.308 207.667L122.06 206.921C132.149 197.215 126.717 183.177 122.453 177.119L122.116 176.637L122.184 176.61L147.647 169.95L147.727 170.387Z" fill="#C45854"></path><path d="M122.45 177.122C126.714 183.18 132.146 197.219 122.057 206.925L121.304 207.671L31.7985 173.904C30.8819 173.567 30.3896 172.47 30.693 171.453C31.0182 170.435 32.006 169.888 32.9225 170.249L120.506 203.27C128.566 194.451 121.648 182.524 120.004 179.983L31.2411 149.225C30.3245 148.915 29.8105 147.818 30.114 146.801C30.3276 145.993 31.0151 145.456 31.7366 145.436C31.9223 145.429 32.1081 145.45 32.297 145.522L122.116 176.641L122.453 177.122H122.45Z" fill="#C45854"></path><path d="M120.004 179.986C121.648 182.524 128.566 194.454 120.506 203.273L32.9226 170.253C39.2025 158.975 31.2412 149.225 31.2412 149.225L120.004 179.986ZM118.171 185.288C92.0143 174.306 65.6254 164.466 39.0817 155.85C65.2414 166.859 91.6272 176.672 118.171 185.288ZM118.27 189.476C92.1133 178.494 65.7245 168.681 39.1808 160.062C65.3374 171.043 91.7263 180.856 118.27 189.476ZM118.369 193.663C92.2124 182.706 65.8236 172.869 39.2799 164.253C65.4365 175.235 91.8254 185.047 118.369 193.663ZM118.459 197.538C92.3022 186.557 65.9134 176.716 39.3697 168.124C65.5263 179.106 91.9152 188.919 118.459 197.538Z" fill="#FAE8DC"></path><path d="M39.0815 155.85C65.6252 164.47 92.0141 174.306 118.171 185.288C91.627 176.672 65.2382 166.859 39.0815 155.85Z" fill="#D8C2B4"></path><path d="M39.1807 160.062C65.7244 168.678 92.1132 178.491 118.27 189.476C91.7262 180.86 65.3373 171.047 39.1807 160.062Z" fill="#D8C2B4"></path><path d="M39.2798 164.25C65.8235 172.866 92.2123 182.706 118.369 193.66C91.8253 185.044 65.4364 175.231 39.2798 164.25Z" fill="#D8C2B4"></path><path d="M39.3696 168.124C65.9133 176.716 92.3022 186.553 118.459 197.538C91.9151 188.922 65.5263 179.109 39.3696 168.124Z" fill="#D8C2B4"></path><path d="M195.433 148.3C193.643 150.459 191.076 151.814 188.227 151.814H85.5981C82.7493 151.814 80.1853 150.459 78.3955 148.3H195.433Z" fill="#284B63"></path><path d="M136.917 64.9406C136.143 64.9406 135.521 65.6317 135.521 66.4913C135.521 67.3508 136.143 68.0419 136.917 68.0419C137.692 68.0419 138.314 67.3474 138.314 66.4913C138.314 65.6351 137.689 64.9406 136.917 64.9406ZM148.273 69.1627H86.5829V135.486H187.243V69.1627H148.273ZM192.163 135.575C192.163 138.542 189.996 140.949 187.32 140.949H86.5086C83.8363 140.949 81.6687 138.542 81.6687 135.575V69.0768C81.6687 66.1096 83.8363 63.7029 86.5086 63.7029H187.32C189.999 63.7029 192.163 66.1096 192.163 69.0768V135.575Z" fill="#284B63"></path><path d="M187.243 96.0632V135.486H150.576L187.243 96.0632Z" fill="#578396"></path><path d="M187.243 69.1627V96.0632L150.576 135.486H125.559L187.243 69.1627Z" fill="#719FAF"></path><path d="M187.243 69.1627L125.559 135.486H104.577L166.267 69.1627H187.243Z" fill="#578396"></path><path d="M166.267 69.1627L104.577 135.486H86.583L148.273 69.1627H166.267Z" fill="#719FAF"></path><path d="M148.273 69.1627L86.583 135.486V69.1627H148.273Z" fill="#578396"></path><path d="M136.918 68.0419C137.689 68.0419 138.314 67.3477 138.314 66.4913C138.314 65.6349 137.689 64.9407 136.918 64.9407C136.146 64.9407 135.521 65.6349 135.521 66.4913C135.521 67.3477 136.146 68.0419 136.918 68.0419Z" fill="#719FAF"></path><path d="M78.3925 148.3C76.7947 146.367 75.8162 143.782 75.8162 140.945H198.016C198.016 143.782 197.034 146.367 195.433 148.3H78.3925Z" fill="#36627A"></path></g><defs><clipPath id="clip0_115_6407"><rect width="296" height="240" fill="white"></rect></clipPath></defs></svg> 