<?xml version="1.0" encoding="UTF-8"?> <svg xmlns="http://www.w3.org/2000/svg" width="232" height="199" viewBox="0 0 232 199" fill="none"><g clip-path="url(#clip0_115_6334)"><path d="M204.464 148.111C204.121 148.333 201.062 150.456 199.757 151.533C197.072 151.688 194.391 151.914 191.716 152.197V148.71C193.486 148.413 196.333 147.768 196.679 147.678C205.797 145.314 209.671 135.722 211.182 126.584C205.688 127.689 200.364 129.497 196.327 133.899C194.343 136.064 192.761 138.674 191.716 141.515V112.041C192.98 112.432 194.265 112.745 195.561 112.998C198.666 117.089 203.213 119.802 208.015 120.665C213.657 121.677 218.952 119.767 224.005 117.176C217.867 110.717 209.566 105.39 200.894 109.256C200.506 109.429 196.855 111.194 195.562 112.004C194.274 111.763 192.993 111.477 191.716 111.166V106.445C193.053 105.675 194.396 104.919 195.747 104.178C198.708 102.538 201.704 100.975 204.726 99.4687C209.34 101.528 214.654 101.533 219.333 99.7078C224.716 97.6079 228.485 93.1404 231.739 88.2064C223.484 85.8076 213.846 85.5439 208.002 93.5068C207.753 93.846 205.573 96.9997 204.699 98.5058C201.537 100.005 198.417 101.613 195.336 103.302C194.466 103.784 193.599 104.273 192.736 104.769L194.299 101.346C194.581 100.742 194.863 100.139 195.149 99.5388C196.075 99.175 200.185 96.3539 200.572 96.0706C208.345 90.3804 208.877 79.9212 207.339 70.7887C202.551 73.9178 198.151 77.6407 195.793 83.301C193.824 88.0284 193.355 93.5237 194.667 98.5253C194.306 99.3491 193.968 100.183 193.658 101.032C193.187 102.309 192.771 103.611 192.439 104.939C192.198 105.08 191.955 105.22 191.713 105.36V64.4539C194.541 64.7242 197.404 64.5215 200.204 63.9939C204.074 66.4707 208.791 67.2646 213.195 66.3693C218.367 65.3167 222.393 61.8563 226.014 57.8904C218.837 54.4001 210.116 52.6277 203.735 58.9352C203.449 59.2185 200.804 61.9902 199.917 63.1324C197.21 63.6587 194.48 63.99 191.712 64.2538V63.6431C193.695 61.1468 195.721 58.6909 197.813 56.3012C199.886 53.8622 202.023 51.4894 204.204 49.1608C208.795 49.3687 213.397 47.5599 216.92 44.3789C220.967 40.7248 222.934 35.5725 224.322 30.1942C216.488 30.94 208.076 34.0028 205.325 42.8858C205.208 43.2665 204.228 46.762 203.912 48.3564C201.619 50.7344 199.39 53.1865 197.206 55.684C196.594 56.4052 195.985 57.129 195.38 57.858L195.744 54.3443C195.813 53.7257 195.882 53.1072 195.955 52.4913C196.65 51.8597 199.389 48.016 199.641 47.6392C204.719 40.0621 202.153 30.8348 198.18 23.4605C194.945 27.8019 192.214 32.5267 191.814 38.2273C191.479 42.9885 192.664 47.9016 195.246 51.7792C195.172 52.6147 195.121 53.4529 195.098 54.2923C195.061 55.5631 195.076 56.8366 195.176 58.1036C194.004 59.5199 192.848 60.9519 191.712 62.4034V51.058L189.677 50.6721C189.062 50.9163 188.45 51.1593 187.837 51.401C187.352 44.1839 187.498 41.3343 187.498 41.3343C187.498 41.3343 186.259 41.8086 181.923 42.7442V42.7377L182.342 42.5388L181.922 42.7247C181.849 39.9738 180.861 38.6223 180.867 35.7805C179.712 36.1534 178.748 35.5245 176.313 36.6615C176.041 34.559 175.696 33.5168 175.695 32.1511C168.973 34.073 149.82 46.4346 135.248 56.9899C137.021 55.3825 138.82 53.8076 140.642 52.2652C141.466 51.8779 142.262 51.4192 143.016 50.893C144.428 49.908 145.613 48.7138 146.634 47.3754C155.359 40.5156 164.571 34.3849 174.162 29.0623C165.741 33.409 157.293 37.7738 149.284 42.9339C149.786 41.88 150.241 40.7898 150.667 39.6853C150.316 39.671 149.962 39.6645 149.608 39.6606C155.441 35.0658 161.489 30.7971 167.725 26.8793C160.708 31.0011 153.667 35.1372 146.925 39.758C141.356 40.2206 135.917 42.4011 133.313 48.3084C133.212 48.5358 132.554 50.1406 132.045 51.4985C130.87 52.5887 129.718 53.7101 128.592 54.8615C127.4 55.5839 126.187 56.2752 124.958 56.9548C125.855 54.0428 126.803 51.1515 127.836 48.2928C128.758 45.6341 129.749 43.004 130.787 40.3961C134.489 38.955 137.601 35.9091 139.452 32.155C141.578 27.8409 141.611 23.068 141.116 18.3186C138.217 19.9312 135.372 22.022 133.259 24.6572C135.979 19.1034 138.911 13.6718 142.046 8.38174C136.701 16.858 131.337 25.3667 126.755 34.3433C125.672 29.4275 122.175 25.2862 118.396 22.1285C117.494 25.3524 116.849 28.6387 117.026 31.9302C116.658 31.8886 116.274 31.9419 115.924 32.0732C115.249 32.3252 114.675 32.8203 114.153 33.3492C111.755 35.7766 110.19 39.12 109.687 42.635L109.327 40.3324C109.171 39.1486 108.996 37.9661 108.823 36.7836C108.43 33.8651 108.087 30.9374 107.77 27.9981C107.873 27.9799 107.977 27.9604 108.08 27.9383C109.28 27.681 110.324 26.9845 111.39 26.366C112.567 25.6838 113.663 24.7573 114.661 23.7905C118.044 21.9271 120.789 19.2256 122.465 16.2732C123.969 13.6276 124.654 10.7935 124.661 8.04518C124.666 6.07653 124.671 2.39131 121.907 1.69871C120.284 1.29329 118.357 2.34064 117.311 3.5816C116.266 4.82387 115.773 6.26495 114.84 7.55529C114.712 5.27737 113.876 0.942438 110.475 0.524018C105.248 -0.119206 105.403 5.75037 105.199 8.15823C104.122 5.9206 102.269 0.516221 97.6475 3.27623C94.6481 5.06816 95.392 9.42259 96.0713 11.5823C94.7582 10.774 93.7966 9.6448 92.3962 8.9275C90.9946 8.21021 88.8467 8.03739 87.4869 9.08344C85.1728 10.865 86.4656 14.2721 87.1604 16.09C88.1291 18.6291 89.7544 20.9668 92.0697 22.7938C93.2082 23.6918 94.5202 24.4571 95.9553 25.0627C92.3555 30.2007 89.9996 36.5302 92.6904 42.865C92.8423 43.2211 94.4986 46.8374 95.0129 47.5742C94.7869 47.3871 94.5596 47.1986 94.3324 47.0128C92.6605 45.6432 90.9563 44.3256 89.227 43.0469C89.1505 42.9274 89.0727 42.8078 88.9962 42.687C88.9746 41.2927 88.6924 38.1805 88.6517 37.8401C87.7117 29.8849 81.1258 25.7826 74.6665 23.732C74.9488 27.7369 75.5982 31.682 77.4806 35.0956C72.9707 32.2629 68.3807 29.5665 63.8003 26.8754C69.0158 30.1513 74.0997 33.6741 79.0365 37.4268C80.6857 39.4969 82.7797 41.1601 85.1046 42.2192C87.1126 43.8643 89.093 45.5484 91.0448 47.2714C91.6715 48.3279 92.2874 49.3908 92.8913 50.4641C94.1829 52.6862 95.4171 54.9446 96.6142 57.2277C93.262 54.7965 89.6061 53.3437 85.8676 50.7474C84.6669 49.9145 82.5585 48.4188 81.3506 47.5937C69.945 39.797 60.5713 33.5753 55.8522 32.2252C56.0148 34.2042 55.0581 34.7305 55.2124 36.6563C52.7775 35.5193 51.9092 36.1482 50.7528 35.7753C50.7587 38.6171 49.6764 39.9699 49.6035 42.7208L49.1849 42.535C45.285 40.6209 44.4885 41.5201 44.4885 41.5201C44.4885 41.5201 43.2029 44.0839 43.7015 51.5791C42.795 51.223 41.8873 50.8644 40.9784 50.5018L39.4249 51.0541V61.6471C38.4813 60.4529 37.5234 59.2718 36.5547 58.101C36.6539 56.834 36.6695 55.5605 36.6324 54.2884C36.6097 53.449 36.5583 52.6108 36.4841 51.7753C39.0661 47.8977 40.2513 42.9859 39.9164 38.2234C39.5146 32.5215 36.7855 27.798 33.5505 23.4566C29.5788 30.8309 27.0112 40.0582 32.0891 47.6353C32.3414 48.0121 35.0801 51.8558 35.7749 52.4874C35.8479 53.1046 35.9184 53.7218 35.9866 54.3404L36.3502 57.8541C35.745 57.1251 35.1351 56.4 34.5228 55.6788C32.339 53.1813 30.1098 50.7292 27.8172 48.3512C27.5003 46.7568 26.5208 43.2613 26.4036 42.8806C23.653 33.9976 15.2408 30.9348 7.40868 30.189C8.79596 35.5686 10.7633 40.7196 14.8103 44.3737C18.3335 47.5547 22.9354 49.3635 27.5266 49.1556C29.7056 51.4842 31.8439 53.857 33.9165 56.296C35.8 58.4479 37.6298 60.6544 39.4237 62.8959V64.1914C36.8596 63.9367 34.3255 63.6158 31.8116 63.1272C30.9254 61.985 28.28 59.212 27.9942 58.93C21.6127 52.6225 12.892 54.3949 5.71525 57.8852C9.33652 61.8511 13.362 65.3116 18.5356 66.3641C22.9378 67.2594 27.6558 66.4655 31.5258 63.9887C34.1317 64.4786 36.7915 64.6891 39.4249 64.4981V105.013C39.3807 104.987 39.3364 104.961 39.291 104.935C38.9597 103.607 38.5435 102.307 38.0735 101.028C37.7638 100.179 37.4253 99.3452 37.0629 98.5214C38.3737 93.5198 37.9073 88.0245 35.9388 83.2971C33.5804 77.6368 29.1794 73.9139 24.3921 70.7848C22.8553 79.9173 23.3863 90.3765 31.1598 96.0667C31.5461 96.35 35.6577 99.1698 36.5822 99.5349C36.868 100.135 37.1502 100.738 37.4325 101.342L38.9956 104.765C38.1321 104.27 37.2651 103.78 36.3956 103.298C33.3149 101.609 30.1947 100.003 27.0339 98.5019C26.1585 96.9958 23.9795 93.8421 23.7307 93.5029C17.8874 85.54 8.24942 85.8037 -0.00488281 88.2025C3.24924 93.1365 7.01881 97.604 12.4017 99.7039C17.0814 101.53 22.3949 101.524 27.0088 99.4648C30.0309 100.971 33.0267 102.534 35.9878 104.174C37.1395 104.805 38.2852 105.447 39.4261 106.101V111.304C38.345 111.559 37.2615 111.795 36.172 112C34.878 111.191 31.2268 109.425 30.8393 109.252C22.1665 105.385 13.8655 110.713 7.72919 117.172C12.782 119.762 18.0752 121.672 23.7188 120.661C28.5216 119.8 33.0673 117.085 36.1732 112.995C37.2663 112.78 38.3534 112.524 39.4261 112.214V140.053C38.412 137.776 37.0462 135.683 35.4066 133.895C31.3703 129.494 26.046 127.685 20.5519 126.58C22.0624 135.718 25.9372 145.31 35.055 147.674C35.3647 147.753 37.6753 148.28 39.4261 148.602V152.131C36.9469 151.876 34.4642 151.672 31.9779 151.528C30.6731 150.451 27.6127 148.329 27.2707 148.105C19.2257 142.878 10.2873 146.8 3.33176 152.192C7.97316 155.573 12.9446 158.318 18.6636 158.233C23.6362 158.158 28.6089 156.127 32.2649 152.439C34.6555 152.625 37.0426 152.843 39.4261 153.103V160.164C39.2216 160.153 39.0757 160.145 39.0123 160.142C29.6434 159.828 23.5908 167.98 19.9289 176.37C25.4971 176.867 31.0713 176.639 36.0285 173.539C37.2376 172.784 38.3773 171.893 39.4261 170.89V172.766L105.416 194.876C105.416 194.876 117.102 203.061 125.724 194.876L191.711 172.766V170.301C192.918 171.547 194.261 172.639 195.701 173.539C200.658 176.639 206.231 176.867 211.799 176.37C208.138 167.98 202.086 159.828 192.717 160.142C192.603 160.146 192.228 160.168 191.711 160.203V153.169C194.292 152.88 196.877 152.639 199.465 152.439C203.121 156.126 208.094 158.158 213.067 158.233C218.784 158.319 223.757 155.573 228.398 152.192C221.444 146.8 212.505 142.878 204.461 148.105L204.464 148.111ZM49.6094 42.7455C49.4695 42.6766 49.3308 42.609 49.1933 42.5414L49.6094 42.739C49.6094 42.739 49.6094 42.7442 49.6094 42.7455ZM126.725 40.7898C126.913 39.9712 127.027 39.1681 127.077 38.3806C128.028 36.0832 129.012 33.8014 130.031 31.5391C129.83 32.6423 129.755 33.8053 129.824 35.0307C129.843 35.3724 130.103 38.4872 130.324 39.862C129.21 42.5505 128.17 45.2742 127.18 48.0186C126.907 48.8048 126.639 49.5935 126.376 50.3836C125.99 48.8918 125.602 47.4118 125.242 45.9278C125.606 45.1845 126.638 41.1783 126.727 40.7911L126.725 40.7898ZM95.7484 47.1454C98.5122 44.3607 100.265 40.4532 100.717 36.3977C101.123 32.758 100.348 29.3417 99.0731 26.0762C99.6435 26.2088 100.225 26.3179 100.814 26.4024C101.707 26.9975 102.67 27.3978 103.686 27.7044C104.732 28.0215 105.825 28.1657 106.911 28.1008C106.976 28.0969 107.039 28.0917 107.104 28.0865C107.13 31.0453 107.275 34.0054 107.518 36.9552C107.622 38.1571 107.735 39.3604 107.862 40.5611L108.302 44.1553C108.468 45.3508 108.667 46.5411 108.847 47.734L109.473 51.2971L110.21 54.8342L110.707 56.9769C108.395 53.5568 104.809 51.1437 100.934 50.5421C100.227 50.433 99.4952 50.381 98.8088 50.5941C98.7346 50.6175 98.6593 50.6448 98.5863 50.6746C97.62 49.7988 96.6394 48.9425 95.6479 48.1057C95.6862 47.786 95.7197 47.465 95.7496 47.1454H95.7484ZM112.267 62.9544C112.494 63.734 112.726 64.5124 112.96 65.2882C113.361 66.5889 113.783 67.8819 114.225 69.1657C112.141 65.7794 109.79 62.5853 107.239 59.5784C107.248 59.5836 107.258 59.5875 107.268 59.5914C109.069 60.427 110.865 61.499 112.267 62.9544ZM94.7008 52.2223C94.3049 51.4998 93.9055 50.7812 93.5024 50.0639C93.2597 49.6455 93.0157 49.2284 92.7693 48.8113C93.4582 49.4311 94.1423 50.0561 94.8227 50.6863C94.7821 51.197 94.7414 51.709 94.7008 52.2223ZM114.143 71.532C113.508 70.7276 112.807 69.9571 112.085 69.1683C110.998 67.9806 105.273 63.5404 97.7671 58.0698C96.8235 56.1791 95.8405 54.3118 94.8311 52.4614C94.9579 51.9819 95.0715 51.4985 95.1743 51.0125C95.8441 51.6349 96.5102 52.2613 97.1727 52.8928C97.2804 53.9752 98.1821 54.9745 99.0802 55.6177C99.8062 56.1388 100.569 56.5832 101.353 56.986C105.942 61.603 110.342 66.4421 114.533 71.4865C114.404 71.4995 114.273 71.5138 114.144 71.5307L114.143 71.532ZM114.23 64.8684C113.956 63.708 113.675 62.5515 113.382 61.3976L112.586 57.9151L111.829 54.4235L111.25 51.4907C111.506 49.101 112.527 46.7828 113.72 44.7128C115.18 42.1776 116.931 39.8074 118.064 37.0929C118.982 39.6567 120.447 41.9983 122.323 43.8435C118.977 51.7909 116.416 60.1918 115.252 68.7954C114.902 67.4881 114.56 66.1783 114.23 64.8671V64.8684ZM123.238 60.8558C120.667 64.0121 118.317 67.366 116.263 70.9277C118.469 62.2826 121.146 53.7803 124.274 45.4769C124.338 45.5211 124.403 45.5665 124.467 45.6107C124.942 47.3416 125.535 49.0348 126.286 50.6448C125.213 53.8778 124.215 57.1394 123.343 60.4412L123.238 60.8558ZM124.1 59.8149C124.374 58.891 124.653 57.9697 124.935 57.0497C125.761 56.795 126.575 56.4909 127.371 56.144C126.249 57.3369 125.157 58.5597 124.1 59.8149ZM129.579 57.6007C130.874 56.2869 132.185 54.9914 133.51 53.714C133.785 53.7283 134.061 53.7322 134.336 53.7296C132.742 54.9758 131.146 56.2661 129.578 57.5994L129.579 57.6007Z" fill="#6C8463"></path><path d="M121.913 1.70274C120.29 1.29732 118.363 2.34466 117.317 3.58563C116.272 4.8279 115.779 6.26898 114.846 7.55932C114.718 5.2814 113.882 0.946466 110.481 0.528046C105.254 -0.115178 105.409 5.7544 105.205 8.16226C104.128 5.92463 102.275 0.520249 97.6535 3.28026C94.6541 5.07219 95.398 9.42662 96.0773 11.5863C94.7641 10.778 93.8026 9.64882 92.4022 8.93153C91.0006 8.21424 88.8527 8.04142 87.4929 9.08747C85.1788 10.869 86.4716 14.2761 87.1664 16.0941C88.1351 18.6332 89.7604 20.9709 92.0757 22.7979C93.2142 23.6958 94.5262 24.4612 95.9613 25.0667C96.9455 25.4812 97.9872 25.8204 99.0707 26.0738C99.6411 26.2063 100.222 26.3155 100.812 26.3999C100.646 26.2895 100.483 26.1712 100.322 26.0465C100.417 25.8386 100.666 25.7918 100.879 25.771C101.507 25.7086 102.135 25.5969 102.757 25.5956C103.006 25.5956 103.254 25.6125 103.502 25.6579C103.716 25.6982 103.931 25.758 104.144 25.8477C103.735 25.4968 102.411 23.8894 103.6 23.6269C103.803 23.5827 104.012 23.6581 104.202 23.7452C104.792 24.0141 105.333 24.4118 105.782 24.9082C105.669 24.5443 105.675 24.1532 105.771 23.788C105.805 23.6607 105.85 23.5373 105.904 23.419C106.152 22.8784 106.605 22.4444 107.152 22.3236C107.665 22.2105 108.202 22.3885 108.611 22.7316C108.815 22.9031 108.992 23.1188 109.121 23.3631C109.179 23.4723 109.216 23.5853 109.25 23.6997C109.289 23.8296 109.323 23.9622 109.375 24.0908C109.383 24.1116 109.393 24.1337 109.402 24.1558C110.029 23.4021 110.689 22.6198 111.563 22.256C111.862 22.1313 112.226 22.0676 112.485 22.2729C112.784 22.5094 112.811 22.8732 112.716 23.2579C112.646 23.5412 112.511 23.8335 112.371 24.0921C112.253 24.3078 112.134 24.5001 112.047 24.6405C112.806 23.9024 113.772 23.4203 114.783 23.2774C114.841 23.2696 114.911 23.2657 114.951 23.3125C115.021 23.393 114.943 23.5191 114.868 23.5931C114.801 23.6594 114.733 23.7257 114.664 23.7919C118.048 21.9285 120.792 19.227 122.469 16.2747C123.972 13.629 124.658 10.7949 124.665 8.04661C124.67 6.07796 124.674 2.39274 121.911 1.70014L121.913 1.70274Z" fill="#CD9C4C"></path><path d="M189.68 50.6735C189.066 50.9178 188.453 51.1608 187.841 51.4025C166.843 59.6813 146.714 66.2058 126.151 75.259C124.335 75.8021 122.492 76.2037 120.635 76.4635C117.181 76.9495 113.681 76.9469 110.224 76.4557C108.932 76.2725 107.648 76.0217 106.373 75.7021L104.61 75.259C84.3369 66.3318 64.396 59.7124 43.7088 51.5844C42.8023 51.2284 41.8945 50.8697 40.9856 50.5072L39.4321 51.0595V172.773L105.422 194.883C105.422 194.883 117.108 203.068 125.73 194.883L191.717 172.773V51.0595L189.682 50.6735H189.68Z" fill="#C45854"></path><path d="M181.927 42.7456V42.7391L182.346 42.5402L181.926 42.7261C181.853 39.9751 181.806 37.1839 181.812 34.3421C180.657 34.715 178.752 35.5246 176.317 36.6629C176.471 34.7371 176.629 32.7853 176.791 30.8063C170.068 32.7282 149.822 46.436 135.251 56.9913C137.025 55.3839 138.824 53.809 140.646 52.2666C142.616 50.5981 144.614 48.9686 146.638 47.3781C155.363 40.5183 164.574 34.3876 174.166 29.065C165.745 33.4117 157.297 37.7765 149.288 42.9366C147.059 44.3738 144.863 45.872 142.71 47.4495C140.036 49.4104 137.187 51.4999 134.334 53.7284C132.74 54.9746 131.143 56.2649 129.575 57.5982C130.871 56.2844 132.181 54.9889 133.506 53.7115C138.658 48.7464 144.035 44.0541 149.611 39.662C155.443 35.0672 161.491 30.7985 167.728 26.8807C160.71 31.0025 153.67 35.1386 146.927 39.7594C143.598 42.0413 140.341 44.4413 137.193 47.0168C135.44 48.4514 133.72 49.9458 132.046 51.4986C130.872 52.5888 129.719 53.7102 128.594 54.8615C128.181 55.2839 127.771 55.7114 127.367 56.1415C126.245 57.3344 125.153 58.5572 124.096 59.8124C123.805 60.1568 123.518 60.5037 123.233 60.8533C120.662 64.0096 118.312 67.3635 116.259 70.9252C118.464 62.2801 121.142 53.7778 124.269 45.4744C124.299 45.3938 124.33 45.312 124.361 45.2301C124.507 44.8429 124.654 44.4569 124.802 44.071C125.534 42.1621 126.291 40.2649 127.071 38.3794C128.022 36.082 129.006 33.8002 130.025 31.5379C131.068 29.2249 132.145 26.9314 133.259 24.6573C135.98 19.1035 138.911 13.6719 142.047 8.38184C136.701 16.8581 131.337 25.3668 126.755 34.3434C125.789 36.2354 124.857 38.1494 123.969 40.0882C123.815 40.4235 123.663 40.76 123.511 41.0966C123.458 41.2148 123.404 41.3331 123.352 41.4513C122.999 42.244 122.653 43.0405 122.316 43.841C118.97 51.7884 116.409 60.1893 115.245 68.7929C115.167 69.3672 115.096 69.9416 115.031 70.5172C114.764 70.0624 114.492 69.6102 114.217 69.1619C112.133 65.7756 109.782 62.5815 107.231 59.5746C105.494 57.528 103.667 55.5671 101.768 53.6882C101.717 53.6388 101.667 53.5881 101.617 53.54C100.622 52.5602 99.609 51.6051 98.5781 50.6695C97.6118 49.7937 96.6311 48.9374 95.6397 48.1006C95.4388 47.9316 95.2379 47.764 95.037 47.5964C95.0286 47.5899 95.0214 47.5834 95.013 47.5756C94.787 47.3885 94.5598 47.2 94.3326 47.0142C92.6606 45.6446 90.9564 44.327 89.2271 43.0483C88.7559 42.7001 88.2835 42.3557 87.8088 42.014C84.441 39.5853 80.9836 37.3009 77.4795 35.0996C72.9697 32.2669 68.3797 29.5705 63.7993 26.8794C69.0147 30.1553 74.0986 33.6781 79.0354 37.4308C81.084 38.9889 83.1064 40.5859 85.1036 42.2232C87.1115 43.8683 89.092 45.5523 91.0438 47.2754C91.619 47.7835 92.1918 48.2942 92.7611 48.8074C93.45 49.4273 94.134 50.0523 94.8145 50.6825C94.9317 50.7917 95.0489 50.9008 95.1673 51.01C95.837 51.6324 96.5032 52.2588 97.1657 52.8903C98.5757 54.2339 99.969 55.5983 101.345 56.9835C105.935 61.6004 110.335 66.4396 114.526 71.484C114.397 71.497 114.266 71.5113 114.137 71.5282C113.502 70.7238 112.801 69.9533 112.079 69.1645C110.992 67.9768 105.267 63.5366 97.7613 58.066C97.3834 57.7905 97.0019 57.5124 96.6144 57.2317C93.2622 54.8005 89.5991 52.1938 85.8606 49.5975C84.6599 48.7633 83.452 47.9316 82.2441 47.1052C70.8385 39.3085 59.4581 32.1538 54.7401 30.8037C54.9016 32.7827 55.0606 34.7345 55.2137 36.6603C52.7788 35.5233 50.8737 34.7137 49.7184 34.3395C49.7244 37.1814 49.6766 39.9725 49.6048 42.7235L49.1862 42.5376C45.2863 40.6236 42.855 39.4346 42.855 39.4346C42.855 39.4346 43.2042 44.0866 43.7029 51.5818C64.3901 59.7098 84.3298 66.3304 104.604 75.2563L106.367 75.6994C107.642 76.019 108.928 76.2698 110.218 76.4531C111.049 75.1757 112.234 74.5104 113.635 74.1998C114.968 73.9049 116.371 73.8763 117.675 74.2947C118.835 74.6663 119.911 75.4109 120.629 76.4609C122.486 76.1997 124.329 75.7981 126.145 75.2563C146.708 66.2031 166.837 59.6786 187.835 51.3998C188.327 44.0112 188.671 39.4346 188.671 39.4346C188.671 39.4346 186.065 40.7093 181.921 42.743L181.927 42.7456ZM49.6096 42.7456C49.4697 42.6767 49.3309 42.6091 49.1934 42.5415L49.6096 42.7391C49.6096 42.7391 49.6096 42.7443 49.6096 42.7456Z" fill="#E3CFBC"></path><path d="M95.1685 45.2262C95.2952 42.5702 95.2964 39.918 95.3275 37.2256C95.8573 39.8595 95.9889 42.5715 95.8788 45.2626C95.8489 45.8915 95.8047 46.5192 95.7461 47.1442C98.5099 44.3595 100.263 40.4521 100.715 36.3965C101.121 32.7568 100.346 29.3406 99.0708 26.0751C97.9873 25.8217 96.9456 25.4838 95.9614 25.068C92.3616 30.206 90.0056 36.5356 92.6965 42.8703C92.8484 43.2264 94.5047 46.8427 95.019 47.5795C95.0273 47.586 95.0345 47.5938 95.0429 47.6003C95.0931 46.8089 95.1362 46.0176 95.1673 45.2262H95.1685Z" fill="#7F9868"></path><path d="M94.8311 52.4615C94.9579 51.9821 95.0715 51.4987 95.1743 51.0127C95.0571 50.9035 94.9399 50.7944 94.8215 50.6852C94.7809 51.1959 94.7402 51.7079 94.6996 52.2211C94.3037 51.4987 93.9043 50.7801 93.5012 50.0628C93.2585 49.6444 93.0145 49.2272 92.7681 48.8101C92.1989 48.2955 91.626 47.7849 91.0508 47.2781C91.6774 48.3345 92.2934 49.3975 92.8973 50.4708C94.1889 52.6928 95.4231 54.9513 96.6202 57.2344C97.0077 57.5151 97.3892 57.7932 97.7671 58.0686C96.8235 56.1779 95.8405 54.3106 94.8311 52.4602V52.4615Z" fill="#5F404A"></path><path d="M84.868 36.6421L82.9904 34.0809L81.0458 31.5795C80.3869 30.7569 79.7207 29.9396 79.051 29.1274C79.6621 29.9929 80.2781 30.8544 80.8999 31.7081L82.7154 34.3148L84.5092 36.9358L86.2589 39.5905C86.7827 40.3962 87.3017 41.2057 87.8172 42.0166C88.2908 42.3583 88.7644 42.704 89.2356 43.051C89.159 42.9314 89.0813 42.8119 89.0047 42.691C88.2537 41.528 87.4871 40.3767 86.7026 39.2384L84.8692 36.6395L84.868 36.6421Z" fill="#5F404A"></path><path d="M95.8799 45.2626C95.9888 42.5728 95.8584 39.8596 95.3286 37.2256C95.2975 39.9167 95.2963 42.5702 95.1695 45.2262C95.1385 46.0189 95.0954 46.8103 95.0452 47.6003C95.2461 47.768 95.447 47.9356 95.6479 48.1045C95.6862 47.7848 95.7197 47.4639 95.7496 47.1442C95.8082 46.5179 95.8512 45.8903 95.8823 45.2626H95.8799Z" fill="#5F404A"></path><path d="M126.725 40.7899C126.913 39.9713 127.027 39.1682 127.077 38.3807C126.297 40.2662 125.54 42.1647 124.808 44.0723C124.947 44.6921 125.093 45.3094 125.241 45.9253C125.605 45.182 126.637 41.1758 126.725 40.7886V40.7899Z" fill="#7F9868"></path><path d="M118.349 36.3679C118.26 36.6122 118.165 36.8539 118.065 37.093C118.982 39.6568 120.447 41.9984 122.323 43.8436C122.661 43.0418 123.006 42.2453 123.359 41.4539C123.412 41.3357 123.465 41.2174 123.518 41.0992C123.257 39.341 123.123 37.5621 123.166 35.7819C123.438 37.2268 123.7 38.6627 123.976 40.0908C124.865 38.152 125.796 36.2393 126.763 34.346C125.679 29.4302 122.182 25.2889 118.403 22.1312C117.501 25.3551 116.857 28.6414 117.034 31.9329C117.375 31.9719 117.702 32.094 117.979 32.3162C119.061 33.1882 118.849 35.0074 118.35 36.3679H118.349Z" fill="#7F9868"></path><path d="M124.366 45.2328C124.335 45.3147 124.304 45.3952 124.274 45.4771C124.338 45.5213 124.403 45.5667 124.467 45.6109C124.433 45.4849 124.399 45.3588 124.366 45.2328Z" fill="#7F9868"></path><path d="M143.021 50.8958C144.432 49.9108 145.617 48.7166 146.639 47.3782C144.614 48.9687 142.617 50.5995 140.647 52.2667C141.471 51.8794 142.267 51.4207 143.021 50.8945V50.8958Z" fill="#7F9868"></path><path d="M146.931 39.7621C141.363 40.2247 135.923 42.4052 133.319 48.3124C133.218 48.5398 132.56 50.1446 132.051 51.5025C133.725 49.9484 135.445 48.4553 137.198 47.0208C140.346 44.4453 143.602 42.0452 146.932 39.7634L146.931 39.7621Z" fill="#7F9868"></path><path d="M134.336 53.7298C137.19 51.5013 140.039 49.4105 142.713 47.4509C144.865 45.8734 147.061 44.3738 149.29 42.938C149.793 41.8841 150.247 40.7939 150.673 39.6894C150.322 39.6751 149.968 39.6686 149.614 39.6647C144.039 44.0581 138.662 48.7491 133.51 53.7142C133.785 53.7285 134.061 53.7324 134.336 53.7298Z" fill="#7F9868"></path><path d="M133.743 33.2909L135.053 30.3502L136.385 27.42C136.848 26.4545 137.303 25.4825 137.754 24.5079C137.236 25.4422 136.723 26.3804 136.217 27.3225L134.741 30.1761L133.339 33.0751L131.986 36.0028C131.413 37.2801 130.86 38.5666 130.323 39.8634C129.209 42.552 128.169 45.2756 127.179 48.02C126.906 48.8062 126.638 49.5949 126.375 50.385C125.989 48.8932 125.601 47.4132 125.241 45.9292C125.092 45.312 124.947 44.6948 124.808 44.0762C124.66 44.4622 124.513 44.8481 124.367 45.2353C124.401 45.3614 124.434 45.4874 124.469 45.6135C124.943 47.3443 125.537 49.0375 126.288 50.6475C125.214 53.8805 124.216 57.1421 123.345 60.444L123.239 60.8585C123.524 60.5089 123.811 60.162 124.102 59.8176C124.375 58.8937 124.654 57.9724 124.936 57.0524C125.763 56.7977 126.576 56.4937 127.372 56.1467C127.778 55.7166 128.187 55.2891 128.599 54.8668C127.407 55.5893 126.194 56.2806 124.965 56.9602C125.862 54.0481 126.81 51.1569 127.844 48.2981C128.766 45.6394 129.756 43.0094 130.794 40.4014C131.345 39.0149 131.909 37.6336 132.484 36.2575L133.744 33.2922L133.743 33.2909Z" fill="#5F404A"></path><path d="M123.517 41.0992C123.669 40.7626 123.821 40.4261 123.975 40.0908C123.699 38.6627 123.438 37.2268 123.165 35.7819C123.122 37.5621 123.256 39.341 123.517 41.0992Z" fill="#5F404A"></path><path d="M196.388 44.9729C196.769 43.4551 197.23 41.9582 197.819 40.5197L197.022 45.1288C196.77 46.6608 196.522 48.189 196.318 49.7262C196.186 50.6462 196.069 51.5688 195.96 52.4927C196.655 51.8612 199.394 48.0175 199.646 47.6406C204.724 40.0636 202.157 30.8362 198.185 23.4619C194.95 27.8033 192.219 32.5281 191.819 38.2288C191.484 42.9899 192.669 47.9031 195.251 51.7806C195.316 51.0491 195.398 50.3188 195.495 49.5911C195.717 48.0343 196.003 46.4893 196.39 44.9716L196.388 44.9729Z" fill="#7F9868"></path><path d="M209.44 60.6896C206.597 62.2944 203.496 63.3378 200.34 63.9694C200.297 63.9772 200.251 63.9863 200.208 63.9941C204.078 66.4708 208.795 67.2648 213.198 66.3694C218.371 65.3169 222.396 61.8565 226.018 57.8906C218.841 54.4003 210.12 52.6278 203.739 58.9353C203.453 59.2186 200.807 61.9903 199.921 63.1325C200.011 63.1143 200.102 63.0974 200.193 63.0793C203.304 62.4841 206.36 61.6291 209.44 60.6896Z" fill="#7F9868"></path><path d="M197.816 56.3027C199.89 53.8636 202.027 51.4908 204.207 49.1622C205.365 47.9239 206.535 46.6998 207.714 45.4835L210.278 42.8756L212.885 40.317L215.514 37.7804C216.406 36.9553 217.293 36.1224 218.176 35.2816C217.237 36.0457 216.302 36.8163 215.374 37.5946L212.619 39.9791L209.929 42.4467L207.28 44.9702C206.142 46.08 205.022 47.2092 203.917 48.3553C201.624 50.7333 199.395 53.1853 197.211 55.6828C196.599 56.404 195.99 57.1278 195.385 57.8568L195.749 54.3431C195.818 53.7246 195.887 53.1061 195.96 52.4901C196.069 51.5662 196.186 50.6436 196.318 49.7236C196.522 48.1864 196.77 46.6582 197.022 45.1262L197.819 40.5171C197.23 41.9555 196.769 43.4525 196.388 44.9702C196.003 46.488 195.716 48.033 195.494 49.5898C195.398 50.3174 195.314 51.0477 195.25 51.7793C195.176 52.6149 195.124 53.453 195.102 54.2924C195.064 55.5633 195.08 56.8367 195.179 58.1037C194.007 59.5201 192.852 60.9521 191.716 62.4036V63.6432C193.699 61.147 195.725 58.691 197.816 56.3014V56.3027Z" fill="#5F404A"></path><path d="M200.207 63.9941C200.25 63.9863 200.295 63.9772 200.338 63.9694C203.495 63.3378 206.596 62.2944 209.438 60.6896C206.359 61.6304 203.303 62.4854 200.191 63.0792C200.1 63.0974 200.01 63.1143 199.92 63.1325C197.212 63.6588 194.482 63.9902 191.715 64.2539V64.4541C194.542 64.7243 197.405 64.5216 200.206 63.9941H200.207Z" fill="#5F404A"></path><path d="M198.16 92.0334C199.066 90.6365 200.048 89.2955 201.141 88.0623L198.753 92.4479C197.972 93.9098 197.197 95.373 196.464 96.8596C196.014 97.7458 195.58 98.6411 195.153 99.5403C196.079 99.1765 200.189 96.3554 200.575 96.0721C208.349 90.3818 208.881 79.9226 207.343 70.7902C202.555 73.9192 198.155 77.6421 195.796 83.3025C193.828 88.0298 193.359 93.5252 194.671 98.5267C194.988 97.8055 195.322 97.0935 195.668 96.3892C196.427 94.8896 197.247 93.4264 198.16 92.0308V92.0334Z" fill="#7F9868"></path><path d="M200.956 112.844C202.666 113.049 204.383 113.197 206.117 113.348C204.393 113.604 202.647 113.669 200.905 113.605C199.163 113.548 197.425 113.339 195.704 113.027C195.655 113.018 195.609 113.009 195.561 113C198.667 117.091 203.214 119.804 208.015 120.667C213.658 121.679 218.952 119.769 224.005 117.178C217.867 110.718 209.566 105.392 200.895 109.258C200.506 109.43 196.855 111.195 195.562 112.006C195.66 112.024 195.758 112.042 195.857 112.06C197.546 112.387 199.247 112.632 200.956 112.845V112.844Z" fill="#7F9868"></path><path d="M195.747 104.179C198.708 102.539 201.704 100.976 204.726 99.4701C206.328 98.6723 207.936 97.89 209.551 97.122L213.061 95.4925L216.598 93.9306L220.149 92.4012C221.343 91.9191 222.532 91.4253 223.722 90.9224C222.501 91.3239 221.284 91.7333 220.069 92.1543L216.442 93.4784L212.849 94.9143L209.282 96.4229C207.745 97.0909 206.218 97.7861 204.7 98.5059C201.538 100.005 198.418 101.613 195.337 103.302C194.468 103.784 193.601 104.273 192.737 104.769L194.3 101.347C194.582 100.742 194.865 100.139 195.151 99.539C195.577 98.6398 196.012 97.7445 196.461 96.8583C197.194 95.3717 197.971 93.9085 198.75 92.4466L201.139 88.061C200.045 89.2929 199.064 90.6339 198.157 92.0321C197.246 93.4264 196.425 94.8909 195.666 96.3905C195.318 97.0948 194.984 97.8068 194.669 98.528C194.307 99.3519 193.969 100.186 193.659 101.035C193.188 102.312 192.772 103.614 192.441 104.942C192.199 105.082 191.956 105.223 191.715 105.363V106.449C193.052 105.679 194.395 104.923 195.746 104.182L195.747 104.179Z" fill="#5F404A"></path><path d="M195.561 113C195.609 113.009 195.656 113.018 195.704 113.027C197.425 113.339 199.162 113.548 200.905 113.605C202.647 113.669 204.393 113.604 206.117 113.348C204.383 113.197 202.665 113.049 200.956 112.844C199.247 112.632 197.546 112.385 195.857 112.059C195.759 112.041 195.661 112.023 195.562 112.005C194.274 111.763 192.993 111.477 191.716 111.166V112.041C192.98 112.432 194.266 112.745 195.561 112.999V113Z" fill="#5F404A"></path><path d="M191.983 146.107C193.177 144.991 194.419 143.933 195.722 142.975C197.023 142.012 198.375 141.131 199.797 140.393L196.143 143.59C194.939 144.662 193.742 145.735 192.575 146.848C192.286 147.117 192 147.387 191.716 147.66V148.71C193.486 148.414 196.333 147.768 196.679 147.678C205.797 145.314 209.672 135.722 211.182 126.584C205.688 127.689 200.364 129.498 196.327 133.899C194.343 136.064 192.761 138.674 191.716 141.515V146.362C191.804 146.276 191.893 146.19 191.983 146.106V146.107Z" fill="#7F9868"></path><path d="M196.291 165.97C194.73 165.586 193.204 165.042 191.716 164.395V170.307C192.923 171.553 194.266 172.644 195.705 173.545C200.663 176.644 206.236 176.873 211.804 176.375C208.143 167.986 202.091 159.833 192.722 160.147C192.608 160.151 192.232 160.173 191.716 160.209V163.581C193.22 164.407 194.749 165.184 196.291 165.97Z" fill="#7F9868"></path><path d="M208.559 151.897L212.375 151.784L216.195 151.705C217.469 151.709 218.743 151.7 220.017 151.682C218.745 151.593 217.473 151.513 216.199 151.444L212.374 151.301L208.547 151.276L204.719 151.328C203.064 151.369 201.41 151.437 199.756 151.532C197.071 151.687 194.39 151.913 191.715 152.196V153.173C194.295 152.884 196.881 152.643 199.469 152.443C201.227 152.305 202.986 152.187 204.745 152.083L208.558 151.896L208.559 151.897Z" fill="#5F404A"></path><path d="M196.144 143.591L199.798 140.395C198.376 141.133 197.023 142.014 195.723 142.977C194.419 143.934 193.178 144.992 191.984 146.108C191.894 146.193 191.806 146.279 191.717 146.364V147.661C192.002 147.388 192.288 147.118 192.576 146.849C193.744 145.737 194.941 144.663 196.144 143.591Z" fill="#5F404A"></path><path d="M191.716 163.581V164.395C193.204 165.043 194.73 165.586 196.291 165.97C194.749 165.184 193.22 164.407 191.716 163.581Z" fill="#5F404A"></path><path d="M34.7189 45.1287L33.9224 40.5196C34.5108 41.9581 34.9725 43.455 35.3528 44.9728C35.7379 46.4905 36.0237 48.0356 36.2461 49.5923C36.343 50.32 36.4255 51.0503 36.4913 51.7819C39.0733 47.9043 40.2585 42.9924 39.9236 38.23C39.5218 32.528 36.7927 27.8046 33.5577 23.4631C29.586 30.8375 27.0183 40.0648 32.0963 47.6418C32.3486 48.0187 35.0873 51.8624 35.7821 52.4939C35.6721 51.57 35.5561 50.6474 35.4245 49.7274C35.22 48.1902 34.9725 46.6621 34.7201 45.13L34.7189 45.1287Z" fill="#7F9868"></path><path d="M22.3016 60.6896C25.3811 61.6304 28.4367 62.4854 31.5485 63.0793C31.6394 63.0974 31.7291 63.1143 31.82 63.1325C30.9338 61.9903 28.2884 59.2173 28.0026 58.9353C21.6211 52.6278 12.9004 54.4003 5.72363 57.8906C9.34491 61.8565 13.3704 65.3169 18.544 66.3694C22.9462 67.2648 27.6641 66.4708 31.5342 63.9941C31.4899 63.9863 31.4469 63.9772 31.4026 63.9694C28.2466 63.3378 25.1455 62.2944 22.3028 60.6896H22.3016Z" fill="#7F9868"></path><path d="M36.5607 58.1063C36.66 56.8393 36.6755 55.5659 36.6384 54.2937C36.6157 53.4543 36.5643 52.6162 36.4901 51.7806C36.4256 51.049 36.3419 50.3187 36.245 49.5911C36.0225 48.0343 35.7367 46.4893 35.3516 44.9715C34.9713 43.4538 34.5097 41.9568 33.9213 40.5184L34.7178 45.1275C34.9701 46.6595 35.2177 48.1877 35.4222 49.7249C35.5537 50.6449 35.6697 51.5675 35.7798 52.4914C35.8527 53.1087 35.9233 53.7259 35.9914 54.3444L36.355 57.8581C35.7499 57.1291 35.1399 56.404 34.5276 55.6828C32.3439 53.1853 30.1146 50.7333 27.8221 48.3553C26.7158 47.2092 25.5964 46.0787 24.4591 44.9702L21.8101 42.4467L19.1193 39.9791L16.365 37.5946C15.4358 36.815 14.5018 36.0444 13.563 35.2816C14.4456 36.1211 15.3318 36.9553 16.2251 37.7804L18.8538 40.317L21.4609 42.8756L24.025 45.4835C25.203 46.6998 26.3726 47.9239 27.5314 49.1622C29.7104 51.4908 31.8487 53.8636 33.9213 56.3027C35.8049 58.4545 37.6347 60.661 39.4285 62.9025V61.6538C38.485 60.4596 37.527 59.2784 36.5583 58.1076L36.5607 58.1063Z" fill="#5F404A"></path><path d="M31.8189 63.1339C31.728 63.1157 31.6384 63.0988 31.5475 63.0806C28.4357 62.4854 25.3801 61.6304 22.3005 60.6909C25.1433 62.2957 28.2443 63.3392 31.4004 63.9707C31.4446 63.9785 31.4877 63.9876 31.5319 63.9954C34.1378 64.4853 36.7976 64.6958 39.431 64.5048V64.1981C36.867 63.9434 34.3328 63.6225 31.8189 63.1339Z" fill="#5F404A"></path><path d="M32.9873 92.4479L30.599 88.0623C31.6921 89.2942 32.674 90.6352 33.5805 92.0334C34.4918 93.4277 35.3134 94.8922 36.0716 96.3917C36.4196 97.096 36.7533 97.8081 37.069 98.5293C38.3797 93.5278 37.9133 88.0324 35.9448 83.305C33.5865 77.6447 29.1854 73.9218 24.3981 70.7927C22.8614 79.9252 23.3924 90.3844 31.1659 96.0747C31.5522 96.3579 35.6638 99.1777 36.5882 99.5429C36.1613 98.6437 35.7272 97.7483 35.2775 96.8621C34.5432 95.3756 33.7682 93.9124 32.9873 92.4505V92.4479Z" fill="#7F9868"></path><path d="M30.8335 113.607C29.0922 113.67 27.3462 113.605 25.6216 113.349C27.3557 113.199 29.0731 113.051 30.7833 112.845C32.4923 112.633 34.1929 112.387 35.8815 112.06C35.9808 112.042 36.0788 112.024 36.1769 112.006C34.8829 111.196 31.2317 109.43 30.8443 109.257C22.1714 105.39 13.8704 110.718 7.73413 117.178C12.7869 119.767 18.0801 121.678 23.7237 120.667C28.5266 119.805 33.0723 117.09 36.1781 113C36.1303 113.009 36.0824 113.018 36.0346 113.027C34.3137 113.339 32.576 113.548 30.8335 113.605V113.607Z" fill="#7F9868"></path><path d="M39.4311 105.019C39.3869 104.993 39.3426 104.967 39.2972 104.941C38.9659 103.613 38.5497 102.312 38.0797 101.033C37.77 100.185 37.4315 99.3505 37.0691 98.5267C36.7522 97.8055 36.4186 97.0934 36.0717 96.3891C35.3135 94.8896 34.4931 93.4264 33.5806 92.0308C32.6741 90.6339 31.691 89.2929 30.5992 88.0597L32.9874 92.4453C33.7684 93.9072 34.5433 95.3703 35.2776 96.8569C35.7261 97.7431 36.1602 98.6384 36.5884 99.5377C36.8742 100.138 37.1564 100.741 37.4387 101.345L39.0018 104.768C38.1383 104.273 37.2713 103.783 36.4018 103.301C33.3211 101.612 30.2009 100.005 27.0401 98.5046C25.5224 97.7847 23.9952 97.0895 22.4585 96.4216L18.891 94.9129L15.2996 93.4771L11.6724 92.1529C10.4573 91.7319 9.23987 91.3213 8.02002 90.9211C9.20877 91.4226 10.3987 91.9164 11.5923 92.3998L15.1442 93.9293L18.6805 95.4912L22.1906 97.1207C23.8051 97.8887 25.4136 98.6709 27.015 99.4688C30.0371 100.975 33.0329 102.538 35.994 104.178C37.1457 104.809 38.2914 105.451 39.4323 106.105V105.017L39.4311 105.019Z" fill="#5F404A"></path><path d="M36.1781 112.006C36.08 112.024 35.9819 112.042 35.8827 112.06C34.194 112.387 32.4922 112.632 30.7844 112.845C29.0743 113.051 27.3569 113.199 25.6228 113.349C27.3485 113.605 29.0934 113.67 30.8347 113.607C32.5771 113.55 34.316 113.34 36.0358 113.029C36.0836 113.019 36.1314 113.01 36.1793 113.001C37.2723 112.787 38.3594 112.531 39.4322 112.22V111.311C38.3511 111.565 37.2676 111.802 36.1781 112.007V112.006Z" fill="#5F404A"></path><path d="M39.1644 146.848C37.9971 145.735 36.7988 144.662 35.5945 143.59L31.9421 140.393C33.3641 141.132 34.7167 142.013 36.0167 142.975C37.203 143.847 38.3368 144.801 39.431 145.806V140.058C38.4169 137.782 37.0511 135.688 35.4115 133.9C31.3753 129.499 26.051 127.69 20.5569 126.586C22.0673 135.723 25.9422 145.316 35.0599 147.679C35.3697 147.759 37.6802 148.285 39.431 148.607V147.099C39.3425 147.015 39.254 146.931 39.1644 146.848Z" fill="#7F9868"></path><path d="M35.4486 165.97C36.7893 165.287 38.1191 164.611 39.4311 163.903V160.17C39.2266 160.158 39.0807 160.15 39.0173 160.147C29.6484 159.833 23.5958 167.986 19.9338 176.375C25.5021 176.873 31.0763 176.644 36.0334 173.545C37.2425 172.79 38.3822 171.898 39.4311 170.895V164.646C38.1311 165.183 36.8036 165.635 35.4486 165.969V165.97Z" fill="#7F9868"></path><path d="M31.9826 151.534C30.3299 151.439 28.6747 151.37 27.0195 151.33L23.1926 151.278L19.3656 151.302L15.541 151.445C14.2673 151.514 12.9937 151.595 11.7224 151.683C12.9973 151.7 14.2721 151.709 15.5446 151.706L19.3644 151.786L23.1806 151.899L26.9932 152.086C28.7524 152.19 30.5117 152.308 32.2697 152.446C34.6603 152.632 37.0474 152.85 39.4309 153.11V152.137C36.9517 151.882 34.469 151.678 31.9826 151.534Z" fill="#5F404A"></path><path d="M31.9421 140.393L35.5945 143.59C36.7988 144.662 37.9971 145.735 39.1644 146.848C39.2541 146.931 39.3425 147.015 39.431 147.099V145.806C38.3368 144.801 37.203 143.847 36.0167 142.975C34.7167 142.013 33.3641 141.132 31.9421 140.393Z" fill="#5F404A"></path><path d="M39.4309 164.647V163.904C38.119 164.611 36.7891 165.288 35.4485 165.972C36.8035 165.638 38.1321 165.185 39.4309 164.649V164.647Z" fill="#5F404A"></path><path d="M111.49 60.1113L111.025 58.3492L110.706 56.9757C108.394 53.5556 104.808 51.1425 100.933 50.5409C100.226 50.4318 99.4941 50.3798 98.8076 50.5929C98.7335 50.6163 98.6582 50.6436 98.5852 50.6734C99.6161 51.6077 100.629 52.5641 101.624 53.5439C103.793 54.143 105.855 55.2137 107.721 56.5729C109.097 57.5891 110.378 58.7703 111.49 60.1113Z" fill="#7F9868"></path><path d="M112.266 62.9546C112.158 62.5816 112.05 62.2087 111.945 61.8344L111.651 60.7234C110.304 59.4006 108.9 58.1752 107.402 57.085C105.629 55.7777 103.742 54.6758 101.774 53.6921C103.673 55.5698 105.5 57.5307 107.237 59.5786C107.246 59.5838 107.256 59.5877 107.265 59.5916C109.066 60.4271 110.863 61.4992 112.264 62.9546H112.266Z" fill="#7F9868"></path><path d="M99.0791 55.6192C99.8051 56.1403 100.568 56.5847 101.351 56.9875C99.9761 55.6023 98.5816 54.2379 97.1716 52.8943C97.2793 53.9767 98.181 54.976 99.0791 55.6192Z" fill="#7F9868"></path><path d="M107.515 36.9553C107.619 38.1573 107.733 39.3606 107.86 40.5613L108.3 44.1555C108.466 45.351 108.664 46.5413 108.845 47.7342L109.47 51.2972L110.207 54.8343L110.705 56.9771L111.024 58.3506L111.489 60.1127C110.378 58.7716 109.097 57.5904 107.72 56.5743C105.853 55.2151 103.792 54.1443 101.623 53.5453C101.673 53.5947 101.723 53.644 101.773 53.6934C103.742 54.6771 105.629 55.779 107.402 57.0863C108.9 58.1752 110.304 59.4019 111.651 60.7247L111.945 61.8357C112.05 62.2099 112.157 62.5829 112.265 62.9558C112.493 63.7355 112.725 64.5139 112.959 65.2896C113.36 66.5904 113.782 67.8833 114.224 69.1672C114.499 69.6155 114.772 70.0677 115.038 70.5225C115.103 69.9468 115.174 69.3725 115.252 68.7981C114.902 67.4909 114.56 66.181 114.23 64.8699C113.956 63.7095 113.675 62.553 113.382 61.3991L112.586 57.9166L111.829 54.425L111.25 51.4922L111.136 50.9191L110.56 47.8355C111.063 46.0072 111.658 44.2257 112.389 42.5039C113.345 40.213 114.53 38.0507 115.856 35.9469C114.18 37.7389 112.859 39.918 111.871 42.2466C111.23 43.7826 110.73 45.3952 110.418 47.0455L109.885 43.8774L109.693 42.6417L109.333 40.3391C109.177 39.1553 109.002 37.9728 108.829 36.7903C108.436 33.8717 108.093 30.9441 107.776 28.0048C107.551 28.0424 107.327 28.071 107.101 28.0892C107.128 31.0481 107.272 34.0082 107.515 36.9579V36.9553Z" fill="#5F404A"></path><path d="M110.403 15.8485C110.562 12.6583 110.506 9.44742 110.104 6.28198C110.055 9.47471 110.009 12.6453 109.835 15.8147C109.705 18.4461 109.487 21.0683 109.253 23.7023C109.291 23.8322 109.326 23.9648 109.377 24.0934C109.935 21.3854 110.25 18.6202 110.402 15.8498L110.403 15.8485Z" fill="#D6C1AD"></path><path d="M116.615 18.4526C118.097 15.9537 119.312 13.2522 120.088 10.4077C118.893 13.0716 117.614 15.6562 116.138 18.116C115.084 19.8936 113.934 21.5959 112.719 23.2579C112.648 23.5412 112.513 23.8335 112.373 24.0921C113.982 22.4055 115.39 20.4888 116.615 18.4513V18.4526Z" fill="#D6C1AD"></path><path d="M103.049 17.2701C101.778 14.4113 100.627 11.4992 99.4644 8.56641C100.2 11.6604 101.271 14.653 102.536 17.5377C103.492 19.6922 104.56 21.7934 105.774 23.7881C105.808 23.6607 105.853 23.5373 105.907 23.419C104.92 21.3815 103.955 19.344 103.049 17.2701Z" fill="#D6C1AD"></path><path d="M98.0245 22.0026C95.7988 20.338 93.7107 18.4759 91.6741 16.506C93.3866 18.8177 95.4544 20.8123 97.7004 22.512C99.2957 23.7036 100.987 24.7535 102.758 25.5956C103.008 25.5956 103.255 25.6125 103.503 25.6579C101.616 24.5326 99.7813 23.3332 98.0245 22.0026Z" fill="#D6C1AD"></path><path d="M49.1933 42.5416L49.6095 42.7391L64.3983 49.7561C69.4631 52.1717 74.5314 54.5783 79.5747 57.0459C84.6299 59.4837 89.6647 61.9721 94.6673 64.532C97.1692 65.812 99.6627 67.1114 102.123 68.4797C103.353 69.1632 104.58 69.8545 105.782 70.5952C106.383 70.9656 106.979 71.3437 107.558 71.7543C108.139 72.1597 108.704 72.5964 109.191 73.133C108.717 72.5834 108.159 72.1312 107.586 71.7101C107.015 71.2839 106.426 70.8902 105.831 70.503C104.644 69.7298 103.43 69.006 102.214 68.2913C99.7679 66.8827 97.2876 65.5482 94.8 64.2306C89.8202 61.6057 84.7817 59.1199 79.7373 56.6496C74.6785 54.2132 69.6114 51.8014 64.5191 49.4507L56.87 45.9526L49.6095 42.7261L49.1909 42.5403H49.1897H49.1933V42.5416Z" fill="#5F404A"></path><path d="M112.926 71.744C110.927 69.6701 108.672 67.9106 106.396 66.2123C104.103 64.5347 101.756 62.9494 99.389 61.3991C94.6459 58.3194 89.7988 55.4334 84.929 52.6019C80.0412 49.8055 75.1271 47.0637 70.1736 44.4102C67.6956 43.0848 65.2129 41.7711 62.723 40.4742C60.2271 39.1904 57.7276 37.9143 55.2185 36.663C57.7001 37.9793 60.1708 39.3177 62.6381 40.6639L70.0373 44.7078C74.9597 47.4249 79.8738 50.159 84.7424 52.9852C89.6242 55.7855 94.4629 58.6716 99.2335 61.6876C101.616 63.1989 103.978 64.7504 106.287 66.3877C108.595 68.025 110.883 69.7207 112.926 71.7427V71.744Z" fill="#5F404A"></path><path d="M174.665 45.954L167.016 49.4521C161.924 51.8027 156.857 54.2145 151.798 56.651C146.755 59.1212 141.715 61.607 136.735 64.2319C134.248 65.5495 131.767 66.8841 129.322 68.2926C128.104 69.0086 126.892 69.7324 125.703 70.5043C125.11 70.8915 124.52 71.2853 123.948 71.7115C123.377 72.1325 122.818 72.586 122.345 73.1344C122.831 72.5977 123.396 72.1611 123.977 71.7557C124.556 71.345 125.152 70.9669 125.754 70.5966C126.956 69.8559 128.183 69.1646 129.414 68.4811C131.875 67.1141 134.369 65.8133 136.869 64.5334C141.872 61.9735 146.907 59.485 151.962 57.0473C157.005 54.5784 162.073 52.1731 167.139 49.7574L181.928 42.7404L182.347 42.5416L181.927 42.7274L174.667 45.954H174.665Z" fill="#5F404A"></path><path d="M118.611 71.7439C120.654 69.722 122.94 68.0262 125.248 66.3889C127.558 64.7503 129.921 63.2001 132.303 61.6888C137.073 58.6728 141.913 55.7868 146.793 52.9865C151.662 50.1589 156.576 47.4249 161.498 44.709L168.898 40.6652C171.364 39.3176 173.836 37.9805 176.317 36.6642C173.808 37.9168 171.307 39.1916 168.813 40.4754C166.323 41.7723 163.84 43.086 161.362 44.4115C156.408 47.0649 151.494 49.8067 146.607 52.6031C141.737 55.4359 136.891 58.322 132.147 61.4003C129.78 62.9493 127.432 64.5346 125.14 66.2135C122.864 67.9105 120.608 69.67 118.611 71.7452V71.7439Z" fill="#5F404A"></path><path d="M117.681 74.2973C116.376 73.8789 114.974 73.9075 113.641 74.2025C112.24 74.5131 111.055 75.1784 110.224 76.4557C113.682 76.9469 117.182 76.9495 120.635 76.4635C119.917 75.4136 118.841 74.669 117.681 74.2973Z" fill="#5F404A"></path><path d="M104.403 76.7273L106.232 77.186C112.999 78.8844 120.047 78.7271 126.745 76.7273C148.69 67.0646 169.25 60.0087 191.716 51.0581L189.68 50.6722C189.066 50.9165 188.453 51.1595 187.841 51.4012C166.843 59.6799 146.714 66.2044 126.151 75.2576C124.335 75.8008 122.492 76.2023 120.635 76.4622C117.181 76.9482 113.681 76.9456 110.224 76.4544C108.932 76.2712 107.648 76.0204 106.373 75.7007L104.61 75.2576C84.3369 66.3305 64.396 59.7111 43.7088 51.5831C42.8023 51.227 41.8945 50.8684 40.9856 50.5059L39.4321 51.0581C61.8989 60.0087 82.4581 67.0646 104.405 76.7273H104.403Z" fill="#BB4C48"></path><path d="M125.775 189.297C125.373 189.598 124.958 189.88 124.53 190.14C118.313 193.899 111.106 192.561 105.367 188.618L105.421 194.883C105.421 194.883 117.107 203.068 125.729 194.883H125.727L125.775 189.297Z" fill="#CF5F5C"></path><path d="M105.308 181.718L105.357 187.342C106.298 188.04 107.283 188.666 108.313 189.207C111.739 191.008 115.666 191.808 119.432 191.005C121.731 190.515 123.939 189.481 125.787 187.936L125.831 182.79C125.452 182.997 125.067 183.19 124.676 183.371C118.324 186.31 111.067 185.594 105.308 181.717V181.718Z" fill="#CF5F5C"></path><path d="M113.445 87.9103C110.299 87.5712 107.246 86.5602 104.475 84.9606L105.298 180.429C108.558 182.796 112.44 184.126 116.376 184.139C119.675 184.15 122.943 183.237 125.843 181.56L126.674 85.0281C122.635 87.3476 118.005 88.4028 113.446 87.9103H113.445Z" fill="#CF5F5C"></path><path d="M106.232 77.1873L104.403 76.7286L104.463 83.73C105.431 84.3226 106.439 84.8397 107.478 85.2725C112.039 87.1696 117.077 87.4763 121.779 86.0079C123.493 85.4726 125.137 84.7215 126.682 83.7794L126.743 76.7286C120.046 78.7285 112.997 78.8857 106.231 77.1873H106.232Z" fill="#CF5F5C"></path><path d="M108.313 189.206C107.283 188.665 106.298 188.039 105.357 187.341L105.367 188.617C111.106 192.559 118.312 193.898 124.53 190.139C124.959 189.879 125.374 189.598 125.775 189.295L125.787 187.935C123.939 189.48 121.731 190.514 119.432 191.004C115.666 191.806 111.739 191.007 108.313 189.206Z" fill="#E3CFBC"></path><path d="M105.297 180.429L105.308 181.717C111.067 185.594 118.324 186.31 124.676 183.371C125.067 183.191 125.452 182.997 125.831 182.79L125.842 181.56C122.942 183.237 119.674 184.15 116.375 184.139C112.439 184.126 108.557 182.795 105.297 180.429Z" fill="#E3CFBC"></path><path d="M107.479 85.2711C106.439 84.8384 105.432 84.3225 104.464 83.7286L104.475 84.9592C107.246 86.5588 110.299 87.5698 113.445 87.9089C118.003 88.4014 122.634 87.3463 126.673 85.0268L126.684 83.7767C125.138 84.7188 123.494 85.4712 121.78 86.0053C117.078 87.4736 112.041 87.167 107.479 85.2698V85.2711Z" fill="#E3CFBC"></path><path d="M183.733 70.8083C182.526 70.8083 181.388 70.2769 180.551 69.392C179.715 68.5057 179.181 67.27 179.181 65.8523V65.5443L178.915 65.647C165.647 70.7655 155.13 74.3454 142.244 79.7121L142.117 79.7654V79.9135C142.078 84.9606 139.198 89.4683 134.86 91.2758L134.733 91.3291L134.016 170.698L134.277 170.613C134.964 170.39 135.651 170.283 136.323 170.283C138.211 170.283 139.979 171.116 141.275 172.495C142.57 173.874 143.393 175.797 143.393 177.982V178.051L143.391 178.345L178.495 166.914V166.753C178.495 162.11 181.298 158.018 185.391 156.686L185.534 156.639V70.4159L185.266 70.5186C184.753 70.7161 184.238 70.8083 183.734 70.8083H183.733ZM185.132 156.318C180.996 157.737 178.159 161.878 178.095 166.59L143.79 177.76C143.736 175.545 142.879 173.593 141.554 172.183C140.186 170.728 138.318 169.848 136.322 169.847C135.696 169.847 135.059 169.934 134.42 170.116L135.13 91.6267C139.509 89.7399 142.42 85.1815 142.513 80.0656C155.245 74.769 165.679 71.2086 178.789 66.1564C178.937 69.0827 181.189 71.2437 183.733 71.2424C184.195 71.2424 184.665 71.1709 185.132 71.0215V156.315V156.318Z" fill="#E3CFBC"></path><path d="M98.6749 91.2758C94.3373 89.4683 91.4586 84.9606 91.4192 79.9135V79.7654L91.2912 79.7121C78.4051 74.3454 67.8881 70.7655 54.6204 65.647L54.3526 65.5443V65.8523C54.3526 67.27 53.8192 68.5057 52.9832 69.392C52.1473 70.2782 51.0075 70.8096 49.8009 70.8083C49.2974 70.8083 48.7819 70.7161 48.2689 70.5186L48.001 70.4159V156.639L48.1445 156.686C52.237 158.018 55.0402 162.111 55.0402 166.753V166.914L90.1455 178.345L90.1431 178.049V177.981C90.1431 175.795 90.9647 173.872 92.2611 172.494C93.5575 171.114 95.3251 170.282 97.2135 170.282C97.8856 170.282 98.5732 170.387 99.2609 170.612L99.5216 170.696L98.804 91.3278L98.6773 91.2745L98.6749 91.2758ZM97.2123 169.848C95.2151 169.848 93.3482 170.728 91.9801 172.184C90.6562 173.594 89.7975 175.546 89.7437 177.761L55.4397 166.591C55.3751 161.878 52.5395 157.738 48.4028 156.319V71.0228C48.8704 71.1722 49.3404 71.2437 49.802 71.2437C52.3458 71.2437 54.5977 69.0827 54.746 66.1576C67.8558 71.2099 78.2903 74.769 91.0221 80.0669C91.1166 85.1828 94.0263 89.7412 98.4046 91.628L99.115 170.117C98.4764 169.936 97.8389 169.848 97.2123 169.848Z" fill="#E3CFBC"></path><path d="M152.754 153.648C154.314 155.754 156.26 157.636 158.629 158.46C164.398 160.466 169.966 154.252 172.697 149.461C177.962 140.228 180.137 129.206 180.08 118.43C180.021 107.36 179.108 93.2458 170.202 85.8078C160.133 77.3978 151.17 93.9072 148.306 102.545C147.233 105.78 146.421 109.117 145.874 112.503C143.787 125.38 144.914 143.069 152.754 153.646V153.648Z" fill="#C7645D"></path><path d="M56.8257 118.432C56.7683 129.208 58.9437 140.23 64.2081 149.462C66.9396 154.253 72.5067 160.466 78.2758 158.461C80.6462 157.637 82.592 155.755 84.1514 153.649C91.9896 143.07 93.1173 125.381 91.0316 112.506C90.4827 109.118 89.6707 105.783 88.5979 102.547C85.7349 93.911 76.7714 77.4003 66.7016 85.8103C57.7968 93.2483 56.8831 107.363 56.8245 118.433L56.8257 118.432Z" fill="#C7645D"></path></g><defs><clipPath id="clip0_115_6334"><rect width="231.74" height="198.04" fill="white" transform="translate(0 0.47998)"></rect></clipPath></defs></svg> 