<?xml version="1.0" encoding="UTF-8"?> <svg xmlns="http://www.w3.org/2000/svg" width="215" height="218" viewBox="0 0 215 218" fill="none"><g clip-path="url(#clip0_2067_5189)"><path d="M9.56876 135.669L12.4939 137.072C12.4939 137.072 13.6571 134.591 16.2318 135.767C17.5703 136.378 17.8429 137.589 17.8088 138.396C17.765 139.332 17.2491 140.179 16.4752 140.691C15.5894 141.281 14.1536 141.508 12.3479 140.213L10.3134 144.555L13.2045 145.944L13.9443 144.363C13.9443 144.363 18.495 145.249 20.6171 140.73C22.6467 136.402 19.2835 133.562 17.6433 132.774C16.3876 132.173 11.9682 130.426 9.57362 135.669H9.56876Z" fill="#E0E0E0"></path><path d="M12.7107 147.089L9.77768 145.682L8.47801 148.453L11.4111 149.86L12.7107 147.089Z" fill="#E0E0E0"></path><path d="M37.9635 183.66L41.2683 184.606C41.2683 184.606 42.0519 181.799 44.9478 182.572C46.4518 182.976 46.9482 184.187 47.0553 185.039C47.177 186.023 46.7827 186.998 46.0624 187.678C45.2399 188.451 43.7749 188.948 41.6625 187.914L40.29 192.817L43.5558 193.753L44.0523 191.971C44.0523 191.971 48.9681 192.084 50.3941 186.979C51.7618 182.095 47.7464 179.717 45.892 179.19C44.4757 178.786 39.5453 177.747 37.9635 183.66Z" fill="#E0E0E0"></path><path d="M43.2459 195.036L39.9301 194.088L39.0546 197.219L42.3705 198.168L43.2459 195.036Z" fill="#E0E0E0"></path><path d="M176.477 78.2594L179.64 78.3185C180.974 79.8348 182.726 81.0065 184.79 81.6318C190.723 83.4288 196.977 80.0219 198.754 74.0205C200.53 68.0191 197.162 61.6928 191.229 59.8958C185.296 58.0988 179.042 61.5057 177.265 67.5071C176.521 70.013 176.681 72.5731 177.543 74.8427L176.477 78.2594Z" fill="white"></path><path d="M176.477 78.2596C176.477 78.2596 176.491 78.1906 176.535 78.0479C176.579 77.8903 176.642 77.6737 176.725 77.398C176.905 76.8023 177.158 75.9407 177.494 74.8232C177.504 74.7936 177.533 74.7789 177.562 74.7887C177.572 74.7887 177.582 74.7985 177.591 74.8084L177.499 74.8626C176.973 73.5136 176.53 71.5985 176.803 69.3436C176.929 68.2162 177.265 67.0297 177.815 65.8481C178.36 64.6715 179.149 63.5096 180.186 62.5004C181.222 61.4911 182.512 60.6345 183.977 60.0683C185.442 59.4972 187.087 59.2215 188.771 59.3298C192.129 59.507 195.609 61.4369 197.585 64.6223C198.588 66.2371 199.201 68.0685 199.318 69.895C199.45 71.7215 199.148 73.5284 198.501 75.1333C197.843 76.7383 196.841 78.1266 195.663 79.2098C194.48 80.2978 193.127 81.0806 191.75 81.563C188.98 82.5378 186.211 82.2818 184.123 81.4843C182.006 80.6867 180.536 79.4165 179.611 78.3482L179.65 78.3679C178.628 78.3334 177.835 78.3088 177.28 78.294C177.027 78.2842 176.827 78.2743 176.681 78.2694C176.55 78.2645 176.482 78.2596 176.487 78.2546C176.487 78.2546 176.564 78.2546 176.701 78.2546C176.852 78.2546 177.056 78.2546 177.314 78.2546C177.859 78.2546 178.643 78.2596 179.65 78.2694C179.665 78.2694 179.679 78.2743 179.689 78.2891C180.624 79.3328 182.089 80.5735 184.177 81.3415C186.245 82.1095 188.966 82.3409 191.677 81.371C193.025 80.8886 194.354 80.1156 195.507 79.0473C196.661 77.9789 197.639 76.6201 198.277 75.0496C198.904 73.4791 199.201 71.7117 199.07 69.9246C198.958 68.1325 198.354 66.3454 197.376 64.77C195.444 61.6536 192.052 59.763 188.761 59.5858C185.452 59.3544 182.366 60.6886 180.341 62.6677C179.319 63.6524 178.54 64.7897 177.995 65.9417C177.45 67.0986 177.11 68.2654 176.973 69.3732C176.691 71.5935 177.105 73.489 177.606 74.833C177.616 74.8626 177.606 74.8921 177.577 74.9019C177.552 74.9118 177.528 74.9019 177.514 74.8822L177.611 74.8626C177.256 75.9555 176.983 76.7974 176.793 77.3832C176.701 77.6639 176.628 77.8805 176.574 78.043C176.525 78.1906 176.491 78.2743 176.491 78.2743L176.477 78.2596Z" fill="#E0E0E0"></path><path d="M184.293 69.2104H186.274C186.274 69.2104 186.274 67.5267 188.002 67.4972C188.903 67.4824 189.365 68.0781 189.555 68.531C189.774 69.0627 189.706 69.6634 189.414 70.1557C189.078 70.7169 188.338 71.224 187.004 70.9877V73.9318H188.966V72.8635C188.966 72.8635 191.716 72.1447 191.716 69.0775C191.716 66.0103 189.117 65.4639 188.002 65.4639C187.15 65.4639 184.25 65.6706 184.289 69.2104H184.293Z" fill="#E0E0E0"></path><path d="M188.995 74.6953H187.004V76.576H188.995V74.6953Z" fill="#E0E0E0"></path><path d="M53.0078 17.566H62.304C62.304 17.566 62.304 9.6692 70.4174 9.53135C74.6324 9.4575 76.8128 12.249 77.7035 14.3856C78.7353 16.8669 78.4238 19.6978 77.0416 22.0019C75.4646 24.6308 72.009 27.0235 65.745 25.906V39.7057H74.939V34.689C74.939 34.689 87.832 31.3166 87.832 16.9457C87.8271 3.19517 75.635 0 70.4174 0C66.4264 0 52.8326 0.974797 53.0078 17.566Z" fill="#E0E0E0"></path><path d="M75.0461 43.2852H65.7158V52.0977H75.0461V43.2852Z" fill="#E0E0E0"></path><path d="M44.7434 50.3198L37.433 48.3456C37.433 48.3456 35.7928 54.5538 29.3828 52.9439C26.0537 52.1069 24.9148 49.4484 24.6617 47.5776C24.3648 45.4064 25.2019 43.2451 26.7643 41.7288C28.5505 39.9958 31.7628 38.8487 36.4596 41.0592L39.3263 30.2035L32.0938 28.249L31.0522 32.1925C31.0522 32.1925 20.2131 32.1039 17.2296 43.4076C14.3726 54.2239 23.2989 59.3244 27.4019 60.4321C30.5412 61.2789 41.4338 63.4008 44.7434 50.3149V50.3198Z" fill="#EBEBEB"></path><path d="M32.755 25.4093L40.0907 27.3906L41.9202 20.4603L34.5845 18.479L32.755 25.4093Z" fill="#EBEBEB"></path><path d="M185.69 133.37L191.769 134.035C191.769 134.035 192.319 128.875 197.634 129.358C200.394 129.609 201.625 131.593 202.058 133.05C202.56 134.748 202.156 136.575 201.095 137.983C199.883 139.588 197.454 140.907 193.439 139.731L192.475 148.75L198.486 149.405L198.836 146.126C198.836 146.126 207.5 144.841 208.502 135.448C209.461 126.458 201.713 123.499 198.301 123.13C195.692 122.844 186.737 122.514 185.695 133.37H185.69Z" fill="#EBEBEB"></path><path d="M198.311 151.747L192.214 151.082L191.6 156.843L197.698 157.508L198.311 151.747Z" fill="#EBEBEB"></path><path d="M8.52232 170.24L14.908 169.546C14.908 169.546 14.3288 164.121 19.8919 163.417C22.783 163.052 24.4865 164.805 25.2506 166.208C26.1413 167.838 26.1315 169.807 25.3528 171.491C24.4621 173.416 22.2622 175.316 17.8769 175.021L18.8893 184.503L25.2068 183.813L24.8418 180.367C24.8418 180.367 33.4517 177.083 32.4004 167.212C31.3929 157.765 22.783 156.485 19.2008 156.874C16.4606 157.174 7.18873 158.863 8.52719 170.245L8.52232 170.24Z" fill="#F5F5F5"></path><path d="M25.5367 186.265L19.1249 186.964L19.7699 193.019L26.1817 192.32L25.5367 186.265Z" fill="#F5F5F5"></path><path d="M97.3423 24.6848L102.959 23.0257C102.959 23.0257 101.582 18.2551 106.458 16.719C108.989 15.9215 110.8 17.2212 111.705 18.3535C112.761 19.668 113.068 21.4355 112.635 23.0749C112.138 24.9457 110.469 27.0085 106.488 27.4516L108.892 35.7916L114.445 34.1521L113.569 31.1194C113.569 31.1194 120.773 26.7821 118.266 18.0975C115.867 9.78713 107.943 10.0333 104.789 10.9638C102.38 11.6776 94.3344 14.6907 97.3326 24.6848H97.3423Z" fill="#F5F5F5"></path><path d="M115.145 36.302L109.506 37.9668L111.043 43.2931L116.682 41.6282L115.145 36.302Z" fill="#F5F5F5"></path><path d="M197.663 107.199L202.2 105.859C202.2 105.859 201.09 102.005 205.027 100.769C207.071 100.124 208.532 101.173 209.267 102.088C210.118 103.152 210.367 104.579 210.016 105.899C209.617 107.41 208.269 109.074 205.052 109.434L206.994 116.169L211.481 114.844L210.775 112.397C210.775 112.397 216.592 108.892 214.567 101.881C212.63 95.1711 206.229 95.3681 203.684 96.1213C201.737 96.6973 195.24 99.1294 197.663 107.203V107.199Z" fill="#F5F5F5"></path><path d="M212.043 116.587L207.487 117.932L208.728 122.232L213.284 120.888L212.043 116.587Z" fill="#F5F5F5"></path><path d="M212.489 217.872C212.489 217.941 164.917 218 106.249 218C47.5809 218 0 217.941 0 217.872C0 217.803 47.5615 217.744 106.249 217.744C164.937 217.744 212.489 217.803 212.489 217.872Z" fill="#263238"></path><path d="M185.152 41.3749C186.798 30.8664 179.71 20.9983 169.321 19.3339C158.932 17.6695 149.177 24.8391 147.531 35.3476C145.886 45.8562 152.974 55.7243 163.363 57.3886C173.751 59.053 183.507 51.8834 185.152 41.3749Z" fill="white"></path><path d="M185.393 38.3673C185.393 38.3673 185.379 38.2639 185.364 38.0571C185.35 37.8405 185.33 37.5402 185.306 37.1414C185.296 36.9395 185.281 36.7131 185.267 36.4669C185.242 36.2207 185.189 35.9549 185.145 35.6644C185.101 35.3739 185.053 35.0589 184.999 34.729C184.96 34.3942 184.834 34.0496 184.751 33.6804C184.415 32.1935 183.729 30.436 182.643 28.5701C181.548 26.714 179.971 24.7743 177.82 23.1299C177.552 22.9281 177.275 22.7213 177.002 22.5145C176.715 22.3225 176.414 22.1502 176.112 21.9631C175.805 21.7859 175.518 21.5742 175.187 21.4215C174.861 21.264 174.535 21.1065 174.204 20.944C174.038 20.8652 173.873 20.7865 173.703 20.7028C173.527 20.6388 173.352 20.5748 173.177 20.5108C172.826 20.3827 172.471 20.2498 172.111 20.1169C171.751 19.9938 171.371 19.92 170.996 19.8166C170.617 19.728 170.247 19.595 169.848 19.5556C169.064 19.4424 168.276 19.2799 167.453 19.275C167.044 19.2603 166.635 19.2209 166.217 19.2258C165.803 19.2455 165.385 19.2701 164.966 19.2898C164.757 19.3046 164.543 19.3046 164.333 19.3292L163.701 19.4276C163.277 19.4966 162.849 19.5458 162.425 19.6393C161.588 19.8707 160.722 20.043 159.899 20.3877C159.053 20.6634 158.249 21.0868 157.432 21.4855C157.033 21.7071 156.648 21.9582 156.254 22.1994C156.059 22.3225 155.855 22.4308 155.67 22.5736L155.115 22.997C154.346 23.5336 153.674 24.1982 152.969 24.8432C152.331 25.557 151.664 26.2512 151.114 27.0636L150.681 27.6543L150.301 28.2845L149.922 28.9196C149.79 29.1264 149.669 29.343 149.571 29.5744C149.357 30.0224 149.143 30.4704 148.929 30.9234C148.759 31.396 148.588 31.8686 148.418 32.3412C147.8 34.2613 147.469 36.3044 147.44 38.3771C147.469 40.4547 147.8 42.4978 148.413 44.4179C148.583 44.8905 148.754 45.3631 148.924 45.8358C149.138 46.2887 149.352 46.7367 149.566 47.1847L149.727 47.5195L149.917 47.8395L150.297 48.4746L150.676 49.1048L151.109 49.6956C151.659 50.503 152.326 51.2021 152.964 51.9159C153.669 52.5609 154.341 53.2255 155.11 53.7622L155.665 54.1856C155.85 54.3283 156.054 54.4317 156.249 54.5597C156.643 54.796 157.028 55.052 157.427 55.2736C158.249 55.6724 159.048 56.0958 159.895 56.3715C160.717 56.721 161.583 56.8933 162.421 57.1198C162.844 57.2084 163.272 57.2576 163.696 57.3315L164.328 57.43C164.538 57.4595 164.752 57.4546 164.961 57.4693C165.38 57.489 165.798 57.5136 166.212 57.5333C166.626 57.5383 167.039 57.4989 167.448 57.4841C168.271 57.4841 169.059 57.3167 169.843 57.2035C170.237 57.1641 170.612 57.0262 170.992 56.9426C171.366 56.8392 171.746 56.7604 172.106 56.6422C172.466 56.5093 172.822 56.3813 173.172 56.2484C173.347 56.1844 173.522 56.1204 173.698 56.0564C173.863 55.9776 174.034 55.8939 174.199 55.8151C174.53 55.6527 174.856 55.4951 175.182 55.3376C175.508 55.185 175.8 54.9733 176.107 54.796C176.409 54.6089 176.71 54.4366 176.998 54.2446C177.275 54.0379 177.548 53.8311 177.815 53.6292C179.967 51.9849 181.543 50.0451 182.639 48.1891C183.724 46.3232 184.41 44.5656 184.746 43.0788C184.834 42.7095 184.955 42.3649 184.994 42.0301C185.048 41.6954 185.096 41.3852 185.14 41.0947C185.184 40.8043 185.238 40.5384 185.262 40.2922C185.277 40.0461 185.291 39.8196 185.301 39.6178C185.325 39.2239 185.345 38.9187 185.359 38.702C185.374 38.4953 185.388 38.3919 185.388 38.3919C185.388 38.3919 185.388 38.4953 185.388 38.702C185.379 38.9187 185.369 39.2239 185.354 39.6178C185.345 39.8196 185.335 40.0461 185.325 40.2922C185.306 40.5384 185.257 40.8092 185.218 41.0996C185.174 41.3901 185.131 41.7052 185.082 42.0449C185.048 42.3846 184.926 42.7292 184.843 43.1034C184.522 44.605 183.841 46.3773 182.76 48.2629C181.67 50.1387 180.088 52.103 177.922 53.772C177.65 53.9788 177.377 54.1856 177.095 54.3972C176.803 54.5893 176.501 54.7714 176.199 54.9585C175.893 55.1357 175.601 55.3524 175.27 55.5099C174.944 55.6724 174.613 55.8299 174.277 55.9973C174.111 56.0761 173.941 56.1598 173.771 56.2435C173.595 56.3075 173.42 56.3764 173.24 56.4404C172.885 56.5733 172.525 56.7062 172.165 56.8392C171.799 56.9622 171.415 57.041 171.035 57.1493C170.651 57.2379 170.276 57.3758 169.877 57.4201C169.084 57.5383 168.285 57.7007 167.458 57.7106C167.044 57.7253 166.631 57.7697 166.207 57.7598C165.789 57.7401 165.365 57.7155 164.942 57.6958C164.728 57.681 164.513 57.681 164.299 57.6564L163.662 57.558C163.233 57.489 162.8 57.4398 162.372 57.3463C161.525 57.1149 160.649 56.9426 159.817 56.593C158.955 56.3173 158.147 55.889 157.315 55.4853C156.911 55.2637 156.522 55.0077 156.123 54.7665C155.928 54.6385 155.719 54.5302 155.529 54.3874L154.964 53.9591C154.185 53.4175 153.504 52.743 152.789 52.0932C152.141 51.3744 151.465 50.6655 150.91 49.8482L150.467 49.2525L150.082 48.6125L149.698 47.9725L149.503 47.6524L149.338 47.3127C149.124 46.8598 148.905 46.4019 148.686 45.9441C148.51 45.4665 148.34 44.989 148.165 44.5065C147.537 42.5569 147.201 40.4892 147.177 38.387C147.206 36.2847 147.542 34.217 148.17 32.2674C148.345 31.7849 148.52 31.3074 148.69 30.8298C148.909 30.372 149.124 29.9141 149.343 29.4612C149.445 29.2298 149.567 29.0131 149.698 28.8014L150.082 28.1614L150.467 27.5214L150.91 26.9257C151.465 26.1084 152.146 25.3995 152.789 24.6807C153.504 24.0309 154.185 23.3564 154.964 22.8148L155.529 22.3865C155.714 22.2437 155.923 22.1354 156.123 22.0074C156.522 21.7662 156.911 21.5102 157.315 21.2886C158.147 20.8849 158.955 20.4566 159.817 20.1809C160.649 19.8314 161.525 19.659 162.372 19.4276C162.8 19.339 163.233 19.2898 163.662 19.2159L164.299 19.1175C164.513 19.0879 164.728 19.0929 164.942 19.0781C165.365 19.0584 165.789 19.0338 166.207 19.0141C166.626 19.0092 167.044 19.0486 167.453 19.0633C168.281 19.0683 169.084 19.2356 169.872 19.3538C170.271 19.3981 170.646 19.531 171.03 19.6246C171.41 19.728 171.79 19.8117 172.16 19.9347C172.52 20.0677 172.88 20.2006 173.235 20.3335C173.411 20.3975 173.591 20.4664 173.766 20.5304C173.936 20.6141 174.102 20.6929 174.272 20.7766C174.608 20.9391 174.939 21.1015 175.265 21.264C175.596 21.4166 175.888 21.6332 176.195 21.8154C176.496 22.0074 176.803 22.1846 177.09 22.3767C177.367 22.5884 177.645 22.7951 177.917 23.0019C180.083 24.6709 181.665 26.6352 182.755 28.511C183.836 30.3966 184.517 32.1689 184.838 33.6705C184.921 34.0447 185.043 34.3893 185.077 34.729C185.126 35.0638 185.169 35.3789 185.213 35.6743C185.252 35.9647 185.301 36.2355 185.32 36.4817C185.33 36.7278 185.34 36.9543 185.35 37.1561C185.364 37.5549 185.374 37.8552 185.384 38.0719C185.388 38.2786 185.384 38.382 185.384 38.382L185.393 38.3673Z" fill="#263238"></path><path d="M159.573 35.063H163.19C163.19 35.063 163.19 31.9909 166.348 31.9367C167.989 31.9072 168.84 32.9952 169.186 33.8272C169.585 34.7922 169.463 35.895 168.928 36.791C168.315 37.815 166.971 38.7455 164.533 38.3123V43.6835H168.11V41.729C168.11 41.729 173.128 40.4145 173.128 34.8217C173.128 29.2289 168.383 28.2246 166.353 28.2246C164.801 28.2246 159.51 28.6037 159.578 35.063H159.573Z" fill="#FF725E"></path><path d="M168.149 45.0771H164.518V48.5086H168.149V45.0771Z" fill="#FF725E"></path><path d="M157.378 64.0709C159.023 64.0709 160.357 62.722 160.357 61.0579C160.357 59.3939 159.023 58.0449 157.378 58.0449C155.733 58.0449 154.4 59.3939 154.4 61.0579C154.4 62.722 155.733 64.0709 157.378 64.0709Z" fill="white"></path><path d="M160.357 61.058C160.333 61.058 160.337 60.7872 160.216 60.3343C160.094 59.8863 159.792 59.2364 159.126 58.7342C158.483 58.232 157.422 57.9514 156.4 58.3404C155.899 58.5274 155.417 58.8721 155.076 59.3545C154.726 59.8272 154.526 60.4376 154.521 61.0629C154.526 61.6881 154.726 62.2986 155.076 62.7713C155.417 63.2537 155.899 63.5984 156.4 63.7854C157.422 64.1694 158.483 63.8937 159.126 63.3916C159.792 62.8894 160.094 62.2395 160.216 61.7915C160.337 61.3386 160.328 61.0678 160.357 61.0678C160.367 61.0678 160.371 61.1318 160.371 61.2598C160.371 61.3878 160.362 61.5749 160.308 61.8161C160.211 62.2839 159.924 62.983 159.233 63.5344C158.566 64.0858 157.432 64.4156 156.322 64.007C155.772 63.815 155.251 63.4408 154.877 62.919C154.492 62.4069 154.273 61.7423 154.268 61.0629C154.273 60.3835 154.492 59.7189 154.877 59.2068C155.251 58.685 155.772 58.3157 156.322 58.1188C157.432 57.7151 158.566 58.04 159.233 58.5914C159.924 59.1428 160.216 59.8419 160.308 60.3096C160.362 60.546 160.371 60.738 160.371 60.866C160.371 60.994 160.367 61.058 160.357 61.058Z" fill="#263238"></path><path d="M161.223 128.186C166.178 145.186 167.336 163.18 164.353 180.662C163.983 182.824 164.922 185.039 167.156 185.659C169.088 186.196 171.726 184.995 172.096 182.824C175.328 163.879 174.34 144.482 168.967 126.025C167.507 121.023 159.758 123.149 161.223 128.186Z" fill="#263238"></path><path d="M182.298 107.513C180.015 99.5868 173.722 93.1325 166.231 91.0401C167.74 85.3686 165.351 78.8207 162.386 73.8581C159.422 68.8906 154.069 65.3212 148.637 64.4104C142.991 63.4652 139.487 63.9772 134.021 65.7496C130.755 59.4232 124.481 55.9967 117.779 55.1843C111.077 54.372 103.859 58.1875 101.144 64.8043C100.17 57.8478 92.4217 53.7221 86.0263 55.2926C79.6309 56.8632 74.7686 62.6036 71.7754 68.861L157.719 162.378C165.336 165.45 174.734 162.254 179.305 155.032C183.875 147.815 183.174 137.274 177.694 130.825C182.78 124.572 184.59 115.44 182.308 107.513H182.298Z" fill="#FF725E"></path><path d="M111.115 173.375L104.858 172.693L100.134 217.041L106.391 217.723L111.115 173.375Z" fill="#263238"></path><path d="M121.031 217.72L127.288 217.038L122.564 172.69L116.307 173.372L121.031 217.72Z" fill="#263238"></path><path d="M41.8473 80.6963C44.4123 73.4395 49.1042 67.9353 56.2831 64.9322C63.5205 61.9044 71.6876 61.8601 79.3971 63.2386C82.5558 63.8048 85.8071 64.6614 88.2406 66.7735C90.6791 68.8855 92.0467 72.573 90.6401 75.4925C97.3227 71.677 105.996 71.7016 112.654 75.5614C119.317 79.4212 123.727 86.9685 123.853 94.7324C130.818 94.1712 138.129 95.7269 143.653 100.049C149.177 104.372 152.599 111.698 151.348 118.649C155.903 118.246 160.269 121.214 162.693 125.133C165.117 129.052 165.91 133.778 166.231 138.391C166.431 141.237 166.46 144.171 165.521 146.864C165.063 148.174 164.382 149.41 164.085 150.764C163.725 152.403 163.949 154.111 163.997 155.79C164.226 163.564 160.4 171.343 154.137 175.847C147.868 180.352 139.345 181.445 132.166 178.668C124.189 186.998 109.894 188.037 100.822 180.943C94.9183 182.947 88.6689 184.389 82.4974 183.587C79.3484 183.178 76.2335 182.119 73.5419 180.401C71.0743 178.826 69.6629 175.778 67.3412 174.336C64.971 172.864 62.2843 174.159 59.6123 174.124C56.4876 174.08 53.3726 173.307 50.6032 171.84C45.3224 169.043 41.3995 163.83 39.9637 157.976C39.6717 156.79 39.4575 155.534 38.7177 154.569C38.0412 153.688 37.0191 153.166 36.0651 152.6C30.1175 149.09 25.8345 142.832 24.6761 135.969C23.5177 129.106 25.5084 121.766 29.9667 116.459C29.9667 116.459 25.4646 104.781 29.699 94.3189C33.9334 83.857 41.8424 80.6914 41.8424 80.6914L41.8473 80.6963Z" fill="#FF725E"></path><g opacity="0.3"><path d="M179.246 146.707C175.659 152.373 169.103 155.559 162.761 155.185C161.189 159.965 158.157 164.268 154.093 167.192C147.824 171.697 139.302 172.795 132.123 170.013C124.146 178.343 109.851 179.382 100.779 172.288C94.8747 174.292 88.6253 175.734 82.4538 174.932C79.3048 174.523 76.1898 173.464 73.4983 171.746C71.0307 170.171 69.6192 167.123 67.2976 165.681C64.9273 164.209 62.2407 165.504 59.5686 165.469C56.4439 165.425 53.329 164.652 50.5596 163.185C45.2788 160.388 41.3559 155.175 39.9201 149.321C39.6281 148.135 39.4139 146.879 38.6741 145.914C37.9976 145.033 36.9755 144.511 36.0215 143.945C30.1859 140.504 25.9612 134.414 24.7103 127.698C24.2188 130.416 24.175 133.217 24.6325 135.945C25.7908 142.808 30.0739 149.065 36.0215 152.575C36.9755 153.136 37.9976 153.658 38.6741 154.545C39.4139 155.509 39.6281 156.77 39.9201 157.951C41.3559 163.8 45.2836 169.014 50.5596 171.815C53.329 173.282 56.4439 174.06 59.5686 174.1C62.2456 174.134 64.9273 172.839 67.2976 174.311C69.6192 175.754 71.0356 178.801 73.4983 180.377C76.1898 182.095 79.3048 183.153 82.4538 183.562C88.6253 184.364 94.8796 182.922 100.779 180.918C109.851 188.013 124.146 186.974 132.123 178.644C139.307 181.42 147.829 180.327 154.093 175.823C158.157 172.898 161.194 168.6 162.761 163.815C169.098 164.189 175.659 161.004 179.246 155.337C182.03 150.936 182.853 145.304 181.835 140.115C181.368 142.458 180.507 144.708 179.246 146.702V146.707Z" fill="black"></path></g><path d="M75.4014 132.395C75.4014 132.395 75.3284 132.307 75.2115 132.134C75.085 131.962 74.9341 131.686 74.6908 131.366C74.2333 130.706 73.5032 129.791 72.4616 128.801C71.4298 127.812 70.0524 126.778 68.3684 125.921C66.6892 125.064 64.6888 124.424 62.5278 124.208C60.362 124.016 58.2788 124.272 56.4731 124.799C54.6626 125.325 53.1197 126.084 51.9273 126.861C50.7251 127.639 49.8441 128.402 49.2698 128.964C48.9729 129.234 48.7734 129.476 48.6176 129.623C48.4667 129.776 48.3889 129.85 48.3791 129.845C48.3743 129.84 48.4424 129.751 48.5787 129.589C48.7198 129.431 48.9097 129.175 49.1968 128.895C49.7517 128.304 50.6277 127.516 51.8251 126.714C53.0224 125.906 54.575 125.119 56.405 124.572C58.235 124.026 60.3522 123.755 62.5473 123.952C64.7424 124.173 66.772 124.833 68.4706 125.709C70.1692 126.586 71.5515 127.649 72.5784 128.668C73.6103 129.687 74.3257 130.623 74.7638 131.307C74.9974 131.637 75.1337 131.922 75.2456 132.105C75.3527 132.292 75.4014 132.39 75.3965 132.395H75.4014Z" fill="#263238"></path><path d="M82.1715 161.556C82.1715 161.556 82.1715 161.497 82.1715 161.383C82.1813 161.255 82.191 161.088 82.2056 160.871C82.2251 160.64 82.2445 160.364 82.2689 160.039C82.3224 159.71 82.3808 159.335 82.4489 158.917C82.5998 158.075 82.8578 157.056 83.2569 155.904C83.6901 154.772 84.2206 153.482 85.0334 152.182C86.6055 149.578 89.0926 146.742 92.6407 144.797C94.4026 143.822 96.4273 143.108 98.5883 142.774C100.749 142.434 103.042 142.459 105.324 142.867C109.899 143.709 113.915 146.072 116.602 149.095C119.322 152.108 120.734 155.673 121.06 158.72C121.4 161.792 120.729 164.283 120.067 165.844C119.39 167.419 118.772 168.153 118.772 168.153C118.772 168.153 118.797 168.099 118.855 168C118.923 167.892 119.006 167.744 119.118 167.562C119.337 167.173 119.658 166.592 119.974 165.804C120.602 164.244 121.24 161.772 120.88 158.74C120.534 155.732 119.123 152.221 116.426 149.253C113.764 146.279 109.797 143.95 105.281 143.118C103.027 142.71 100.759 142.685 98.6272 143.02C96.4906 143.35 94.4951 144.044 92.7526 145.004C89.2386 146.914 86.7612 149.71 85.1843 152.275C84.3666 153.556 83.8312 154.831 83.3883 155.953C82.9843 157.09 82.7118 158.1 82.5463 158.937C82.4733 159.355 82.4051 159.724 82.3467 160.049C82.3127 160.369 82.2835 160.645 82.2591 160.876C82.2348 161.088 82.2153 161.255 82.2007 161.383C82.1861 161.497 82.1764 161.556 82.1715 161.556Z" fill="#263238"></path><path d="M145.288 167.183C145.288 167.183 145.22 167.232 145.079 167.301C144.933 167.365 144.729 167.483 144.446 167.587C143.891 167.818 143.045 168.074 141.974 168.217C140.903 168.359 139.599 168.35 138.197 168.044C136.8 167.744 135.311 167.119 133.982 166.114C132.668 165.09 131.665 163.815 131.003 162.535C130.332 161.255 129.967 159.985 129.816 158.907C129.66 157.824 129.675 156.938 129.743 156.332C129.762 156.027 129.821 155.795 129.845 155.638C129.874 155.48 129.894 155.397 129.903 155.402C129.976 155.402 129.641 156.746 129.996 158.877C130.171 159.936 130.546 161.177 131.213 162.427C131.875 163.673 132.858 164.918 134.143 165.913C135.437 166.892 136.888 167.508 138.255 167.818C139.623 168.128 140.903 168.163 141.959 168.039C144.086 167.808 145.274 167.114 145.293 167.183H145.288Z" fill="#263238"></path><path d="M71.3714 71.9429C71.3714 71.9429 71.3811 71.7165 71.4444 71.3078C71.5028 70.8992 71.6245 70.3183 71.8143 69.6093C71.9993 68.8955 72.2767 68.0684 72.6369 67.1625C73.0116 66.2665 73.474 65.3015 74.0434 64.3366C74.6226 63.3765 75.2456 62.5051 75.854 61.7519C76.4721 61.0035 77.0659 60.3685 77.6013 59.8663C78.1318 59.3641 78.5845 58.9801 78.9106 58.7389C79.2367 58.4927 79.4216 58.3647 79.4313 58.3746C79.4605 58.4139 78.7499 58.9653 77.7279 59.9943C77.2119 60.5063 76.6376 61.1512 76.0341 61.8947C75.4403 62.6479 74.8319 63.5095 74.2625 64.4596C73.7027 65.4147 73.2355 66.3649 72.851 67.2462C72.4811 68.1324 72.1891 68.9496 71.9847 69.6487C71.5661 71.0469 71.4152 71.9429 71.3714 71.9331V71.9429Z" fill="#263238"></path><path d="M52.3556 79.4857C52.341 79.535 51.4795 79.2839 50.0534 79.1313C49.338 79.0476 48.4862 79.023 47.5371 79.0623C46.5929 79.1165 45.5562 79.2494 44.4903 79.4956C43.4293 79.7565 42.4413 80.1061 41.57 80.4851C40.7086 80.879 39.9542 81.2876 39.3506 81.6864C38.1387 82.4692 37.4817 83.0846 37.4476 83.0452C37.4379 83.0304 37.5936 82.8729 37.8954 82.5972C38.0414 82.4544 38.2312 82.292 38.4599 82.1197C38.6887 81.9424 38.9418 81.7307 39.2484 81.5338C39.8422 81.1153 40.6015 80.6821 41.4727 80.2685C42.3488 79.8747 43.3465 79.5104 44.427 79.2445C45.5075 78.9934 46.5637 78.8654 47.5225 78.8211C48.4813 78.7965 49.3477 78.8408 50.068 78.9442C50.4282 78.9786 50.7494 79.0574 51.0317 79.1116C51.314 79.1608 51.5574 79.2248 51.752 79.2839C52.1414 79.3971 52.3556 79.466 52.3507 79.4808L52.3556 79.4857Z" fill="#263238"></path><path d="M52.3556 120.324C52.3556 120.324 52.2972 120.392 52.1657 120.501C52.0343 120.604 51.8445 120.781 51.5817 120.964C51.0609 121.352 50.2676 121.855 49.2114 122.342C48.1601 122.829 46.8363 123.268 45.3226 123.499C43.8089 123.735 42.1005 123.735 40.3581 123.396C38.6206 123.036 37.0436 122.372 35.7344 121.569C34.4202 120.767 33.3641 119.851 32.5805 118.994C31.792 118.138 31.2469 117.365 30.9159 116.803C30.7407 116.533 30.6336 116.301 30.5509 116.149C30.473 115.996 30.4341 115.917 30.4438 115.912C30.4633 115.902 30.6434 116.213 31.0035 116.749C31.3588 117.286 31.9234 118.039 32.7168 118.871C33.5101 119.703 34.5614 120.589 35.8609 121.372C37.1556 122.15 38.713 122.8 40.4165 123.149C42.1249 123.484 43.804 123.489 45.2982 123.268C46.7924 123.051 48.1017 122.637 49.1481 122.175C50.1994 121.717 51.0025 121.239 51.533 120.88C52.0684 120.52 52.3507 120.304 52.3653 120.324H52.3556Z" fill="#263238"></path><path d="M40.4165 143.394C40.4603 143.413 40.0807 144.27 39.6816 145.722C39.4772 146.446 39.2971 147.327 39.1511 148.312C39.0245 149.297 38.9467 150.39 38.9661 151.537C38.9953 152.684 39.1219 153.772 39.2922 154.751C39.4772 155.726 39.6962 156.598 39.9347 157.312C40.3971 158.744 40.8156 159.581 40.7718 159.606C40.7572 159.616 40.6453 159.409 40.4555 159.03C40.3581 158.843 40.2462 158.606 40.1342 158.326C40.0223 158.045 39.8811 157.735 39.7643 157.371C39.5064 156.657 39.263 155.78 39.0635 154.796C38.8785 153.806 38.7422 152.703 38.713 151.542C38.6936 150.38 38.7812 149.272 38.9223 148.277C39.0781 147.283 39.2825 146.397 39.5112 145.673C39.6086 145.304 39.74 144.989 39.8373 144.703C39.9347 144.418 40.0369 144.181 40.1245 143.984C40.2949 143.595 40.4019 143.389 40.4165 143.394Z" fill="#263238"></path><path d="M71.9749 178.856C71.9749 178.856 71.897 178.772 71.7656 178.6C71.6391 178.422 71.4444 178.171 71.2108 177.827C70.7435 177.147 70.0913 176.143 69.3905 174.838C68.6896 173.539 67.9595 171.919 67.3901 170.038C67.1175 169.093 66.879 168.089 66.7136 167.03C66.5578 165.972 66.4799 164.864 66.4848 163.727C66.5091 159.173 67.7551 155.155 69.0303 152.497C69.663 151.158 70.2763 150.124 70.7289 149.435C70.9479 149.085 71.1475 148.829 71.2692 148.652C71.3957 148.475 71.4687 148.386 71.4736 148.391C71.4785 148.396 71.4249 148.494 71.3081 148.681C71.1962 148.868 71.0161 149.129 70.8068 149.489C70.3785 150.193 69.7944 151.232 69.186 152.571C67.9595 155.234 66.7525 159.217 66.7282 163.727C66.7282 164.849 66.8012 165.942 66.952 166.991C67.1127 168.039 67.3414 169.034 67.6042 169.969C68.1542 171.835 68.86 173.445 69.5414 174.755C70.2179 176.059 70.8409 177.078 71.2838 177.773C71.4931 178.102 71.6634 178.368 71.7948 178.57C71.9116 178.752 71.97 178.851 71.9603 178.856H71.9749Z" fill="#263238"></path><path d="M67.0786 158.025C67.0786 158.025 66.9034 158.144 66.5335 158.227C66.1684 158.311 65.6087 158.336 64.9517 158.188C64.2897 158.05 63.5499 157.735 62.7712 157.317C61.9925 156.898 61.1845 156.337 60.4252 155.652C58.8921 154.279 57.8943 152.659 57.359 151.428C57.0913 150.808 56.9209 150.291 56.8236 149.927C56.7311 149.562 56.6922 149.361 56.7068 149.356C56.7554 149.341 56.9501 150.153 57.5196 151.35C58.0939 152.541 59.0917 154.112 60.5956 155.456C61.3403 156.13 62.1287 156.681 62.888 157.105C63.6473 157.528 64.3627 157.848 65.0003 158.006C66.2804 158.35 67.0883 157.966 67.0883 158.016L67.0786 158.025Z" fill="#263238"></path><path d="M102.321 181.746C102.321 181.746 102.156 181.677 101.874 181.514C101.591 181.352 101.202 181.096 100.73 180.756C99.7905 180.077 98.5689 179.013 97.4494 177.625C96.3348 176.236 95.5512 174.809 95.0791 173.74C94.8455 173.209 94.6752 172.766 94.5729 172.455C94.4707 172.145 94.4221 171.973 94.4367 171.968C94.4756 171.953 94.7287 172.628 95.2397 173.667C95.7459 174.705 96.5441 176.094 97.6441 177.462C98.7489 178.831 99.9316 179.899 100.837 180.608C101.737 181.322 102.341 181.706 102.317 181.746H102.321Z" fill="#263238"></path><path d="M134.985 166.395C134.985 166.395 135.019 166.582 135.033 166.916C135.048 167.251 135.062 167.739 135.058 168.339C135.048 169.536 134.994 171.214 134.585 173.016C134.182 174.823 133.437 176.339 132.799 177.359C132.473 177.866 132.196 178.264 131.982 178.52C131.772 178.781 131.651 178.924 131.636 178.909C131.597 178.88 132.045 178.289 132.644 177.265C133.232 176.236 133.938 174.734 134.332 172.962C134.732 171.19 134.814 169.536 134.873 168.339C134.921 167.143 134.936 166.399 134.975 166.399L134.985 166.395Z" fill="#263238"></path><path d="M155.587 140.941C155.587 140.941 155.67 140.971 155.816 141.05C155.962 141.133 156.181 141.247 156.444 141.414C156.974 141.759 157.724 142.3 158.512 143.122C159.301 143.945 160.118 145.047 160.79 146.401C161.126 147.076 161.423 147.814 161.69 148.592C161.944 149.375 162.163 150.197 162.343 151.049C163.039 154.47 163.005 157.646 162.936 159.915C162.898 161.053 162.844 161.968 162.8 162.604C162.781 162.894 162.761 163.135 162.747 163.332C162.732 163.5 162.717 163.588 162.713 163.588C162.703 163.588 162.698 163.5 162.698 163.332C162.698 163.135 162.698 162.894 162.703 162.599C162.717 161.924 162.737 161.018 162.756 159.911C162.776 157.646 162.781 154.49 162.09 151.103C161.909 150.261 161.695 149.449 161.447 148.676C161.184 147.908 160.897 147.179 160.576 146.51C159.924 145.17 159.14 144.073 158.381 143.25C157.622 142.423 156.896 141.872 156.39 141.503C155.869 141.153 155.577 140.966 155.587 140.946V140.941Z" fill="#263238"></path><path d="M149.897 146.402C149.897 146.402 150.068 146.235 150.399 145.969C150.73 145.708 151.202 145.314 151.776 144.817C152.915 143.822 154.414 142.35 155.85 140.534C157.281 138.712 158.366 136.905 159.067 135.561C159.422 134.887 159.695 134.335 159.87 133.946C160.05 133.562 160.162 133.351 160.177 133.356C160.191 133.36 160.114 133.587 159.963 133.986C159.812 134.385 159.564 134.956 159.228 135.64C158.561 137.018 157.49 138.855 156.049 140.691C154.604 142.523 153.071 143.99 151.893 144.955C151.304 145.437 150.812 145.811 150.462 146.048C150.112 146.289 149.912 146.417 149.902 146.402H149.897Z" fill="#263238"></path><path d="M146.967 79.1602C146.967 79.1602 147.011 79.2192 147.075 79.3472C147.133 79.4752 147.23 79.6574 147.328 79.9036C147.537 80.391 147.8 81.1196 148.024 82.0501C148.486 83.8963 148.705 86.6139 147.975 89.4595C147.245 92.3052 145.741 94.5748 144.451 95.9582C143.809 96.6573 143.23 97.1644 142.806 97.4893C142.602 97.6567 142.426 97.7699 142.314 97.8487C142.198 97.9275 142.139 97.9668 142.13 97.957C142.115 97.9422 142.344 97.7551 142.743 97.4105C143.142 97.0659 143.697 96.5391 144.315 95.8351C145.556 94.4369 147.006 92.1919 147.727 89.3955C148.447 86.5991 148.257 83.9258 147.844 82.0895C147.644 81.1688 147.41 80.4353 147.23 79.938C147.05 79.4408 146.943 79.1651 146.958 79.1602H146.967Z" fill="#263238"></path><path d="M155.587 84.0192C155.587 84.0635 155.1 84.0537 154.341 84.1669C153.577 84.2801 152.54 84.5509 151.494 85.0924C150.447 85.6389 149.625 86.3331 149.09 86.8943C148.554 87.4556 148.282 87.8593 148.243 87.8347C148.218 87.8199 148.442 87.3817 148.958 86.7713C149.469 86.1657 150.301 85.4223 151.377 84.8611C152.453 84.3047 153.533 84.0487 154.317 83.9847C155.105 83.9158 155.587 83.9896 155.587 84.0143V84.0192Z" fill="#263238"></path><path d="M171.293 137.594C171.293 137.594 171.318 137.471 171.386 137.245C171.449 137.018 171.576 136.693 171.688 136.26C171.941 135.403 172.237 134.138 172.427 132.553C172.617 130.967 172.676 129.052 172.418 126.955C172.169 124.863 171.595 122.588 170.592 120.373C170.086 119.27 169.497 118.236 168.865 117.286C168.217 116.341 167.521 115.484 166.816 114.706C165.375 113.18 163.886 111.993 162.537 111.161C161.189 110.329 160.021 109.788 159.194 109.473C158.785 109.295 158.454 109.207 158.235 109.118C158.016 109.039 157.899 108.99 157.904 108.985C157.904 108.975 158.026 109.005 158.249 109.069C158.473 109.143 158.809 109.217 159.228 109.379C160.07 109.665 161.262 110.187 162.63 111.004C164.002 111.821 165.521 113.003 166.986 114.539C167.706 115.317 168.412 116.183 169.069 117.138C169.711 118.098 170.31 119.142 170.821 120.259C171.838 122.499 172.413 124.804 172.651 126.921C172.899 129.042 172.822 130.972 172.607 132.567C172.393 134.163 172.062 135.428 171.785 136.284C171.658 136.718 171.517 137.038 171.439 137.259C171.357 137.481 171.308 137.594 171.298 137.589L171.293 137.594Z" fill="#263238"></path><path d="M171.264 106.08C171.293 106.085 171.22 106.563 170.967 107.301C170.714 108.035 170.261 109.024 169.57 109.994C168.879 110.964 168.096 111.712 167.477 112.18C166.859 112.648 166.431 112.864 166.416 112.84C166.363 112.771 168.023 111.771 169.366 109.851C170.734 107.951 171.181 106.051 171.264 106.085V106.08Z" fill="#263238"></path><path d="M120.12 65.7442C120.12 65.7442 120.208 65.9214 120.315 66.2562C120.374 66.4236 120.437 66.6304 120.49 66.8765C120.549 67.1227 120.627 67.3984 120.67 67.7085C120.792 68.3289 120.87 69.0821 120.889 69.9191C120.899 70.756 120.841 71.6816 120.685 72.6318C120.515 73.5869 120.262 74.473 119.974 75.2558C119.673 76.0386 119.351 76.718 119.03 77.2645C118.884 77.5451 118.719 77.7765 118.582 77.9882C118.451 78.1999 118.32 78.3722 118.208 78.5101C117.993 78.7858 117.867 78.9335 117.852 78.9236C117.813 78.8941 118.286 78.2787 118.87 77.1759C119.166 76.6294 119.468 75.95 119.751 75.1771C120.023 74.3992 120.266 73.5278 120.432 72.5875C120.588 71.6471 120.651 70.7412 120.656 69.9191C120.646 69.0969 120.588 68.3535 120.495 67.7332C120.31 66.4974 120.072 65.754 120.116 65.7393L120.12 65.7442Z" fill="#263238"></path><g opacity="0.3"><path d="M120.748 153.589C121.181 152.491 121.318 150.906 120.242 150.433C119.507 150.108 118.685 150.561 118.018 151.009C115.906 152.422 115.283 153.358 113.195 154.731C111.705 155.711 109.5 156.774 107.885 156.026C106.093 155.199 106.064 152.649 105.018 150.96C104.692 150.438 104.171 149.951 103.563 149.995C102.905 150.04 102.112 150.625 102 151.285C101.888 151.94 102.083 152.757 102.107 153.422C102.185 155.485 102.19 156.558 102.01 158.168C101.927 158.571 101.864 159.005 101.825 159.463C100.083 159.339 98.3012 159.32 96.7339 159.221C96.3446 159.197 95.9017 159.202 95.6291 159.522C95.4247 159.758 95.3614 160.112 95.3176 160.442C95.2397 161.013 95.1862 161.589 95.1521 162.165C87.0338 162.21 79.3681 161.742 72.1891 157.754C64.465 153.461 60.7659 146.524 60.7659 136.835C60.7659 136.835 60.8049 133.931 56.6922 133.872C52.1511 133.808 52.2193 138.913 52.2193 138.913C51.3773 149.404 58.235 159.418 67.2295 164.716C76.0098 169.885 86.4692 171.259 96.6415 171.298C96.8556 171.569 97.1038 171.795 97.4007 171.958C98.0335 172.297 98.7635 172.283 99.4595 172.214C101.309 172.036 103.129 171.544 104.862 170.786C105.3 171.16 105.938 171.584 107.169 171.8C109.437 172.189 111.165 172.361 113.443 172.032C114.854 171.825 117.098 170.968 117.517 169.59C117.648 169.161 117.643 168.689 117.852 168.295C117.857 168.285 117.867 168.28 117.872 168.27C118.032 168.093 118.188 167.916 118.334 167.729C118.427 167.645 118.519 167.561 118.607 167.473C119.575 166.518 119.809 163.509 118.777 162.604C118.928 162.397 119.074 162.185 119.205 161.968L118.884 162.308C120.038 160.551 119.858 159.019 118.315 157.483C118.334 157.454 118.359 157.424 118.378 157.39L118.305 157.469C119.502 155.741 120.008 155.475 120.748 153.609V153.589Z" fill="black"></path></g><path d="M60.7708 134.433C60.7708 144.122 64.4698 151.059 72.1939 155.352C79.9181 159.645 88.2116 159.857 97.026 159.743C97.1476 162.796 97.2742 165.843 97.3959 168.896C86.99 168.925 76.2336 167.611 67.2392 162.313C58.2448 157.016 51.387 147.007 52.229 136.511C52.229 136.511 52.1609 131.405 56.7019 131.469C60.8146 131.528 60.7757 134.433 60.7757 134.433H60.7708Z" fill="#263238"></path><path d="M120.247 148.036C119.512 147.711 118.689 148.164 118.023 148.612C115.91 150.025 115.287 150.96 113.199 152.334C111.71 153.313 109.505 154.377 107.889 153.628C106.098 152.801 106.069 150.251 105.023 148.562C104.697 148.041 104.176 147.553 103.567 147.598C102.91 147.642 102.117 148.228 102.005 148.887C101.893 149.542 102.088 150.359 102.112 151.024C102.19 153.087 102.195 154.16 102.015 155.77C101.835 157.375 101.494 160.339 102.39 161.678C102.842 163.879 103.387 165.351 104.346 167.379C104.599 167.921 103.801 167.502 104.278 167.861C104.789 168.246 105.281 169.073 107.179 169.402C109.447 169.791 111.175 169.964 113.452 169.634C114.864 169.427 117.108 168.57 117.526 167.192C117.658 166.764 117.653 166.291 117.862 165.897C118.037 165.567 118.344 165.336 118.612 165.07C119.6 164.095 119.828 160.989 118.724 160.147C120.067 158.281 119.935 156.676 118.305 155.061C119.502 153.333 120.008 153.067 120.748 151.201C121.181 150.103 121.318 148.518 120.242 148.046L120.247 148.036Z" fill="white"></path><path d="M106.303 158.448C105.952 158.753 105.709 157.606 105.281 157.508C102.643 156.927 99.3865 156.976 96.7437 156.814C96.3543 156.789 95.9114 156.794 95.6388 157.114C95.4344 157.35 95.3711 157.705 95.3273 158.035C94.9672 160.723 95.0499 163.49 95.5707 166.143C95.8384 167.497 96.3202 168.959 97.4105 169.55C98.0432 169.89 98.7733 169.875 99.4692 169.806C103.353 169.427 107.135 167.699 110.187 164.902L106.308 158.438L106.303 158.448Z" fill="white"></path><path d="M104.288 168.083C104.288 168.083 104.166 167.95 103.976 167.684C103.879 167.556 103.782 167.379 103.665 167.182C103.543 166.985 103.426 166.748 103.305 166.488C102.793 165.439 102.287 163.898 101.971 162.15C101.664 160.398 101.606 158.778 101.698 157.616C101.718 157.325 101.742 157.065 101.781 156.833C101.815 156.602 101.84 156.405 101.878 156.247C101.951 155.927 101.995 155.755 102.015 155.76C102.059 155.77 101.917 156.474 101.878 157.621C101.83 158.773 101.917 160.368 102.224 162.101C102.536 163.829 103.008 165.355 103.47 166.409C103.918 167.467 104.327 168.058 104.288 168.083Z" fill="#263238"></path><path d="M116.83 162.062C116.791 161.998 117.419 161.545 118.071 160.856C118.728 160.172 119.152 159.517 119.215 159.556C119.274 159.586 118.938 160.324 118.256 161.033C117.58 161.747 116.864 162.121 116.835 162.062H116.83Z" fill="#263238"></path><path d="M116.451 167.098C116.412 167.034 117.04 166.581 117.692 165.892C118.349 165.208 118.772 164.553 118.836 164.593C118.894 164.622 118.558 165.361 117.877 166.069C117.2 166.783 116.485 167.158 116.455 167.098H116.451Z" fill="#263238"></path><path d="M116.003 157.483C115.964 157.419 116.592 156.966 117.244 156.277C117.901 155.593 118.324 154.938 118.388 154.977C118.446 155.007 118.11 155.745 117.429 156.454C116.752 157.168 116.037 157.542 116.008 157.483H116.003Z" fill="#263238"></path><path d="M95.6729 109.059C95.522 110.196 91.5894 110.546 87.2139 112.087C82.8043 113.539 79.4703 115.676 78.6672 114.863C78.3022 114.469 78.7207 113.337 79.9667 111.993C81.1981 110.654 83.3056 109.172 85.9387 108.271C88.5718 107.375 91.1368 107.262 92.923 107.572C94.719 107.877 95.7313 108.522 95.6729 109.059Z" fill="#263238"></path><path d="M137.744 90.7152C136.893 91.5965 133.651 90.5921 129.733 90.4641C125.82 90.2229 122.481 90.9171 121.736 89.957C121.41 89.4943 121.95 88.6032 123.42 87.781C124.866 86.9637 127.275 86.3188 129.967 86.4419C132.658 86.5699 134.975 87.4364 136.323 88.3865C137.691 89.3416 138.124 90.282 137.749 90.7103L137.744 90.7152Z" fill="#263238"></path><path d="M138.659 107.853C145.045 110.378 148.082 117.97 145.444 124.808C142.801 131.647 135.481 135.147 129.095 132.621C122.71 130.096 119.673 122.504 122.311 115.666C124.953 108.828 132.274 105.327 138.659 107.853Z" fill="white"></path><path d="M138.888 107.257C145.274 109.782 148.608 116.611 146.33 122.509C144.052 128.407 137.024 131.144 130.638 128.619C124.253 126.093 120.919 119.264 123.196 113.366C125.474 107.468 132.502 104.731 138.888 107.257Z" fill="#263238"></path><path d="M100.107 116.606C105.3 121.135 105.67 129.318 100.929 134.881C96.1888 140.444 88.1337 141.276 82.9405 136.747C77.7473 132.217 77.3774 124.035 82.118 118.477C86.8586 112.913 94.9136 112.076 100.107 116.611V116.606Z" fill="white"></path><path d="M100.521 116.124C105.714 120.653 106.609 128.215 102.521 133.01C98.4326 137.806 90.908 138.022 85.7148 133.493C80.5216 128.963 79.626 121.401 83.7144 116.606C87.8028 111.811 95.3273 111.594 100.521 116.124Z" fill="#263238"></path><g opacity="0.3"><path d="M113.156 136.112C111.759 137.096 111.88 138.47 111.905 140.193C111.914 141.001 112.153 141.606 112.63 142.256C113.107 142.906 113.886 143.354 114.684 143.319C116.022 143.265 117.234 142.074 117.818 140.858C118.694 139.031 118.918 136.983 119.05 134.955C117.356 134.743 114.557 135.127 113.16 136.112H113.156Z" fill="black"></path></g><path d="M117.813 140.858C117.813 140.858 117.794 140.927 117.731 141.04C117.667 141.153 117.565 141.316 117.419 141.518C117.117 141.912 116.645 142.448 115.92 142.985C115.545 143.231 115.083 143.443 114.548 143.492C114.017 143.551 113.414 143.394 112.937 143.01C112.46 142.63 112.104 142.059 111.944 141.424C111.778 140.789 111.773 140.11 111.803 139.435C111.832 138.761 111.91 138.081 112.158 137.466C112.406 136.851 112.834 136.353 113.302 135.994C114.256 135.265 115.321 135.004 116.188 134.891C117.064 134.778 117.774 134.793 118.261 134.803C118.748 134.817 119.02 134.837 119.02 134.852C119.02 134.871 118.748 134.881 118.261 134.901C117.774 134.921 117.069 134.935 116.212 135.068C115.365 135.206 114.338 135.482 113.443 136.181C113 136.531 112.61 136.988 112.382 137.56C112.153 138.131 112.075 138.776 112.046 139.445C112.017 140.11 112.022 140.765 112.172 141.36C112.318 141.956 112.64 142.478 113.068 142.827C113.496 143.182 114.027 143.33 114.514 143.285C115.005 143.251 115.448 143.064 115.808 142.837C116.509 142.35 117.01 141.828 117.327 141.464C117.643 141.089 117.779 140.853 117.799 140.868L117.813 140.858Z" fill="#263238"></path><path d="M96.1839 210.33C92.0761 209.611 87.7346 209.537 83.6803 210.512C81.5729 211.019 79.4459 211.679 77.7181 212.998C75.9903 214.318 74.5788 215.686 74.7443 217.867L106.424 217.902C106.424 214.007 100.292 211.049 96.1839 210.33Z" fill="#263238"></path><path d="M131.169 210.192C135.277 209.473 139.618 209.399 143.672 210.374C145.78 210.881 147.907 211.541 149.635 212.861C151.362 214.18 152.652 215.686 152.487 217.872L120.928 217.764C120.928 213.87 127.061 210.911 131.169 210.192Z" fill="#263238"></path><path d="M84.425 72.3372C84.425 72.3372 84.0454 72.1796 83.3688 71.9088C82.6874 71.6331 81.6751 71.3082 80.3902 71.0867C79.1052 70.8651 77.538 70.7864 75.8248 71.0227C74.1165 71.2541 72.2767 71.8252 70.5489 72.8196C68.8308 73.8338 67.4193 75.1582 66.368 76.5367C65.3118 77.9152 64.5866 79.3232 64.134 80.5639C63.6765 81.7996 63.4477 82.8532 63.3407 83.5818C63.2287 84.3154 63.1995 84.724 63.1752 84.724C63.1654 84.724 63.1654 84.6206 63.1752 84.4237C63.1898 84.2267 63.1849 83.9363 63.2433 83.567C63.3212 82.8285 63.5256 81.7602 63.9685 80.4999C64.4066 79.2395 65.122 77.8019 66.1831 76.3939C67.2441 74.9859 68.675 73.632 70.4223 72.5981C72.1842 71.5839 74.0581 71.0128 75.7907 70.7913C77.5283 70.5648 79.1199 70.6633 80.4145 70.9094C81.714 71.1556 82.7313 71.5101 83.4029 71.8153C83.7436 71.9532 83.9918 72.1009 84.167 72.1845C84.3374 72.2732 84.425 72.3273 84.425 72.3322V72.3372Z" fill="#263238"></path><g opacity="0.3"><path d="M114.552 87.8298C115.039 84.2949 113.803 80.5582 111.316 78.0228C108.829 75.4922 105.144 74.2171 101.645 74.6897C101.64 71.2287 101.63 67.7628 101.621 64.3018C101.621 64.3018 104.259 64.8384 104.307 72.3364C104.307 72.3364 110.537 71.7309 113.988 77.7471C117.439 83.7632 114.552 87.8347 114.552 87.8347V87.8298Z" fill="black"></path></g><path d="M105.694 102.797C105.694 102.797 105.694 102.649 105.719 102.373C105.733 102.231 105.748 102.058 105.762 101.861C105.787 101.659 105.806 101.428 105.797 101.167C105.84 100.118 105.728 98.5874 105.212 96.7855C105.11 96.3276 104.906 95.8796 104.735 95.3971C104.551 94.9196 104.312 94.4469 104.074 93.9546C103.791 93.4869 103.548 92.97 103.197 92.5023C103.032 92.261 102.871 92.0149 102.691 91.7736C102.501 91.5422 102.312 91.3059 102.117 91.0696C101.304 90.1539 100.384 89.2283 99.2697 88.4948C98.1649 87.7514 96.9238 87.1261 95.5756 86.7175C94.2176 86.3384 92.8403 86.1907 91.5115 86.2301C90.1779 86.2498 88.9174 86.5304 87.7444 86.8701C87.4524 86.9686 87.1701 87.0621 86.8829 87.1557C86.6055 87.259 86.3378 87.387 86.0701 87.5003C85.525 87.707 85.048 88.0123 84.5613 88.2585C84.1038 88.5489 83.6463 88.8197 83.2423 89.1249C82.8481 89.4449 82.4392 89.7108 82.1083 90.0407C80.726 91.2862 79.8207 92.522 79.3048 93.4278C79.1588 93.6445 79.0517 93.8512 78.969 94.0334C78.8814 94.2106 78.8035 94.3583 78.7402 94.4912C78.6137 94.7374 78.5455 94.8654 78.5358 94.8605C78.5261 94.8605 78.5845 94.7226 78.6915 94.4666C78.7499 94.3337 78.823 94.1762 78.9008 93.9989C78.9787 93.8118 79.0809 93.6001 79.2221 93.3737C79.7136 92.4432 80.6043 91.1779 81.9915 89.8979C82.3224 89.5582 82.7313 89.2825 83.1304 88.9575C83.5392 88.6474 83.9967 88.3668 84.4591 88.0664C84.9507 87.8154 85.4325 87.5003 85.9825 87.2886C86.255 87.1753 86.5227 87.0473 86.805 86.9341C87.0922 86.8356 87.3842 86.7372 87.6762 86.6387C88.8638 86.2892 90.1487 85.9938 91.5018 85.9741C92.85 85.9347 94.2566 86.0775 95.6437 86.4664C97.0211 86.8849 98.2866 87.52 99.406 88.2831C100.54 89.0314 101.47 89.9767 102.292 90.9121C102.487 91.1533 102.682 91.3945 102.871 91.6309C103.051 91.877 103.212 92.1281 103.382 92.3743C103.733 92.8518 103.976 93.3786 104.259 93.8561C104.492 94.3583 104.731 94.8408 104.916 95.3282C105.081 95.8205 105.281 96.2734 105.383 96.7362C105.879 98.5627 105.967 100.118 105.894 101.172C105.894 101.438 105.865 101.669 105.835 101.871C105.806 102.068 105.787 102.235 105.767 102.383C105.728 102.659 105.704 102.802 105.694 102.802V102.797Z" fill="#263238"></path><path d="M60.1576 117.881C60.1576 117.881 60.0651 117.871 59.8947 117.832C59.7292 117.788 59.4713 117.743 59.1598 117.63C58.5271 117.438 57.6267 117.069 56.6143 116.448C55.5971 115.828 54.4776 114.917 53.4701 113.691C52.4626 112.47 51.5914 110.915 51.095 109.142C50.6229 107.36 50.5791 105.573 50.8273 104.003C51.0706 102.427 51.5671 101.068 52.1268 100.01C52.6865 98.9464 53.2657 98.1685 53.7135 97.6713C53.9228 97.4153 54.1223 97.243 54.244 97.1199C54.3706 96.9968 54.4387 96.9377 54.4436 96.9427C54.463 96.9574 54.2051 97.2233 53.7865 97.7353C53.3679 98.2473 52.8131 99.035 52.2826 100.089C51.752 101.142 51.2799 102.486 51.0512 104.037C50.8224 105.583 50.8711 107.331 51.3335 109.073C51.8202 110.806 52.6671 112.338 53.6454 113.544C54.6236 114.755 55.709 115.666 56.7019 116.296C57.6899 116.926 58.566 117.315 59.189 117.536C59.8071 117.758 60.1624 117.856 60.1527 117.876L60.1576 117.881Z" fill="#263238"></path><path d="M42.2904 99.774C42.2904 99.7445 42.8306 99.7642 43.6775 99.9365C44.5244 100.104 45.6828 100.453 46.8752 101.044C48.0628 101.635 49.0459 102.349 49.6981 102.925C50.3503 103.501 50.6959 103.919 50.6764 103.939C50.6472 103.969 50.2578 103.599 49.5862 103.068C48.9145 102.536 47.9362 101.861 46.7681 101.276C45.6 100.695 44.4708 100.325 43.6434 100.114C42.816 99.8971 42.2904 99.8134 42.2952 99.774H42.2904Z" fill="#263238"></path><path d="M113.326 92.3691C113.311 92.4134 112.786 92.2411 111.919 92.0885C111.053 91.9359 109.831 91.8275 108.503 91.9949C107.169 92.1623 106.011 92.5709 105.217 92.9451C104.419 93.3193 103.957 93.6294 103.932 93.5901C103.923 93.5753 104.03 93.4867 104.229 93.339C104.429 93.1864 104.74 92.9944 105.135 92.7827C105.923 92.3593 107.106 91.9112 108.469 91.7389C109.831 91.5715 111.082 91.7094 111.953 91.9112C112.391 92.0146 112.737 92.118 112.971 92.2066C113.204 92.2952 113.331 92.3494 113.326 92.3691Z" fill="#263238"></path><g opacity="0.3"><path d="M109.461 89.7801C107.602 89.4453 105.631 89.7801 103.981 90.7155C101.26 86.004 95.6729 83.1535 90.3093 83.7492C84.9458 84.34 80.7309 88.5198 79.0809 93.7138C81.826 88.5346 86.5763 86.4865 91.5845 86.3388C96.5928 86.196 101.698 88.9826 103.918 93.5267C107.028 91.7346 110.907 91.3802 114.285 92.5716C113.058 91.1192 111.321 90.1149 109.461 89.7801Z" fill="black"></path></g><g opacity="0.3"><path d="M55.9037 95.8252C52.9932 96.0123 50.214 97.7059 48.7004 100.227C46.7389 99.2813 44.466 99.1927 42.3682 99.7736C45.6146 100.069 48.8172 101.758 50.949 104.273C50.7737 100.807 52.8131 97.3317 55.9037 95.8252Z" fill="black"></path></g><g opacity="0.3"><path d="M172.997 117.354C170.184 112.554 164.061 108.96 158.551 109.157L158.415 109.147C162.786 110.821 167.726 114.322 170.339 119.732C172.388 123.981 173.245 129.436 172.403 134.088C175.211 129.288 175.81 122.155 172.997 117.354Z" fill="black"></path></g><path d="M174.574 189.007C174.627 188.608 174.671 188.204 174.681 187.801C174.705 186.604 174.807 185.6 174.491 184.276C174.272 183.35 173.829 182.415 173.498 182.016C174.194 180.45 174.647 178.801 174.827 177.127C174.895 176.497 174.919 175.832 174.622 175.256C174.111 174.262 172.817 173.804 171.619 173.543C169.273 173.036 166.816 172.928 164.426 173.223C164.129 173.257 163.817 173.312 163.603 173.494C163.316 173.74 163.306 174.139 163.321 174.493C163.379 175.724 163.555 177.782 163.413 179.795C162.202 180.248 161.077 180.972 160.138 181.932C160.128 181.942 160.118 181.952 160.104 181.967C159.023 183.059 156.502 184.797 156.502 184.797C155.787 185.285 155.339 185.792 155.29 186.388C155.246 186.939 155.514 187.426 155.976 187.727C157.466 188.697 160.795 186.255 160.795 186.255C160.795 186.255 160.216 188.091 159.33 189.435C157.836 191.7 159.009 189.804 156.726 193.251C156.492 193.605 155.757 194.521 156.049 195.481C156.356 196.485 157.067 196.608 158.045 196.229C159.7 195.584 161.861 193.26 163.301 192.084C162.907 192.576 160.965 195.402 160.644 195.919C160.191 196.643 159.739 197.238 159.948 197.844C160.157 198.449 161.019 198.656 161.652 198.612C162.167 198.573 162.596 198.213 162.98 197.864C164.066 196.869 165.492 195.107 166.431 193.969C165.993 194.979 164.947 196.958 164.664 198.021C164.557 198.415 164.27 199.267 164.45 199.631C164.752 200.251 165.633 200.291 166.266 200.035C167.088 199.705 168.208 198.385 168.689 197.637C169.171 196.889 169.497 196.052 169.819 195.22C169.819 195.22 169.692 195.825 169.536 196.175C169.381 196.524 168.972 197.544 168.967 197.928C168.962 198.312 168.534 199.744 169.137 200.138C169.95 200.665 170.636 199.793 170.85 199.528C172.262 197.736 173.075 195.289 173.644 193.6C174.15 192.108 174.36 190.567 174.564 189.007H174.574Z" fill="white"></path><path d="M174.574 189.007C174.574 189.007 174.569 189.115 174.545 189.332C174.515 189.553 174.476 189.868 174.423 190.282C174.301 191.109 174.136 192.355 173.615 193.871C173.362 194.629 173.08 195.471 172.705 196.367C172.33 197.263 171.873 198.228 171.22 199.163C170.889 199.607 170.549 200.163 169.911 200.35C169.59 200.434 169.244 200.345 168.986 200.104C168.753 199.823 168.738 199.464 168.748 199.144C168.758 198.814 168.816 198.489 168.869 198.164C168.884 198.085 168.894 198.002 168.894 197.928C168.894 197.834 168.913 197.746 168.933 197.662C168.972 197.494 169.02 197.327 169.074 197.165C169.181 196.84 169.308 196.515 169.444 196.195C169.585 195.885 169.668 195.545 169.741 195.2L169.916 195.254C169.541 196.224 169.147 197.263 168.451 198.164C168.11 198.612 167.731 199.045 167.302 199.444C167.088 199.641 166.859 199.833 166.601 199.991C166.339 200.153 166.042 200.251 165.73 200.281C165.424 200.315 165.097 200.281 164.801 200.128C164.655 200.05 164.523 199.936 164.431 199.794C164.328 199.661 164.294 199.454 164.299 199.296C164.309 198.967 164.392 198.661 164.47 198.361C164.552 198.066 164.635 197.755 164.747 197.455C165.195 196.264 165.803 195.121 166.339 193.925L166.528 194.043C165.774 194.964 165 195.914 164.158 196.84C163.735 197.302 163.302 197.76 162.805 198.184C162.557 198.39 162.275 198.587 161.939 198.681C161.593 198.77 161.262 198.74 160.926 198.681C160.6 198.607 160.26 198.474 160.016 198.189C159.768 197.898 159.734 197.475 159.846 197.135C159.953 196.795 160.138 196.505 160.318 196.219C160.493 195.934 160.683 195.658 160.878 195.382C161.647 194.275 162.425 193.147 163.214 192.005L163.389 192.182C162.08 193.275 160.863 194.565 159.398 195.614C159.033 195.875 158.644 196.116 158.22 196.298C157.802 196.475 157.334 196.633 156.833 196.515C156.585 196.456 156.366 196.293 156.22 196.091C156.069 195.889 155.981 195.663 155.923 195.427C155.801 194.939 155.923 194.432 156.132 194.009C157.695 191.311 159.89 189.105 160.693 186.225L160.887 186.368C160.24 186.821 159.573 187.225 158.868 187.55C158.167 187.87 157.412 188.14 156.609 188.081C156.21 188.032 155.816 187.83 155.558 187.52C155.29 187.215 155.154 186.791 155.193 186.383C155.227 185.969 155.451 185.605 155.714 185.329C155.977 185.049 156.288 184.822 156.585 184.62C157.772 183.778 158.941 182.937 159.953 181.986C160.931 180.962 162.124 180.175 163.394 179.707L163.321 179.805C163.413 178.466 163.375 177.147 163.306 175.867C163.287 175.547 163.272 175.227 163.253 174.912C163.243 174.597 163.194 174.277 163.263 173.942C163.297 173.774 163.375 173.607 163.501 173.479C163.628 173.351 163.788 173.277 163.944 173.228C164.26 173.139 164.562 173.125 164.859 173.09C167.263 172.844 169.556 173.021 171.619 173.464C172.637 173.696 173.673 174.006 174.374 174.754C174.725 175.123 174.91 175.621 174.949 176.093C174.992 176.571 174.934 177.034 174.88 177.477C174.647 179.249 174.136 180.785 173.566 182.06L173.557 181.996C173.922 182.479 174.131 182.996 174.316 183.488C174.491 183.98 174.603 184.458 174.671 184.906C174.807 185.802 174.764 186.57 174.744 187.18C174.73 187.791 174.681 188.254 174.647 188.564C174.613 188.874 174.588 189.031 174.588 189.031C174.588 189.031 174.588 188.874 174.613 188.564C174.637 188.254 174.676 187.791 174.681 187.18C174.691 186.57 174.725 185.807 174.579 184.925C174.506 184.482 174.394 184.015 174.214 183.532C174.034 183.055 173.81 182.538 173.464 182.08C173.449 182.06 173.449 182.036 173.454 182.016C174.009 180.746 174.506 179.219 174.725 177.462C174.778 177.024 174.832 176.571 174.788 176.118C174.749 175.665 174.579 175.217 174.253 174.877C173.6 174.183 172.593 173.873 171.585 173.651C169.541 173.218 167.263 173.056 164.883 173.307C164.586 173.346 164.28 173.361 164.007 173.44C163.73 173.513 163.525 173.71 163.477 173.996C163.418 174.277 163.457 174.592 163.477 174.912C163.496 175.227 163.516 175.547 163.53 175.867C163.603 177.152 163.642 178.481 163.555 179.835C163.555 179.879 163.521 179.919 163.482 179.933C162.24 180.396 161.092 181.159 160.123 182.168C159.087 183.143 157.923 183.985 156.731 184.837C156.429 185.044 156.142 185.25 155.899 185.511C155.655 185.767 155.47 186.078 155.446 186.417C155.417 186.762 155.529 187.106 155.757 187.367C155.986 187.633 156.303 187.796 156.653 187.84C157.364 187.894 158.099 187.643 158.78 187.328C159.466 187.013 160.128 186.614 160.756 186.171C160.814 186.127 160.892 186.142 160.931 186.201C160.956 186.235 160.96 186.274 160.946 186.314C160.712 187.023 160.435 187.717 160.104 188.396C159.783 189.081 159.349 189.716 158.926 190.341C158.717 190.661 158.478 190.966 158.264 191.267C158.05 191.582 157.836 191.892 157.622 192.207L156.984 193.162C156.77 193.492 156.541 193.787 156.38 194.127C156.186 194.521 156.088 194.964 156.191 195.373C156.293 195.786 156.526 196.19 156.921 196.278C157.31 196.377 157.753 196.244 158.142 196.077C158.541 195.904 158.916 195.673 159.276 195.417C160.712 194.388 161.929 193.108 163.258 192C163.311 191.956 163.389 191.966 163.433 192.015C163.467 192.059 163.472 192.123 163.438 192.168V192.177C162.649 193.31 161.871 194.427 161.106 195.53C160.912 195.801 160.722 196.081 160.552 196.367C160.376 196.648 160.201 196.928 160.109 197.219C160.011 197.509 160.045 197.824 160.23 198.041C160.415 198.262 160.707 198.39 161.004 198.454C161.301 198.514 161.627 198.538 161.905 198.464C162.187 198.386 162.445 198.208 162.683 198.011C163.16 197.608 163.594 197.15 164.012 196.692C164.849 195.771 165.623 194.826 166.378 193.91C166.416 193.861 166.489 193.856 166.538 193.896C166.577 193.93 166.592 193.984 166.572 194.033C166.032 195.245 165.419 196.382 164.976 197.549C164.864 197.839 164.786 198.134 164.703 198.435C164.621 198.73 164.547 199.031 164.538 199.316C164.513 199.602 164.689 199.823 164.927 199.956C165.166 200.084 165.458 200.119 165.735 200.089C166.305 200.05 166.777 199.69 167.195 199.311C167.614 198.927 167.984 198.499 168.324 198.061C169.006 197.189 169.395 196.17 169.775 195.205C169.794 195.156 169.843 195.131 169.892 195.151C169.935 195.166 169.96 195.215 169.95 195.259C169.872 195.614 169.785 195.958 169.639 196.288C169.502 196.603 169.376 196.923 169.269 197.243C169.215 197.401 169.166 197.563 169.132 197.721C169.113 197.8 169.103 197.878 169.098 197.952C169.098 198.046 169.084 198.13 169.069 198.213C169.016 198.543 168.957 198.858 168.947 199.173C168.933 199.479 168.962 199.808 169.137 200.015C169.337 200.197 169.643 200.291 169.906 200.217C170.461 200.064 170.807 199.538 171.133 199.099C171.78 198.184 172.242 197.229 172.622 196.342C173.002 195.451 173.294 194.614 173.552 193.861C174.087 192.36 174.267 191.124 174.403 190.297C174.467 189.888 174.515 189.573 174.549 189.351C174.583 189.14 174.608 189.031 174.608 189.031L174.574 189.007Z" fill="#263238"></path><path d="M173.552 182.056C173.522 182.09 173.055 181.672 172.228 181.11C171.4 180.559 170.164 179.904 168.675 179.614C167.185 179.328 165.798 179.446 164.815 179.599C163.832 179.756 163.229 179.924 163.219 179.88C163.219 179.865 163.36 179.806 163.628 179.717C163.895 179.624 164.29 179.525 164.786 179.417C165.769 179.22 167.19 179.067 168.723 179.358C170.257 179.658 171.517 180.357 172.33 180.958C172.739 181.263 173.05 181.524 173.255 181.726C173.459 181.923 173.566 182.036 173.557 182.051L173.552 182.056Z" fill="#263238"></path></g><defs><clipPath id="clip0_2067_5189"><rect width="215" height="218" fill="white"></rect></clipPath></defs></svg> 