<?xml version="1.0" encoding="UTF-8"?> <svg xmlns="http://www.w3.org/2000/svg" width="133" height="226" viewBox="0 0 133 226" fill="none"><path d="M28.1559 154.896C28.3089 154.522 28.471 154.144 28.725 153.811C29.4344 152.877 30.786 152.423 32.0949 152.382C33.4038 152.34 34.6954 152.649 35.9628 152.957C36.4274 153.069 37.5234 153.144 37.7728 153.554C37.7825 153.571 37.7832 153.588 37.7908 153.604C38.2021 153.586 38.6121 153.584 39.0193 153.614C37.3174 152.39 35.9704 151.207 34.9262 150.027C34.3491 150.157 33.5784 150.055 33.1049 149.968C32.2281 149.805 31.3953 149.445 30.7157 148.935C29.4988 148.024 28.7684 146.693 28.535 145.333C28.3739 144.396 28.4498 143.397 28.9973 142.585C29.5426 141.772 30.6334 141.19 31.7261 141.33C32.702 141.454 33.4904 142.094 34.0765 142.78C34.6891 143.496 35.1513 144.3 35.4565 145.144C35.7256 145.889 35.8717 146.667 35.8886 147.444C35.9015 148.063 35.9594 149.213 35.5069 149.728C35.4526 149.789 35.3881 149.839 35.3152 149.883C36.2734 150.951 37.4874 152.024 38.9968 153.132C38.9606 152.805 38.9827 152.476 39.0271 152.145C39.017 152.133 39.0041 152.128 38.9942 152.114C38.6627 151.675 38.5922 150.899 38.5294 150.393C38.3843 149.247 38.5509 148.077 39.0315 147.009C39.4739 146.022 40.214 145.095 41.2981 144.591C42.3822 144.088 43.8428 144.094 44.7956 144.79C45.8133 145.534 46.0087 146.87 45.5597 147.932C45.1087 148.993 44.1366 149.822 43.1066 150.522C42.3441 151.042 41.5326 151.51 40.6858 151.923C40.3044 152.109 39.8233 152.389 39.43 152.353C39.3902 152.733 39.3996 153.111 39.4831 153.481C40.9977 154.555 42.7919 155.667 44.8971 156.839C45.2337 156.299 45.5866 155.803 45.9436 155.335C45.712 154.364 45.8856 153.343 46.3255 152.436C46.7794 151.496 47.5019 150.668 48.3253 149.936C49.0785 149.267 49.9582 148.656 51.0119 148.424C52.0678 148.193 53.3262 148.423 53.9911 149.177C54.5565 149.82 54.5869 150.724 54.2549 151.466C53.923 152.208 53.2777 152.813 52.584 153.336C51.2539 154.337 49.6878 155.106 48.0003 155.581C47.5961 155.696 46.6265 155.959 46.1819 155.693C45.8668 156.115 45.5566 156.555 45.2566 157.033C47.1779 158.091 49.3488 159.2 51.8032 160.379C51.9057 160.429 52.0057 160.482 52.1083 160.532C52.1909 160.121 52.3202 159.737 52.4706 159.366C51.8712 158.806 52.0661 157.336 52.2561 156.817C52.6298 155.8 53.4561 154.958 54.3284 154.201C55.0923 153.537 55.9455 152.897 57.0007 152.649C58.0537 152.4 59.35 152.656 59.9301 153.462C60.6078 154.402 60.0472 155.671 59.1 156.393C58.1526 157.117 56.9077 157.473 55.7872 157.985C55.1841 158.26 54.6123 158.585 54.0793 158.951C53.7736 159.161 53.3058 159.647 52.8418 159.553C52.6958 159.925 52.5708 160.311 52.4991 160.725C52.6995 160.828 52.8974 160.934 53.093 161.04C53.1102 161.047 53.1295 161.057 53.1442 161.067C55.0999 162.14 56.793 163.363 58.2399 164.627C58.4741 164.111 58.7481 163.651 59.0396 163.22C58.8678 162.814 58.9836 162.202 59.2097 161.651C59.6336 160.621 60.1477 159.604 60.9267 158.742C61.7056 157.881 62.7757 157.18 64.0197 156.937C64.5205 156.839 65.0591 156.818 65.5498 156.964C65.9992 157.098 66.3795 157.361 66.7467 157.62C67.1012 157.871 67.464 158.13 67.6903 158.472C68.1726 159.2 67.9183 160.15 67.3143 160.793C66.7126 161.435 65.8273 161.831 64.951 162.174C63.4889 162.747 61.9716 163.237 60.4203 163.607C59.8971 163.732 59.5419 163.692 59.3117 163.548C59.0391 163.967 58.7839 164.416 58.5665 164.917C58.7687 165.101 58.9688 165.284 59.1622 165.467C59.1854 165.482 59.204 165.499 59.2199 165.521C60.3776 166.627 61.3546 167.735 62.1704 168.777C62.5072 168.567 62.8291 168.375 63.1433 168.194C63.3277 167.714 64.0264 167.135 64.2438 166.889C64.8225 166.229 65.4131 165.561 66.1746 165.053C66.936 164.546 67.9031 164.209 68.8694 164.315C70.1116 164.451 71.1913 165.379 71.3434 166.445C71.4955 167.511 70.7072 168.608 69.5359 168.962C68.3738 169.312 67.0936 168.973 65.8627 168.836C65.2626 168.77 63.7294 169.035 63.2795 168.727C63.2332 168.696 63.2006 168.661 63.1726 168.625C62.9237 168.771 62.6725 168.919 62.4109 169.083C62.457 169.142 62.4987 169.201 62.5426 169.26C62.5552 169.268 62.57 169.277 62.5823 169.289C62.6026 169.312 62.616 169.338 62.6225 169.365C64.6286 172.058 65.5018 174.153 65.5203 174.196C65.5497 174.267 65.5254 174.341 65.4657 174.388C65.4441 174.405 65.4185 174.419 65.3911 174.426C65.2814 174.457 65.1588 174.408 65.1204 174.311C65.104 174.27 64.2695 172.268 62.3552 169.672C62.1025 169.837 61.868 169.997 61.6426 170.155C61.7133 170.494 61.4103 170.981 61.2258 171.359C60.749 172.332 60.6112 173.402 60.3869 174.442C60.3125 174.785 60.2267 175.131 60.0395 175.438C59.7744 175.873 59.3251 176.198 58.8838 176.508C58.5112 176.771 58.091 177.042 57.6043 177.031C57.3198 177.024 57.0485 176.917 56.8062 176.783C55.7666 176.213 55.1639 175.104 55.3278 174.067C55.5491 172.678 56.9339 171.689 58.2241 170.839C58.9589 170.356 59.8861 169.71 60.8846 169.754C61.1109 169.764 61.2747 169.802 61.3922 169.859C61.6247 169.696 61.8662 169.532 62.1235 169.366C61.2727 168.241 60.2208 167.02 58.9524 165.805C58.5364 165.824 58.1397 165.879 57.7562 165.959C57.7403 166.04 57.6939 166.137 57.6044 166.269C56.8857 167.309 55.9915 168.241 55.3171 169.309C54.4748 170.641 53.8624 172.122 52.6339 173.209C52.04 173.736 51.1756 174.173 50.3512 173.946C49.8966 173.821 49.5383 173.51 49.2672 173.171C48.2407 171.889 48.2905 170.117 49.1513 168.776C50.0143 167.435 51.5813 166.502 53.2827 166.021C53.8673 165.855 54.4723 165.737 55.0862 165.671C55.6954 165.606 56.3113 165.594 56.9249 165.632C57.0932 165.644 57.244 165.652 57.3696 165.667C57.761 165.572 58.166 165.499 58.5902 165.462C57.0342 164.021 55.166 162.608 52.9531 161.393C52.3258 161.436 51.7399 161.513 51.1937 161.621C51.216 162.235 49.7563 163.086 49.3516 163.487C48.6909 164.142 48.2434 164.932 47.7539 165.692C47.339 166.338 46.8899 166.968 46.409 167.578C45.8854 168.244 45.2301 168.94 44.2972 169.063C43.265 169.201 42.2388 168.529 41.8463 167.692C41.4537 166.855 41.5809 165.906 41.8913 165.054C42.3718 163.733 43.3141 162.505 44.6887 161.786C45.3095 161.461 46.0008 161.247 46.6852 161.036C47.4361 160.803 48.2182 160.569 49.017 160.63C49.4595 160.665 50.5698 160.882 51.0116 161.283C51.4401 161.196 51.8853 161.123 52.3617 161.074C52.1145 160.946 51.8649 160.82 51.6106 160.697C49.6716 159.765 47.9048 158.875 46.2978 158.018C45.3181 158.065 44.4263 158.203 43.6013 158.391C43.4583 158.626 43.1017 158.91 42.9692 158.999C42.7255 159.163 42.5062 159.353 42.2872 159.54C41.5556 160.165 40.8171 160.793 40.2217 161.516C39.6463 162.214 39.211 162.992 38.6462 163.697C38.0814 164.401 37.3501 165.049 36.4057 165.329C36.1587 165.403 35.8941 165.449 35.6342 165.415C35.0219 165.337 34.5931 164.838 34.3713 164.342C33.7624 162.971 34.247 161.372 35.3346 160.266C36.4242 159.163 38.0358 158.51 39.6948 158.208C40.7451 158.016 42.3445 157.707 43.4244 158.044C44.1248 157.88 44.8795 157.756 45.6893 157.69C45.4171 157.543 45.1513 157.398 44.8899 157.254C44.8899 157.254 44.8877 157.254 44.8855 157.253C44.881 157.253 44.8793 157.247 44.8728 157.245C42.8607 156.13 41.1243 155.07 39.6369 154.042C39.0386 153.955 38.4208 153.939 37.8037 153.967C37.6998 154.264 37.3937 154.556 37.2118 154.751C36.3638 155.664 35.28 156.395 34.1768 157.067C33.1678 157.679 32.0736 158.273 30.8339 158.365C29.5942 158.456 28.188 157.876 27.864 156.841C27.662 156.194 27.9056 155.519 28.1627 154.895L28.1559 154.896Z" fill="#D3F4E4"></path><path d="M86.8989 111.476C87.3076 111.58 87.7206 111.692 88.096 111.896C89.1492 112.466 89.7699 113.694 89.9547 114.926C90.1396 116.158 89.9551 117.411 89.7699 118.641C89.7019 119.092 89.7418 120.136 89.3392 120.415C89.3235 120.426 89.3056 120.429 89.2898 120.438C89.3522 120.824 89.3985 121.212 89.4108 121.599C90.5084 119.86 91.6009 118.46 92.7232 117.346C92.525 116.815 92.5493 116.076 92.5891 115.62C92.6645 114.774 92.9525 113.948 93.4119 113.252C94.2345 112.004 95.5482 111.17 96.9463 110.803C97.9095 110.55 98.9625 110.514 99.8719 110.944C100.781 111.371 101.507 112.339 101.479 113.386C101.454 114.322 100.87 115.135 100.214 115.763C99.532 116.419 98.74 116.942 97.8902 117.321C97.1391 117.656 96.3411 117.877 95.5298 117.977C94.884 118.056 93.6868 118.235 93.0989 117.863C93.0297 117.818 92.9702 117.762 92.9165 117.698C91.9018 118.719 90.9096 119.981 89.9129 121.526C90.251 121.457 90.5986 121.442 90.9487 121.448C90.9604 121.438 90.9641 121.425 90.9778 121.414C91.4021 121.054 92.2061 120.903 92.729 120.79C93.912 120.529 95.1548 120.56 96.3237 120.899C97.404 121.211 98.4539 121.81 99.0977 122.78C99.7416 123.749 99.8924 125.13 99.2664 126.105C98.5983 127.146 97.2211 127.475 96.0609 127.165C94.9027 126.854 93.9306 126.025 93.0867 125.127C92.461 124.463 91.884 123.747 91.3599 122.991C91.1248 122.651 90.7795 122.227 90.7755 121.851C90.3736 121.855 89.9789 121.904 89.6001 122.023C88.6395 123.57 87.6699 125.384 86.6704 127.499C87.2713 127.759 87.8287 128.039 88.3564 128.326C89.3477 128.002 90.435 128.056 91.4315 128.374C92.4641 128.701 93.4079 129.295 94.2625 129.994C95.0435 130.633 95.7779 131.398 96.1337 132.369C96.4897 133.341 96.3841 134.555 95.667 135.264C95.0552 135.867 94.1126 135.993 93.3004 135.76C92.4882 135.526 91.7857 134.982 91.1638 134.383C89.9732 133.234 89 131.838 88.3209 130.295C88.1571 129.925 87.7774 129.038 88.0074 128.589C87.5327 128.337 87.0382 128.092 86.506 127.86C85.6056 129.789 84.6795 131.959 83.7108 134.404C83.6695 134.506 83.6242 134.607 83.583 134.709C84.0218 134.743 84.438 134.823 84.8427 134.925C85.3639 134.299 86.9225 134.325 87.4858 134.448C88.5902 134.692 89.5605 135.381 90.4463 136.124C91.2236 136.774 91.9852 137.511 92.3591 138.481C92.7329 139.449 92.6043 140.701 91.8233 141.336C90.9131 142.077 89.5247 141.684 88.667 140.867C87.8072 140.05 87.3009 138.913 86.6442 137.91C86.2918 137.37 85.8903 136.864 85.45 136.4C85.1969 136.134 84.6385 135.745 84.6866 135.296C84.282 135.198 83.864 135.122 83.4234 135.099C83.3367 135.299 83.248 135.498 83.1573 135.694C83.1517 135.711 83.1442 135.73 83.1346 135.745C82.2231 137.708 81.1253 139.439 79.9595 140.942C80.5239 141.108 81.0354 141.317 81.5175 141.546C81.924 141.34 82.5771 141.383 83.1772 141.538C84.3008 141.827 85.4208 142.203 86.4059 142.846C87.391 143.489 88.2399 144.424 88.6285 145.573C88.7848 146.036 88.8644 146.542 88.7651 147.021C88.6729 147.46 88.4392 147.848 88.2072 148.223C87.9829 148.585 87.7508 148.955 87.4175 149.206C86.7078 149.74 85.6862 149.602 84.9489 149.101C84.2116 148.602 83.7024 147.808 83.2494 147.017C82.4922 145.698 81.8154 144.317 81.2614 142.892C81.0746 142.411 81.0775 142.071 81.2033 141.838C80.7357 141.626 80.2386 141.433 79.6906 141.282C79.5202 141.493 79.3498 141.702 79.1792 141.904C79.1658 141.927 79.1503 141.947 79.1288 141.964C78.0972 143.177 77.0431 144.219 76.0407 145.102C76.2966 145.398 76.5321 145.681 76.7555 145.958C77.2768 146.081 77.9587 146.678 78.2394 146.857C78.9921 147.333 79.755 147.819 80.3687 148.483C80.9804 149.148 81.4377 150.025 81.4304 150.949C81.4221 152.137 80.568 153.257 79.469 153.516C78.3699 153.774 77.1373 153.148 76.6408 152.08C76.1486 151.02 76.3653 149.774 76.3759 148.596C76.3806 148.022 75.9388 146.603 76.2125 146.144C76.2393 146.097 76.2723 146.063 76.3075 146.032C76.1277 145.813 75.9458 145.592 75.7457 145.362C75.689 145.412 75.6322 145.458 75.5755 145.506C75.5679 145.519 75.5603 145.534 75.5486 145.546C75.5272 145.568 75.5016 145.583 75.4738 145.593C72.8723 147.778 70.7745 148.828 70.7311 148.85C70.66 148.886 70.5796 148.871 70.5242 148.82C70.5037 148.801 70.4871 148.778 70.4765 148.753C70.4318 148.653 70.4706 148.532 70.5673 148.485C70.6088 148.465 72.6139 147.461 75.124 145.373C74.9241 145.152 74.7307 144.948 74.5415 144.752C74.1943 144.855 73.652 144.622 73.2365 144.488C72.1674 144.143 71.033 144.128 69.9204 144.028C69.5536 143.995 69.1824 143.951 68.8406 143.807C68.3572 143.603 67.9688 143.214 67.5966 142.831C67.282 142.507 66.9522 142.139 66.9119 141.678C66.8887 141.409 66.9716 141.141 67.0851 140.898C67.5692 139.854 68.6648 139.165 69.7679 139.209C71.2454 139.268 72.4293 140.469 73.4573 141.597C74.0424 142.239 74.8179 143.045 74.8792 143.993C74.8929 144.208 74.8712 144.366 74.8243 144.484C75.0197 144.686 75.2173 144.896 75.4193 145.121C76.5045 144.196 77.6684 143.071 78.8029 141.742C78.7385 141.351 78.6386 140.982 78.5132 140.629C78.427 140.622 78.3202 140.589 78.1723 140.519C77.0072 139.952 75.9355 139.208 74.7456 138.686C73.2603 138.034 71.6452 137.615 70.3755 136.571C69.7601 136.067 69.2096 135.298 69.3581 134.494C69.4403 134.052 69.7264 133.68 70.0525 133.387C71.2829 132.279 73.1429 132.135 74.6387 132.804C76.1345 133.475 77.2792 134.854 77.9667 136.41C78.2029 136.944 78.3918 137.503 78.5271 138.076C78.6603 138.644 78.7397 139.225 78.7653 139.808C78.7716 139.969 78.7794 140.112 78.7766 140.232C78.9182 140.592 79.0382 140.966 79.1228 141.363C80.4633 139.738 81.7401 137.821 82.7728 135.6C82.6611 135.012 82.5166 134.467 82.3451 133.962C81.7055 134.049 80.6572 132.762 80.1942 132.423C79.4375 131.87 78.5625 131.532 77.7144 131.152C76.9939 130.829 76.2864 130.473 75.5961 130.085C74.8428 129.662 74.0444 129.118 73.8152 128.25C73.5596 127.29 74.1518 126.248 74.9854 125.787C75.8191 125.326 76.8255 125.344 77.7508 125.545C79.185 125.856 80.5712 126.614 81.4717 127.835C81.8784 128.387 82.1772 129.017 82.4718 129.64C82.796 130.325 83.1251 131.038 83.1474 131.799C83.1586 132.221 83.0512 133.293 82.6795 133.754C82.8161 134.149 82.9411 134.562 83.0429 135.007C83.1503 134.759 83.2557 134.51 83.3569 134.256C84.1233 132.324 84.8642 130.56 85.5872 128.949C85.4326 128.029 85.1926 127.201 84.9063 126.442C84.6454 126.333 84.3093 126.026 84.2022 125.911C84.0045 125.698 83.7816 125.512 83.5626 125.325C82.83 124.701 82.0932 124.071 81.2724 123.587C80.4799 123.118 79.6192 122.791 78.8211 122.333C78.0229 121.876 77.2664 121.255 76.8714 120.393C76.7674 120.168 76.6909 119.923 76.6982 119.673C76.7146 119.087 77.1903 118.628 77.6853 118.365C79.0539 117.642 80.7794 117.927 82.0536 118.836C83.3258 119.746 84.1824 121.198 84.6774 122.732C84.9913 123.704 85.4867 125.181 85.2509 126.238C85.498 126.882 85.7087 127.581 85.8649 128.339C85.9896 128.066 86.1125 127.799 86.2355 127.537C86.2355 127.537 86.2354 127.535 86.2353 127.533C86.2352 127.529 86.2412 127.526 86.243 127.52C87.193 125.499 88.1142 123.745 89.0297 122.229C89.0563 121.654 89.0067 121.069 88.9112 120.489C88.5895 120.423 88.2506 120.165 88.0266 120.015C86.9799 119.312 86.0988 118.367 85.277 117.397C84.5274 116.51 83.7875 115.54 83.5586 114.379C83.3296 113.218 83.7844 111.827 84.8332 111.41C85.4882 111.149 86.2204 111.307 86.9011 111.482L86.8989 111.476Z" fill="#D3F4E4"></path><path d="M113.367 185.112C114.17 184.53 115.144 184.07 116.099 184.275C117.171 184.505 117.967 185.562 118.171 186.694C118.375 187.827 118.071 189.004 117.571 190.029C116.845 191.516 115.666 192.792 114.19 193.41C113.369 193.754 112.457 193.876 111.579 193.751C110.909 193.657 109.662 193.395 109.428 192.619C109.2 191.864 109.686 190.558 109.93 189.85C110.238 188.959 110.664 188.114 111.195 187.35C111.795 186.485 112.529 185.722 113.367 185.114V185.112Z" fill="#7F9868"></path><path d="M107.799 196.183C109.094 196.28 110.414 196.381 111.617 196.895C112.821 197.41 113.911 198.414 114.22 199.743C114.33 200.217 114.34 200.709 114.342 201.198C114.346 202.01 114.32 202.875 113.891 203.548C113.201 204.628 111.675 204.796 110.554 204.25C109.432 203.704 108.635 202.63 107.927 201.565C107.151 200.397 106.415 199.169 105.968 197.815C105.826 197.387 105.5 196.617 105.888 196.229C106.274 195.843 107.323 196.147 107.797 196.183H107.799Z" fill="#7F9868"></path><path d="M107.167 188.227C107.123 186.93 106.783 185.599 105.964 184.631C105.144 183.665 103.78 183.152 102.631 183.617C101.405 184.112 100.722 185.584 100.744 186.968C100.766 188.352 101.361 189.655 102.057 190.828C102.573 191.699 103.151 192.528 103.786 193.306C104.19 193.802 104.71 194.605 105.29 194.126C105.762 193.736 106.12 192.867 106.367 192.306C106.931 191.036 107.215 189.625 107.169 188.223L107.167 188.227Z" fill="#7F9868"></path><path d="M102.36 200.919C103.792 201.857 105.049 203.184 105.649 204.844C106.249 206.506 106.101 208.522 105.019 209.887C104.628 210.382 104.042 210.802 103.442 210.675C103.186 210.623 102.958 210.473 102.756 210.3C101.981 209.64 101.545 208.634 101.281 207.619C101.019 206.607 100.905 205.554 100.631 204.544C100.347 203.498 99.8974 202.511 99.4496 201.53C99.3156 201.237 99.1837 200.937 99.0177 200.663C98.8738 200.425 98.386 199.423 98.8298 199.394C99.9814 199.32 101.423 200.298 102.36 200.914V200.919Z" fill="#7F9868"></path><path d="M97.5528 195.483C98.1785 194.424 98.4144 193.14 98.3425 191.894C98.2705 190.647 97.9086 189.434 97.4168 188.3C96.967 187.26 96.3772 186.243 95.4816 185.6C94.5859 184.957 93.3264 184.775 92.4247 185.41C91.657 185.952 91.2912 186.983 91.3212 187.958C91.3531 188.932 91.725 189.86 92.1768 190.71C93.0405 192.336 94.2121 193.781 95.6035 194.931C96.0114 195.268 97.1349 196.188 97.5528 195.483Z" fill="#7F9868"></path><path d="M92.7707 200.397C93.5385 200.612 94.1782 201.161 94.792 201.694C95.3518 202.182 95.9135 202.675 96.3714 203.27C97.383 204.588 97.8008 206.339 97.7528 208.035C97.7229 209.127 97.4849 210.266 96.8072 211.093C96.1275 211.92 94.9199 212.327 94.0103 211.802C93.1886 211.327 92.8387 210.293 92.6008 209.338C92.3829 208.463 92.201 207.577 92.055 206.683C91.8851 205.632 91.7631 204.563 91.3933 203.572C91.1594 202.945 90.0478 201.355 90.4037 200.691C90.7355 200.073 92.2589 200.254 92.7727 200.397H92.7707Z" fill="#7F9868"></path><path d="M91.1724 194.844C91.2064 193.536 90.7526 192.273 90.2248 191.09C89.763 190.052 89.2072 189.01 88.3175 188.348C87.4299 187.688 86.1264 187.521 85.2847 188.245C84.3011 189.088 84.3491 190.75 84.9588 191.921C85.5686 193.093 86.5962 193.946 87.4479 194.937C87.9057 195.47 88.3175 196.046 88.6774 196.658C88.8913 197.023 89.1552 197.797 89.655 197.803C90.6686 197.814 91.1524 195.608 91.1724 194.844Z" fill="#7F9868"></path><path d="M85.233 204.05C85.7808 204.343 86.2986 204.696 86.7824 205.094C88.1859 206.254 89.2974 207.887 89.5973 209.741C89.8972 211.595 89.2815 213.655 87.844 214.769C87.4641 215.062 87.0143 215.294 86.5445 215.277C85.6908 215.248 85.0491 214.433 84.6932 213.615C83.9575 211.924 83.9415 209.998 83.6556 208.161C83.4277 206.691 82.9439 205.295 82.664 203.841C82.506 203.025 82.8719 203.152 83.5337 203.35C84.1194 203.523 84.6892 203.757 85.231 204.05H85.233Z" fill="#7F9868"></path><path d="M82.8879 197.951C82.88 196.611 82.782 195.255 82.3801 193.985C81.9783 192.716 81.2446 191.526 80.177 190.803C79.7472 190.512 79.2533 190.297 78.7415 190.29C78.2737 190.284 77.8219 190.453 77.3801 190.621C76.9562 190.784 76.5204 190.955 76.1805 191.269C75.4588 191.935 75.3408 193.123 75.6607 194.078C75.9806 195.034 76.6563 195.804 77.3441 196.512C78.4896 197.693 79.7192 198.798 81.0267 199.777C82.4461 200.84 82.8959 199.332 82.8879 197.951Z" fill="#7F9868"></path><path d="M80.3754 208.895C81.2571 210.334 82.1767 211.968 81.8629 213.649C81.6269 214.904 80.6513 215.969 79.4698 216.258C79.1939 216.326 78.902 216.353 78.6341 216.258C78.1763 216.1 77.8884 215.636 77.6385 215.202C77.3426 214.687 77.0467 214.151 76.9627 213.556C76.9028 213.135 76.9527 212.706 77.0127 212.285C77.1947 211.004 77.4665 209.722 77.3866 208.431C77.3366 207.602 77.0907 206.307 78.3062 206.698C79.2519 207.001 79.8756 208.077 80.3774 208.895H80.3754Z" fill="#7F9868"></path><path d="M76.2425 202.2C75.9507 201.232 75.6528 200.252 75.133 199.397C74.6132 198.541 73.8395 197.811 72.8998 197.588C71.6923 197.303 70.3408 197.988 69.799 199.163C69.2572 200.338 69.5811 201.884 70.5387 202.709C71.4884 203.527 72.8079 203.59 74.0054 203.871C74.5892 204.008 75.9187 204.858 76.4525 204.664C77.2242 204.381 76.3985 202.721 76.2405 202.2H76.2425Z" fill="#7F9868"></path><path d="M104.064 207.113C104.052 207.052 102.872 201.14 96.9724 198.189C97.2803 198.116 97.5822 198.044 97.8801 197.97C97.8801 197.97 97.8821 197.97 97.8841 197.97C97.8901 197.97 97.8921 197.966 97.8981 197.966C100.191 197.396 102.204 196.791 103.974 196.133C108.104 196.922 111.867 201.735 111.905 201.783C111.979 201.878 112.111 201.893 112.201 201.815C112.291 201.737 112.307 201.598 112.231 201.503C112.081 201.309 108.708 196.993 104.703 195.852C109.154 194.096 111.973 191.972 113.782 189.202C113.848 189.101 113.822 188.962 113.728 188.894C113.632 188.825 113.502 188.85 113.436 188.951C111.725 191.573 109.068 193.608 104.903 195.302C106.467 191.624 103.912 186.053 103.798 185.807C103.742 185.718 103.62 185.65 103.516 185.705C103.412 185.76 103.368 185.893 103.42 186.003C103.448 186.064 106.209 192.085 104.322 195.534C102.508 196.234 100.421 196.877 98.022 197.481C97.0104 190.784 93.8376 187.091 93.8036 187.055C93.7257 186.964 93.5917 186.96 93.5058 187.043C93.4198 187.125 93.4138 187.266 93.4938 187.357C93.5257 187.393 96.6246 191.008 97.6102 197.582C95.423 198.12 92.9879 198.626 90.259 199.113C90.143 199.134 90.0311 199.16 89.9171 199.181C90.7028 194.112 87.0062 190.025 86.9683 189.983C86.8883 189.894 86.7543 189.894 86.6704 189.978C86.5864 190.065 86.5884 190.208 86.6664 190.293C86.7024 190.333 90.337 194.353 89.4813 199.267C89.2554 199.316 89.0315 199.366 88.8095 199.421C88.7896 199.423 88.7696 199.427 88.7516 199.436C86.5284 199.976 84.4932 200.786 82.6719 201.728C82.43 195.224 77.8038 192.309 77.7558 192.28C77.6558 192.218 77.5259 192.254 77.4679 192.36C77.4099 192.467 77.4439 192.602 77.5439 192.663C77.5899 192.691 82.1161 195.542 82.2601 201.948C82.0022 202.087 81.7483 202.226 81.5003 202.37C81.4724 202.378 81.4484 202.393 81.4264 202.412C79.9349 203.274 78.6095 204.207 77.4599 205.118C73.9253 199.67 71.4702 199.001 71.3662 198.976C71.2543 198.949 71.1403 199.022 71.1143 199.141C71.1023 199.195 71.1103 199.25 71.1323 199.295C71.1603 199.349 71.2083 199.392 71.2683 199.406C71.2923 199.413 73.6913 200.09 77.124 205.384C77.0601 205.436 76.9981 205.489 76.9341 205.54C76.9181 205.546 76.9021 205.55 76.8861 205.561C76.8581 205.58 76.8381 205.605 76.8221 205.633C73.9453 208.026 72.3459 210.131 72.3139 210.176C72.2599 210.247 72.2559 210.342 72.2939 210.416C72.3079 210.443 72.3259 210.467 72.3499 210.486C72.4418 210.562 72.5738 210.545 72.6457 210.448C72.6777 210.406 74.2052 208.393 76.9601 206.08C80.7307 212.175 79.3632 214.36 79.3372 214.398C79.2872 214.47 79.2832 214.561 79.3192 214.634C79.3332 214.662 79.3532 214.687 79.3772 214.706C79.4691 214.78 79.6011 214.761 79.6711 214.664C79.741 214.569 81.2944 212.266 77.29 205.805C78.5035 204.812 79.9389 203.776 81.5763 202.827C86.4265 204.991 86.7823 212.367 86.7863 212.443C86.7903 212.565 86.8883 212.66 87.0062 212.656C87.1222 212.65 87.2122 212.546 87.2082 212.424C87.2062 212.348 86.8543 204.998 82.0441 202.564C84.0334 201.456 86.3025 200.49 88.8176 199.875C95.0412 202.848 95.1011 209.051 95.1011 209.115C95.1011 209.239 95.1951 209.336 95.3111 209.338C95.427 209.338 95.521 209.239 95.521 209.117C95.521 209.054 95.471 202.899 89.4853 199.721C89.7632 199.662 90.0431 199.602 90.327 199.552C92.4821 199.166 94.4614 198.769 96.2787 198.354C102.42 201.111 103.634 207.141 103.646 207.202C103.668 207.324 103.78 207.4 103.894 207.377C104.008 207.351 104.082 207.235 104.06 207.115L104.064 207.113Z" fill="#539173"></path><g clip-path="url(#clip0_2067_5309)"><path d="M66.6237 132.257C51.6744 132.257 39.9672 121.067 39.9672 107.565L39.5549 63.4425C39.5549 49.9408 51.6744 39.7998 66.6237 39.7998C81.573 39.7998 93.6925 50.7457 93.6925 64.2475L94.1171 108.392C94.1171 121.894 81.573 132.257 66.6237 132.257Z" fill="#CBCBCB"></path><path d="M17.2003 54.202V56.8719L2.85972 80.0266C2.85972 80.0266 -0.99823 75.5138 0.826355 66.0812C2.65094 56.6485 10.3212 54.2796 11.3844 54.1006C11.1125 53.4969 10.7826 40.4515 15.5336 31.0045C20.2845 21.5576 28.5337 11.8127 40.6444 6.091C52.7533 0.367688 63.6903 0.171207 71.6273 0.76065C79.5642 1.35009 90.6661 3.02018 103.568 12.9742C86.6415 4.86933 58.9464 -2.04555 38.0356 11.9316C20.6968 23.5224 18.881 28.3663 16.0599 39.4896C13.2388 50.613 14.4757 53.7076 14.4757 53.7076L17.1985 54.2036L17.2003 54.202Z" fill="white"></path><path d="M115.859 53.9298C115.859 53.9298 120.23 53.0029 123.837 54.9725C127.446 56.9404 129.098 59.2111 129.998 61.0745C130.9 62.9379 115.8 57.5917 115.8 57.5917L115.859 53.9314V53.9298Z" fill="white"></path><path d="M39.4391 97.2238C41.4341 97.2238 43.0514 93.9151 43.0514 89.8336C43.0514 85.7521 41.4341 82.4434 39.4391 82.4434C37.4441 82.4434 35.8268 85.7521 35.8268 89.8336C35.8268 93.9151 37.4441 97.2238 39.4391 97.2238Z" fill="#CBCBCB"></path><path d="M93.5819 97.2238C95.577 97.2238 97.1943 93.9151 97.1943 89.8336C97.1943 85.7521 95.577 82.4434 93.5819 82.4434C91.5869 82.4434 89.9696 85.7521 89.9696 89.8336C89.9696 93.9151 91.5869 97.2238 93.5819 97.2238Z" fill="#CBCBCB"></path><path d="M66.5202 145.978C69.0922 146.133 81.4941 145.656 91.6398 136.981C101.786 128.306 101.866 118.513 102.715 112.079C103.565 105.644 103.098 98.9808 102.454 95.7405C101.81 92.5001 100.533 88.2409 97.1943 87.661C97.468 89.4832 97.3697 91.4829 97.3697 91.9075C97.9136 92.2989 99.1417 93.3716 99.5978 96.1208C100.054 98.8699 99.9557 108.033 99.7084 112.058C99.461 116.081 98.8662 122.04 95.7241 127.666C92.5819 133.291 88.8187 135.816 82.1871 139.616C75.5554 143.416 65.1605 142.679 62.1412 142.522C59.1219 142.365 42.3567 138.497 36.8496 123.568C34.5321 117.284 34.6057 114.985 34.5075 104.286C34.4391 96.8972 34.711 92.6903 35.0935 92.2419C35.7531 91.467 36.7847 91.4258 36.7847 91.4258L37.2145 86.9258C37.2145 86.9258 34.6075 87.4471 33.7163 88.5642C32.825 89.6813 31.5934 91.448 31.2531 95.6264C30.9127 99.8048 30.7688 109.8 31.2531 114.403C31.7373 119.006 32.4303 121.83 33.5847 125.056C34.7391 128.282 39.7251 137.935 52.0621 143.026C58.1657 145.545 64.5482 145.856 66.522 145.976L66.5202 145.978Z" fill="#CBCBCB"></path><path d="M67.9359 1.95801C76.2308 1.99445 84.5607 3.64394 92.4626 7.02532C94.1486 7.74628 95.7591 8.58925 97.3995 9.38468C99.9451 10.6174 102.094 12.3192 104.222 14.0368C108.522 17.5054 112.1 21.519 114.965 26.0396C117.949 30.7473 120 35.7702 121.068 41.1148C121.544 43.4964 121.812 45.8922 121.891 48.3133C121.952 50.1894 121.854 52.0528 121.684 53.9178C121.637 54.4454 121.628 54.4549 121.089 54.3678C119.551 54.119 118.01 54.1571 116.468 54.3345C115.886 54.4011 115.882 54.4027 115.856 53.856C115.693 50.3906 115.138 46.9776 114.161 43.6215C112.315 37.2787 109.166 31.5158 104.682 26.3597C99.9065 20.8693 94.0573 16.5515 87.1204 13.4585C83.0537 11.6458 78.7817 10.3813 74.3237 9.60493C72.05 9.2088 69.7588 9.30387 67.457 9.15176C66.1096 9.06302 64.7868 8.96003 63.4657 9.14066C59.1885 9.72852 54.9288 10.4162 50.6708 11.1039C49.3883 11.3099 48.2304 11.8201 47.0374 12.2463C42.8514 13.7421 39.1689 16.0143 35.5373 18.361C33.7653 19.5066 32.0548 20.7251 30.46 22.0688C29.1723 23.1542 28.0249 24.36 26.9266 25.6023C22.8494 30.2085 19.8546 35.3345 17.9318 40.969C16.9791 43.7594 16.316 46.6036 15.9651 49.5081C15.8072 50.8042 15.6721 52.0988 15.6546 53.4028C15.6475 53.8814 15.6282 53.8829 15.1195 53.8798C14.5949 53.875 14.0686 53.8386 13.5458 53.8671C13.13 53.8893 13.0036 53.7482 12.9826 53.3886C12.8668 51.4475 12.83 49.5112 12.9615 47.567C13.1212 45.1982 13.4317 42.8499 13.9686 40.5301C15.5633 33.6565 18.6634 27.3881 23.302 21.744C27.0003 17.2455 31.439 13.449 36.6004 10.3497C42.4549 6.8336 48.8322 4.42036 55.7112 3.09887C58.5095 2.56171 61.3341 2.20995 64.1955 2.06417C65.2973 2.00871 66.3956 1.98178 67.9359 1.96118V1.95801Z" fill="#7F9868"></path><path d="M132.419 70.0185C132.333 72.5474 131.958 75.0858 131.418 77.5814C131.026 79.3925 130.489 80.451 129.328 81.9658C128.861 82.5742 128.212 83.6248 127.6 84.1081C127.068 84.5296 126.517 84.932 125.972 85.3408C124.277 86.61 122.36 87.4641 120.158 87.6622C118.928 87.7731 117.702 87.5861 116.528 87.2011C116.203 87.0949 115.917 87.0474 115.554 87.163C114.94 87.3579 114.479 87.0299 114.447 86.4167C114.421 85.897 114.447 85.3741 114.473 84.8528C114.566 82.9133 114.673 80.9739 114.763 79.0344C114.882 76.4786 114.972 73.9227 115.109 71.3669C115.221 69.2611 115.328 67.1568 115.412 65.051C115.516 62.4254 115.684 59.8014 115.823 57.1759C115.842 56.8209 115.854 56.4644 115.845 56.1095C115.837 55.7815 116.016 55.6516 116.356 55.604C118.872 55.2586 121.335 55.3917 123.679 56.3472C127.11 57.7463 129.5 60.0676 131.016 63.167C132.088 65.3552 132.567 67.6306 132.419 70.02V70.0185Z" fill="#7F9868"></path><path d="M1.66846 72.8615C1.72109 68.6736 2.67549 64.6869 4.96675 61.0076C5.76851 59.7194 6.75449 58.5548 7.94222 57.536C9.59839 56.1162 11.6423 55.5125 13.8546 55.3113C14.7669 55.2289 15.6879 55.2542 16.5932 55.4396C17.2213 55.568 17.2669 55.5664 17.2494 56.1226C17.1932 57.883 17.5283 59.6149 17.6652 61.361C17.695 61.7381 17.709 62.1216 17.6722 62.4971C17.4283 65.0086 17.7073 67.5105 17.8143 70.0157C17.8845 71.6446 18.0774 73.2671 17.9353 74.9103C17.7897 76.5836 17.8564 78.2663 18.1388 79.9396C18.3283 81.0614 18.4003 82.1991 18.516 83.332C18.5862 84.015 18.6301 84.7011 18.702 85.384C18.7634 85.9687 18.4845 86.3918 17.9739 86.7118C17.4739 87.024 16.9511 87.2633 16.323 87.3251C15.1546 87.4407 14.016 87.718 12.8212 87.7228C10.8265 87.7291 9.07908 86.8354 7.46327 85.8404C7.22642 85.6946 6.99484 85.5282 6.80712 85.3349C5.8036 84.3034 4.77552 83.584 3.9527 82.4209C3.48427 81.7586 3.21585 81.006 2.94567 80.266C2.32636 78.5753 1.9439 76.8387 1.786 75.0592C1.72109 74.3256 1.67197 73.5951 1.66846 72.8599V72.8615Z" fill="#7F9868"></path><path d="M104.535 66.7543C104.273 63.6042 104.326 60.4542 104.5 57.3026C104.575 55.9224 104.894 54.5819 105.286 53.2509C105.465 52.6409 105.872 52.2194 106.482 51.9136C107.379 51.4636 108.282 51.0484 109.303 50.863C110.089 50.7204 110.863 50.6935 111.644 50.8519C112.386 51.0025 113.123 51.1673 113.868 51.3035C114.393 51.4002 115.01 51.6933 115.177 52.1291C115.454 52.8532 115.902 53.5963 115.907 54.3633C115.919 56.4501 115.823 58.5337 115.733 60.6174C115.61 63.4347 115.451 66.2504 115.344 69.0677C115.202 72.8103 115.049 76.5514 114.919 80.294C114.861 81.9514 114.521 83.612 114.575 85.271C114.596 85.9334 114.245 86.5957 114.165 87.258C114.117 87.6399 113.975 87.9219 113.672 88.1818C112.973 88.7808 112.165 89.0818 111.2 89.1325C109.612 89.2149 108.058 89.0596 106.521 88.7174C106.242 88.6556 105.972 88.5637 105.701 88.4734C105.526 88.4147 105.307 88.3181 105.315 88.1533C105.342 87.6589 104.914 87.4086 104.666 87.0631C104.303 86.5561 104.11 85.9967 104.031 85.3994C103.879 84.2427 103.87 83.0796 103.924 81.9198C103.982 80.6886 103.924 79.4384 104.205 78.2357C104.651 76.3375 104.54 74.4249 104.601 72.514C104.663 70.5936 104.687 68.6747 104.538 66.7558L104.535 66.7543Z" fill="#6B6B6B"></path><path d="M28.7302 71.0091C28.8407 74.9894 28.6214 78.9697 28.7355 82.95C28.7495 83.4476 28.7881 83.9435 28.8284 84.4395C28.8723 84.9846 28.8688 85.5265 28.7741 86.0684C28.474 87.805 26.7863 89.136 24.8407 89.1519C24.4459 89.1551 24.0564 89.1154 23.667 89.0536C23.2828 88.9934 22.9108 88.995 22.5108 89.0964C21.3564 89.3896 19.7055 88.7811 19.0301 87.889C18.8423 87.6402 18.4283 87.3915 18.5108 87.0888C18.7459 86.2237 18.3616 85.3427 18.2844 84.4712C17.9827 81.0676 18.1827 77.6577 18.0774 74.2478C17.9792 71.074 17.9493 67.8986 17.8458 64.7248C17.7458 61.5985 17.6529 58.4707 17.2178 55.3634C17.1213 54.6757 17.409 54.0213 17.5722 53.3352C17.8441 52.1896 18.6195 51.5035 19.8003 51.1549C21.7757 50.5718 23.7512 50.697 25.6582 51.3625C27.0723 51.8569 27.6284 53.0294 27.9337 54.2543C28.2337 55.4553 28.3039 56.696 28.2846 57.9304C28.2284 61.4845 28.6986 71.0091 28.7284 71.0091H28.7302Z" fill="#6B6B6B"></path><path d="M99.1978 21.8477C98.582 22.0933 98.0066 22.1947 97.3557 21.9935C96.3364 21.6797 95.3504 21.3359 94.3978 20.8621C91.9661 19.65 89.4819 18.5344 86.8556 17.682C85.452 17.2272 84.0888 16.6805 82.6415 16.332C80.4607 15.8059 78.2344 15.4779 76.0291 15.0643C74.6185 14.7997 73.2203 14.4844 71.801 14.2546C68.6887 13.7508 65.55 13.6034 62.3991 13.6446C61.4605 13.6573 60.5131 13.765 59.5885 13.9219C57.578 14.2641 55.5288 14.3497 53.5235 14.7363C49.2393 15.5603 45.1796 16.9341 41.2778 18.7103C39.7321 19.4139 38.1953 20.1285 36.6198 20.7797C35.6391 21.1854 34.6303 21.3391 33.5654 21.282C33.4057 21.2741 33.2531 21.2582 33.1198 21.1711C32.8356 20.9857 32.818 20.6466 33.1373 20.5531C33.5163 20.4406 33.7268 20.1808 34.004 19.9779C38.0497 16.999 42.3673 14.4147 47.2515 12.6875C50.7024 11.4675 54.2692 10.3329 57.9534 9.89244C60.4482 9.59296 62.9307 9.50106 65.4465 9.34577C68.1606 9.1794 70.8378 9.43134 73.5098 9.84807C79.8993 10.8447 85.8169 12.3643 91.2784 15.4874C93.9837 17.0339 96.4943 18.5392 98.8504 20.5056C98.982 20.6149 100.305 21.6148 99.1978 21.8493V21.8477Z" fill="#6C6C6C"></path><path d="M74.4431 120.647C74.2624 118.193 74.4186 115.466 74.2045 112.747C74.1852 112.511 74.1852 112.271 74.1361 112.04C74.0063 111.438 74.3747 111.143 75.001 111.107C75.8607 111.056 76.7291 111.089 77.587 111.21C77.9747 111.264 78.0239 111.493 78.0186 111.774C78.0028 112.579 78.0256 113.385 77.959 114.187C77.887 115.041 77.866 115.887 77.9572 116.74C77.9923 117.069 78.0063 117.402 78.0046 117.733C77.9853 121.593 77.9554 125.455 77.9484 129.315C77.9484 129.769 77.8554 130.059 77.3133 130.218C76.7975 130.368 76.3853 130.736 75.8519 130.896C74.8501 131.195 74.5519 131.058 74.4063 130.137C74.2642 129.245 74.2466 128.347 74.2431 127.445C74.2326 125.265 74.501 123.094 74.4431 120.649V120.647Z" fill="#6C6C6C"></path><path d="M58.5306 114.692C58.599 115.852 58.6411 117.013 58.7446 118.171C58.9166 120.071 58.6727 121.961 58.6587 123.857C58.6464 125.729 58.6587 127.601 58.6587 129.474C58.6587 129.711 58.6727 129.949 58.6516 130.185C58.6095 130.662 58.4516 130.757 57.9481 130.653C57.1832 130.494 56.4569 130.215 55.6797 130.088C55.3042 130.027 55.0972 129.791 55.1112 129.423C55.1183 129.233 55.1077 129.044 55.1077 128.854C55.0744 123.567 55.0393 118.281 55.006 112.993C54.999 111.927 55.5709 111.337 56.7218 111.222C57.085 111.185 57.4446 111.1 57.8165 111.139C58.4236 111.204 58.578 111.383 58.5692 111.922C58.5552 112.846 58.5657 113.769 58.5657 114.692C58.5534 114.692 58.5411 114.692 58.5306 114.692Z" fill="#6C6C6C"></path><path d="M49.3849 69.3639C52.2445 69.348 55.0972 69.581 57.9569 69.5889C59.4482 69.5936 59.8236 70.0991 59.4534 71.3968C59.1674 72.4014 58.7499 72.712 57.5727 72.7706C56.0779 72.8451 54.5832 72.8071 53.0884 72.7643C49.2077 72.6518 45.3252 72.8197 41.4444 72.7722C41.0251 72.7674 40.6058 72.7643 40.1918 72.6819C39.5567 72.5551 39.3163 72.2968 39.2409 71.7122C39.1654 71.1322 39.4742 70.6093 39.5251 70.0452C39.5444 69.8329 39.7935 69.6982 40.0374 69.6507C40.2654 69.6063 40.5023 69.5699 40.7356 69.5635C43.6199 69.4922 46.5024 69.4289 49.3866 69.3623L49.3849 69.3639Z" fill="#6C6C6C"></path><path d="M90.7679 103.311C87.2766 102.906 83.759 102.961 80.2555 102.779C78.3677 102.681 76.4835 102.719 74.5975 102.693C74.2308 102.689 73.8606 102.689 73.4992 102.643C72.8957 102.567 72.9483 102.305 72.8431 101.781C72.6957 101.045 72.5203 100.614 73.0413 100.351C73.2431 100.248 73.4624 100.194 73.6062 99.9948C73.7431 99.8047 73.994 99.7635 74.2378 99.7714C78.4554 99.895 82.6748 99.819 86.8924 99.876C88.8047 99.9014 90.7152 100.017 92.6293 99.9663C92.8118 99.9616 92.9995 99.9663 93.1767 99.998C93.8258 100.115 94.2013 100.527 94.0995 101.12C94.0065 101.654 93.8311 102.18 93.6451 102.695C93.51 103.072 93.1504 103.219 92.7293 103.264C92.0749 103.333 91.4223 103.332 90.7661 103.313L90.7679 103.311Z" fill="#6C6C6C"></path><path d="M86.224 69.3912C88.0854 69.4277 89.9468 69.4689 91.81 69.499C92.1749 69.5053 92.5416 69.4641 92.9083 69.4562C93.7153 69.4372 94.0644 69.7921 93.9398 70.521C93.8626 70.9647 93.7662 71.4067 93.6626 71.8472C93.4819 72.6205 93.1416 72.8883 92.2591 72.912C91.71 72.9263 91.1556 72.9216 90.6082 72.8804C88.124 72.6997 85.6345 72.6078 83.1467 72.5254C81.3098 72.4636 79.48 72.6411 77.6484 72.7377C76.7063 72.7869 75.7659 72.8566 74.822 72.8946C73.9273 72.9311 73.7869 72.687 73.5641 71.9122C73.3694 71.2388 73.8045 70.7888 73.9729 70.2516C74.0834 69.8967 74.5378 69.8761 74.9098 69.8555C75.8256 69.8032 76.7431 69.7684 77.6572 69.7018C80.5081 69.4958 83.366 69.4324 86.2257 69.3896L86.224 69.3912Z" fill="#6C6C6C"></path><path d="M68.0728 121.711C68.1447 124.74 68.2658 127.771 68.2131 130.803C68.1921 132.051 68.1324 132.113 66.7237 132.099C66.2307 132.094 65.6342 132.268 65.2728 131.977C64.8956 131.672 65.1517 131.127 65.1306 130.69C65.0815 129.697 65.1043 128.7 65.0412 127.708C64.9394 126.071 65.071 124.442 65.1359 122.81C65.2622 119.614 65.2377 116.418 65.0254 113.224C65.0008 112.847 64.9956 112.466 65.0043 112.088C65.0166 111.547 65.1956 111.394 65.7605 111.436C66.3342 111.479 66.9114 111.52 67.478 111.601C67.9903 111.674 68.0991 111.795 68.1044 112.262C68.1131 113.043 68.1079 113.826 68.0798 114.605C67.9974 116.973 68.0342 119.34 68.071 121.709L68.0728 121.711Z" fill="#6C6C6C"></path><path d="M50.941 99.736C53.1972 99.736 55.4534 99.7281 57.7078 99.7423C58.2832 99.7455 58.8604 99.7978 59.4324 99.8643C60.3201 99.9673 60.5991 100.425 60.257 101.165C60.1061 101.493 59.9482 101.818 59.7903 102.143C59.5815 102.572 59.2218 102.797 58.7008 102.846C57.4955 102.959 56.2885 102.908 55.085 102.87C51.8586 102.767 48.634 102.726 45.4076 102.838C44.1234 102.883 42.8427 102.989 41.5567 102.976C41.1356 102.972 40.7146 102.954 40.3234 102.796C39.5935 102.499 39.4321 101.937 39.9251 101.363C40.0514 101.216 40.1707 101.111 40.1742 100.883C40.1812 100.346 40.3795 100.17 40.969 100.115C41.9339 100.024 42.9006 99.9261 43.8673 99.8897C46.2252 99.8025 48.5831 99.6615 50.9445 99.7376L50.941 99.736Z" fill="#6C6C6C"></path><path d="M82.98 118.833C82.8905 116.453 83.0958 114.018 83.2555 111.581C83.2941 110.993 83.3063 111.033 83.9923 111.039C84.6151 111.044 85.2397 110.939 85.8643 110.876C86.6608 110.795 86.8888 110.966 86.8117 111.679C86.6731 112.967 86.9117 114.235 87.0678 115.503C87.2081 116.639 87.2538 117.772 87.1748 118.909C87.0608 120.541 86.8853 122.17 86.8555 123.806C86.8467 124.282 86.6239 124.675 86.2573 125.005C85.5695 125.625 84.88 126.243 84.1888 126.857C84.0765 126.956 83.9572 127.054 83.8221 127.124C83.4292 127.326 83.1046 127.227 82.9397 126.845C82.7818 126.483 82.8028 126.1 82.8134 125.72C82.8695 123.444 82.9256 121.17 82.9835 118.83L82.98 118.833Z" fill="#6C6C6C"></path><path d="M81.3923 91.7711C84.5152 91.7886 87.6327 91.8979 90.7468 92.1213C91.4503 92.172 92.1591 92.2085 92.8696 92.1657C93.5258 92.1261 93.903 92.4255 94.0135 93.0071C94.224 94.1194 93.4556 94.9687 92.2012 95.0083C90.8065 95.0527 89.4205 94.9212 88.0398 94.7801C84.659 94.4363 81.2853 94.5155 77.9045 94.7738C76.808 94.8578 75.7185 95.0321 74.6115 95.0083C73.7519 94.9893 73.6694 94.8245 73.5027 94.0576C73.3869 93.53 73.5834 93.0403 73.4922 92.5285C73.4326 92.1863 73.7115 91.9486 74.0799 91.8725C74.3852 91.8092 74.7027 91.7775 75.015 91.7759C77.1414 91.768 79.266 91.7711 81.3923 91.7711Z" fill="#6C6C6C"></path><path d="M84.3941 88.0376C81.9993 87.9726 79.5361 87.9124 77.0747 87.8332C76.2378 87.8063 75.3992 87.7413 74.5992 87.4846C73.6782 87.1899 73.5782 87.0219 73.7378 86.1409C73.7413 86.1172 73.7659 86.0934 73.7606 86.0744C73.6799 85.7654 73.6378 85.4643 73.9413 85.2235C74.2501 84.9779 74.6273 85.0349 74.9905 85.0254C77.9501 84.9541 80.9116 84.9034 83.873 84.9399C86.259 84.9684 88.638 85.0841 91.0117 85.29C91.5328 85.336 92.0591 85.3138 92.5819 85.3392C93.5433 85.3835 93.896 85.7464 93.8346 86.6084C93.7609 87.6351 93.3854 87.9821 92.2416 88.0677C91.3503 88.1343 90.4608 88.0487 89.5714 88.0408C87.8678 88.0281 86.1643 88.0376 84.3941 88.0376Z" fill="#6C6C6C"></path><path d="M49.4006 77.7872C52.2568 77.6731 55.113 77.6874 57.9692 77.7507C58.8552 77.7698 59.3429 78.3053 59.0674 79.0437C58.9902 79.2513 59.0131 79.4589 59.0201 79.6728C59.0359 80.164 58.7973 80.4302 58.2499 80.4809C57.5727 80.5443 56.8902 80.5728 56.2095 80.5823C54.5323 80.6092 52.8551 80.5997 51.1779 80.6362C49.4761 80.6726 47.7726 80.7265 46.0743 80.8105C44.4497 80.8913 42.8251 80.8707 41.2023 80.9039C40.9146 80.9103 40.6268 80.9039 40.3479 80.8168C39.8374 80.6599 39.6093 80.3842 39.6935 79.9073C39.7637 79.5064 39.7847 79.1118 39.7689 78.7078C39.7479 78.1532 39.9672 77.9425 40.6023 77.9124C41.6742 77.8601 42.7479 77.803 43.8216 77.7919C45.6813 77.7729 47.5427 77.7872 49.4024 77.7872H49.4006Z" fill="#6C6C6C"></path><path d="M50.3621 91.7249C53.0884 91.7249 55.813 91.7249 58.5394 91.7249C59.6517 91.7249 60.0078 92.186 59.6043 93.1335C59.4622 93.4678 59.3745 93.7673 59.4675 94.1492C59.6078 94.7228 59.1324 95.0302 58.5008 94.8163C58.299 94.7481 58.1148 94.7038 57.9008 94.7038C52.9481 94.7149 47.9954 94.5707 43.0427 94.6277C42.362 94.6356 41.6813 94.6721 41.0006 94.6895C40.7391 94.6958 40.476 94.699 40.2233 94.615C39.8953 94.5057 39.6163 94.2696 39.6953 93.9891C39.8321 93.5011 39.9146 92.9877 40.1374 92.5298C40.2935 92.2081 40.7286 92.1654 41.1006 92.1432C42.5129 92.0624 43.9234 91.9705 45.3375 91.9197C47.0129 91.8595 48.6901 91.8373 50.3673 91.7993C50.3673 91.774 50.3673 91.747 50.3673 91.7217L50.3621 91.7249Z" fill="#6C6C6C"></path><path d="M73.9571 49.0426C73.9852 47.4026 74.0273 44.9862 74.0659 42.5698C74.0711 42.2878 74.0834 42.0168 73.8501 41.7665C73.6536 41.5557 73.6378 41.2705 73.829 41.036C74.0132 40.8094 74.2922 40.8506 74.5518 40.9203C75.2045 41.0946 75.8483 41.2816 76.4624 41.5605C77.1045 41.852 77.3764 42.2941 77.3624 42.9263C77.3326 44.1575 77.3256 45.3903 77.301 46.6215C77.2677 48.2329 76.9764 49.8285 76.901 51.44C76.8466 52.603 76.922 53.7613 76.9361 54.9212C76.9466 55.8466 76.8992 56.7688 76.8098 57.6894C76.7554 58.2566 76.6203 58.3771 75.9834 58.4103C75.5378 58.4341 75.0904 58.4499 74.6466 58.4325C73.9782 58.4072 73.6834 58.16 73.6553 57.5594C73.6273 56.9209 73.6431 56.2791 73.6694 55.6406C73.7466 53.6995 73.836 51.7585 73.9553 49.041L73.9571 49.0426Z" fill="#6C6C6C"></path><path d="M67.7886 49.2153C67.6658 51.8678 67.6974 54.5187 67.857 57.1697C67.8676 57.3582 67.8641 57.5484 67.8518 57.7369C67.8413 57.9049 67.7816 58.0617 67.6728 58.2012C67.4939 58.4325 67.2062 58.6163 66.9412 58.5276C66.3798 58.3406 65.7219 58.8112 65.236 58.2947C65.0535 58.0998 64.9851 57.8669 65.1079 57.6323C65.2851 57.2933 65.2658 56.9447 65.2307 56.5897C64.8903 53.1418 64.7377 49.6907 64.9079 46.2301C64.9991 44.3857 65.0517 42.5381 65.1324 40.6922C65.1623 39.995 65.4114 39.789 66.1395 39.8777C66.343 39.9031 66.4886 39.846 66.6605 39.7985C67.3237 39.6147 67.7834 39.8349 68.0044 40.4228C68.1167 40.7207 68.1255 41.0281 68.1149 41.3355C68.029 43.6552 67.9395 45.9734 67.8483 48.2916C67.836 48.599 67.8097 48.9064 67.7904 49.2138L67.7886 49.2153Z" fill="#6C6C6C"></path><path d="M50.6867 87.8476C47.4866 87.9379 44.2883 87.8397 41.0918 87.7019C40.883 87.6923 40.6707 87.6813 40.4672 87.6464C39.7549 87.5228 39.562 87.2312 39.7514 86.5895C39.7777 86.4992 39.8199 86.4121 39.8321 86.3202C39.9409 85.5231 40.0427 85.3884 40.8936 85.2775C41.6708 85.1761 42.4567 85.1222 43.241 85.0842C47.6691 84.8687 52.1025 84.9052 56.5341 84.9052C57.0587 84.9052 57.5833 84.8862 58.1061 84.8782C58.8394 84.8671 59.1745 85.165 59.1289 85.8289C59.1061 86.1585 59.0394 86.4881 58.9534 86.8098C58.7745 87.4737 58.4534 87.7098 57.6868 87.7573C55.592 87.8873 53.492 87.827 51.3937 87.8492C51.1568 87.8524 50.9218 87.8492 50.6849 87.8492L50.6867 87.8476Z" fill="#6C6C6C"></path><path d="M46.1234 117.19C46.162 115.189 46.1936 113.413 46.1357 111.636C46.1234 111.283 46.2392 111.109 46.6585 110.982C47.3936 110.76 48.1234 110.624 48.8936 110.676C49.8252 110.741 50.1007 110.993 50.0673 111.846C50.0112 113.289 49.8586 114.728 49.8077 116.175C49.7129 118.856 49.9112 121.525 50.0954 124.199C50.1322 124.742 50.1357 125.287 50.1463 125.832C50.1515 126.081 50.0919 126.32 49.7989 126.414C49.4936 126.509 49.2901 126.333 49.1533 126.122C48.6989 125.417 47.9638 124.996 47.241 124.568C46.6901 124.241 46.455 123.815 46.3918 123.218C46.176 121.137 46.3392 119.047 46.1234 117.192V117.19Z" fill="#6C6C6C"></path><path d="M83.4783 80.7644C81.0923 80.7644 78.7063 80.7676 76.322 80.7628C75.7729 80.7628 75.2203 80.7866 74.6817 80.6519C74.0238 80.4887 73.701 80.1449 73.6834 79.5412C73.6764 79.3067 73.708 79.0674 73.7553 78.8361C73.8536 78.3528 74.1027 78.1373 74.6413 78.0787C74.9255 78.0486 75.2168 78.0533 75.5045 78.0596C80.8256 78.169 86.1467 78.1626 91.4661 78.0169C91.8608 78.0058 92.2451 77.9376 92.6328 77.8806C93.3837 77.7697 93.8451 78.2022 93.7223 78.8773C93.6591 79.2274 93.5854 79.576 93.5135 79.9246C93.41 80.4285 93.0784 80.709 92.5135 80.7819C91.731 80.8833 90.9468 80.8849 90.1591 80.869C87.931 80.8215 85.7046 80.7739 83.4765 80.7264C83.4765 80.7407 83.4765 80.7533 83.4765 80.7676L83.4783 80.7644Z" fill="#6C6C6C"></path><path d="M55.8604 50.95C56.0551 48.0503 56.0358 45.7527 55.8358 43.4567C55.8095 43.1557 55.8183 42.8467 55.6288 42.5647C55.3551 42.1559 55.406 41.9958 55.8762 41.8294C56.3639 41.6567 56.8709 41.53 57.3657 41.3731C57.6376 41.2875 57.8972 41.1671 58.1727 41.091C58.6288 40.9675 58.8815 41.1085 58.9745 41.522C59.0008 41.6361 58.9973 41.7581 58.999 41.877C59.0587 44.8385 59.0516 47.8015 58.9464 50.763C58.8692 52.9005 58.8797 55.0238 59.2043 57.1455C59.3674 58.2087 59.3324 58.2134 58.1534 58.4717C58.0253 58.5002 57.899 58.5335 57.7709 58.5494C56.5481 58.7062 56.1288 58.4147 56.02 57.3118C55.7937 54.9937 55.82 52.6708 55.8621 50.9484L55.8604 50.95Z" fill="#6C6C6C"></path><path d="M82.8642 51.8127C82.9976 50.0143 83.18 48.219 83.1186 46.4159C83.1099 46.1623 83.1818 45.9009 83.2502 45.6505C83.3274 45.3637 83.5748 45.2496 83.8415 45.4129C85.0116 46.1354 86.1678 46.8754 86.9748 47.9639C87.1766 48.2349 87.2152 48.5296 87.1906 48.8449C86.9731 51.6337 86.8696 54.4256 86.8555 57.2192C86.8555 57.338 86.8485 57.4568 86.8327 57.5741C86.7222 58.406 86.4889 58.5961 85.5783 58.5818C85.1327 58.5755 84.6853 58.5692 84.2415 58.5375C83.3309 58.4741 82.9713 58.1588 82.8906 57.3507C82.8572 57.0211 82.866 56.6883 82.8642 56.3572C82.8625 54.8408 82.8642 53.326 82.8642 51.8096V51.8127Z" fill="#6C6C6C"></path><path d="M46.0953 52.6012C45.9971 51.7488 46.0778 50.8979 46.1129 50.047C46.1375 49.4623 46.2725 48.8823 46.0708 48.2897C45.962 47.9697 46.2304 47.6528 46.5076 47.5181C47.3813 47.0934 47.9813 46.3946 48.7112 45.829C48.8498 45.7212 48.9621 45.5818 49.1094 45.4883C49.4164 45.2934 49.741 45.4138 49.82 45.7434C49.841 45.8337 49.841 45.9335 49.8252 46.0254C49.527 47.7668 49.6814 49.5241 49.6568 51.2718C49.627 53.3761 49.6884 55.4835 49.9726 57.5782C50.0463 58.1154 49.8936 58.2485 49.2831 58.1629C49.055 58.1312 48.8778 58.212 48.6778 58.2485C48.1919 58.334 47.7164 58.4355 47.2041 58.3325C46.6708 58.2247 46.3585 57.9522 46.2708 57.4927C46.1813 57.0284 46.1146 56.553 46.1059 56.0824C46.0831 54.9226 46.0989 53.7643 46.0989 52.6044L46.0953 52.6012Z" fill="#6C6C6C"></path><path d="M115.255 51.4224C115.246 50.1009 115.069 48.9743 114.881 47.8541C113.512 39.6763 109.951 32.3685 104.161 25.9527C103.067 24.739 101.886 23.5934 100.665 22.481C100.398 22.2386 100.149 22.1562 99.7701 22.199C98.5965 22.3321 97.421 22.4145 96.2526 22.1309C95.4613 21.9391 94.7192 21.6492 93.9929 21.3148C89.2823 19.144 84.3735 17.428 79.2892 16.1239C76.0786 15.3 72.8031 14.7755 69.4873 14.4301C66.2118 14.0894 62.9328 14.0545 59.6626 14.3366C55.7626 14.6741 51.9327 15.357 48.2642 16.6627C44.9905 17.8273 41.7817 19.1139 38.6869 20.6303C37.9483 20.9916 37.2027 21.3402 36.4027 21.5794C35.1921 21.9423 33.9903 22.0469 32.8219 21.4606C32.5658 21.3323 32.3851 21.3845 32.1956 21.5541C31.9166 21.8044 31.6219 22.0405 31.3412 22.2909C23.6306 29.1725 18.8463 37.4295 17.041 47.0887C16.6831 49.0076 16.455 50.9391 16.4234 52.8865C16.4199 53.1194 16.3638 53.3603 16.4708 53.5885C16.7024 53.6439 16.7182 53.4712 16.7778 53.354C16.8112 53.2906 16.8217 53.2177 16.8427 53.1495C17.3585 51.4367 18.5901 50.5129 20.5568 50.3766C22.1902 50.2641 23.8077 50.2736 25.3867 50.7363C27.4271 51.3337 28.7183 52.9087 28.7622 54.8339C28.9745 64.0543 29.1903 73.2746 29.4078 82.495C29.4271 83.3474 29.4833 84.2015 29.4903 85.054C29.4991 85.9461 29.278 86.7922 28.771 87.5686C28.1008 88.5954 27.1201 89.2514 25.8078 89.3465C24.4253 89.4463 23.0428 89.6364 21.6463 89.5493C20.7358 89.4922 19.8954 89.2498 19.1761 88.7269C18.7129 88.3894 18.4059 87.9489 18.2515 87.4324C18.1691 87.1582 18.0375 87.1012 17.7445 87.2074C13.7181 88.6746 10.0725 87.9426 6.77419 85.5579C4.20048 83.6976 2.51273 81.2448 1.47939 78.4544C-0.873275 72.0957 -0.487305 65.8986 3.10222 59.963C4.32679 57.938 6.01804 56.2584 8.20053 55.0161C8.93563 54.5978 9.70757 54.2445 10.5339 54.0004C10.8585 53.9054 10.9865 53.7485 10.9585 53.4284C10.8971 52.7201 10.8514 52.0087 10.8444 51.2972C10.7549 41.4035 13.4427 32.1768 19.3077 23.8057C27.871 11.5906 40.0571 3.91989 55.7292 1.02021C84.9489 -4.3862 113.805 12.2212 120.904 38.3738C122.207 43.1749 122.707 48.0394 122.46 52.9721C122.451 53.1622 122.46 53.3524 122.432 53.5409C122.386 53.8515 122.535 54.0115 122.851 54.1256C125.965 55.2443 128.167 57.2883 129.846 59.8347C131.593 62.4856 132.516 65.3837 132.86 68.4402C133.244 71.8406 132.846 75.1634 131.586 78.3863C130.483 81.2068 128.806 83.6945 126.2 85.6054C124.406 86.9221 122.376 87.7429 120.048 87.9204C118.42 88.044 116.856 87.8158 115.356 87.2454C115.058 87.1313 114.877 87.1028 114.765 87.4292C114.267 88.8996 112.974 89.3988 111.458 89.5398C110.016 89.6729 108.57 89.4796 107.142 89.3322C105.198 89.1326 103.8 87.6669 103.59 85.7654C103.547 85.3899 103.553 85.008 103.56 84.6293C103.735 76.8303 103.916 69.0328 104.095 61.2338C104.144 59.1248 104.195 57.0142 104.239 54.9052C104.279 52.9135 105.598 51.3052 107.711 50.7173C109.611 50.1896 111.537 50.2087 113.472 50.5319C114.1 50.6365 114.609 50.9756 115.251 51.4224H115.255ZM66.7066 0.760345C62.5662 0.763514 58.8521 1.12479 54.9152 1.90754C37.3237 5.40142 22.8007 16.3616 15.8778 31.3766C13.7655 35.959 12.4585 40.7253 11.9146 45.6627C11.6444 48.1203 11.6409 50.5858 11.7427 53.0513C11.7672 53.6392 11.7971 53.6677 12.4392 53.5694C13.3024 53.4379 14.162 53.4427 15.0287 53.5061C15.5304 53.5425 15.534 53.5393 15.5743 53.0687C15.6041 52.7138 15.634 52.3589 15.6533 52.0039C15.855 48.003 16.662 44.1019 18.034 40.2959C24.413 22.592 41.9729 10.2168 62.5293 8.96185C67.9908 8.6291 73.3751 9.1108 78.6786 10.3547C100.016 15.3522 115.421 32.7076 116.174 52.6076C116.183 52.8437 116.2 53.0814 116.251 53.3127C116.325 53.6471 116.521 53.7691 116.934 53.6804C118.253 53.3967 119.583 53.3983 120.918 53.6106C121.591 53.7184 121.595 53.7025 121.655 53.0798C121.662 53.0085 121.663 52.9372 121.667 52.8675C121.876 48.2961 121.456 43.7787 120.32 39.315C114.57 16.7498 92.3122 0.739746 66.7066 0.760345ZM17.3989 70.5223C17.3989 70.5223 17.4147 70.5223 17.4235 70.5223C17.3814 69.7174 17.3287 68.9124 17.2971 68.1075C17.1638 64.6722 17.0392 61.237 16.9077 57.8017C16.8726 56.9017 16.8006 56.0017 16.7954 55.1017C16.7936 54.6802 16.5901 54.517 16.1743 54.4378C15.2182 54.2571 14.262 54.1557 13.2831 54.2239C10.9427 54.3855 8.93913 55.2506 7.17595 56.607C5.17768 58.1456 3.75486 60.066 2.74256 62.2336C0.721483 66.561 0.333759 71.0341 1.41097 75.6118C2.07413 78.4323 3.31274 81.0261 5.36014 83.2698C6.49173 84.5089 7.81982 85.5357 9.41984 86.2582C11.7322 87.3008 14.1304 87.4973 16.6041 86.8239C18.0849 86.4214 18.0673 86.4088 18.0077 85.0191C17.7989 80.1879 17.6007 75.3551 17.3971 70.5239L17.3989 70.5223ZM115.625 70.611C115.597 70.611 115.569 70.611 115.541 70.611C115.541 71.2021 115.558 71.7947 115.537 72.3857C115.465 74.4456 115.379 76.507 115.3 78.5669C115.205 80.9818 115.123 83.3981 115.009 85.813C114.99 86.2234 115.174 86.4024 115.562 86.5466C117.256 87.1773 119.006 87.3611 120.807 87.0917C123.116 86.7463 125.027 85.71 126.676 84.2475C128.213 82.8848 129.365 81.2796 130.22 79.5034C132.258 75.2632 132.665 70.863 131.697 66.3487C131.106 63.5932 129.962 61.0373 128.092 58.7746C126.802 57.2139 125.241 55.9336 123.281 55.0827C121.402 54.2682 119.428 53.983 117.383 54.3459C116.081 54.5756 116.281 54.4172 116.225 55.5485C116.076 58.5068 115.979 61.4683 115.863 64.4282C115.783 66.4881 115.705 68.5496 115.626 70.6094L115.625 70.611ZM114.825 70.1499C114.825 70.1499 114.828 70.1499 114.83 70.1499C114.911 68.2089 114.99 66.2663 115.07 64.3252C115.165 62.0514 115.27 59.7792 115.351 57.5054C115.397 56.2505 115.479 54.9971 115.383 53.7406C115.281 52.4286 114.318 51.3448 112.969 51.2022C111.376 51.0326 109.77 51.0326 108.197 51.3844C106.261 51.817 105.211 53.0608 105.104 54.8592C104.94 57.5577 104.956 60.2609 104.877 62.9609C104.672 69.8774 104.535 76.797 104.374 83.7151C104.361 84.2601 104.361 84.8052 104.381 85.3503C104.435 86.9142 105.447 88.2151 106.995 88.5399C108.426 88.8394 109.909 88.9377 111.372 88.8632C113.198 88.7681 114.104 87.8364 114.172 86.2059C114.256 84.1936 114.353 82.1812 114.434 80.1689C114.569 76.8303 114.697 73.4901 114.826 70.1515L114.825 70.1499ZM28.3131 69.4448C28.2832 68.4323 28.2271 66.7036 28.185 64.9749C28.1446 63.2446 28.1289 61.5143 28.0868 59.7855C28.0482 58.1741 28.0025 56.5642 27.9376 54.9527C27.8569 52.9388 26.6604 51.6854 24.4727 51.3067C23.1235 51.0722 21.7586 51.0738 20.3954 51.1641C19.0498 51.2545 18.0428 52.0435 17.7182 53.2256C17.5849 53.7121 17.548 54.2064 17.5673 54.7071C17.6849 57.6433 17.7954 60.581 17.9164 63.5171C18.0989 67.9696 18.2919 72.4206 18.4743 76.8715C18.6024 79.9978 18.7182 83.124 18.8428 86.2503C18.8498 86.4389 18.8901 86.6258 18.9094 86.8144C18.9919 87.6273 19.5007 88.1612 20.2796 88.5098C20.827 88.7554 21.4077 88.9139 22.0218 88.8885C23.2007 88.8426 24.3814 88.7982 25.5464 88.6287C27.3903 88.3593 28.5657 87.1313 28.6271 85.4454C28.6464 84.924 28.6482 84.4027 28.6376 83.8814C28.5376 79.3085 28.4324 74.7355 28.3131 69.4448ZM33.1254 20.8014C33.9044 21.2673 34.6535 21.2388 35.4079 21.0993C36.2641 20.9409 37.0448 20.5986 37.8062 20.2215C40.4536 18.9111 43.1975 17.7829 45.9642 16.6943C50.1151 15.0639 54.4538 14.091 58.938 13.6616C62.1258 13.3573 65.3276 13.3478 68.5276 13.6093C72.3786 13.9246 76.1716 14.5299 79.8839 15.5044C84.8559 16.8084 89.67 18.4864 94.2806 20.624C95.1718 21.0375 96.0859 21.3972 97.0806 21.5335C97.8122 21.6333 98.5543 21.6793 99.3193 21.4368C95.9929 17.859 86.5366 13.0642 79.1243 11.2309C69.3645 8.81766 59.6626 9.05534 50.0642 11.9519C43.7747 13.8501 38.15 16.8037 33.1254 20.7999V20.8014Z" fill="#303030"></path></g><rect x="66.5" y="146" width="3.87379" height="63.7983" fill="#D9D9D9"></rect><g filter="url(#filter0_d_2067_5309)"><ellipse cx="68.4372" cy="214.4" rx="44.5485" ry="4.60084" fill="#D9D9D9"></ellipse></g><path d="M96.4453 154.853C96.9211 153.954 97.6028 153.09 98.5445 152.826C99.6001 152.531 100.758 153.106 101.417 154.028C102.075 154.948 102.297 156.146 102.279 157.299C102.251 158.972 101.729 160.666 100.666 161.908C100.072 162.602 99.3082 163.135 98.4685 163.433C97.8268 163.661 96.5992 164.009 96.0634 163.422C95.5436 162.853 95.4297 161.454 95.3517 160.706C95.2537 159.763 95.2817 158.807 95.4377 157.873C95.6136 156.816 95.9515 155.789 96.4473 154.855L96.4453 154.853Z" fill="#7F9868"></path><path d="M96.0953 167.379C97.2969 166.86 98.5224 166.335 99.8179 166.236C101.113 166.135 102.511 166.527 103.347 167.573C103.644 167.947 103.86 168.383 104.066 168.82C104.41 169.545 104.75 170.332 104.648 171.138C104.484 172.429 103.185 173.291 101.951 173.325C100.718 173.359 99.552 172.768 98.4684 172.144C97.2829 171.458 96.1073 170.701 95.1377 169.695C94.8298 169.377 94.216 168.839 94.4 168.312C94.5839 167.786 95.6515 167.569 96.0933 167.379H96.0953Z" fill="#7F9868"></path><path d="M92.1927 160.542C91.611 159.398 90.7453 158.363 89.6057 157.88C88.4642 157.397 87.0267 157.574 86.191 158.525C85.2994 159.542 85.3034 161.181 85.9051 162.412C86.5049 163.644 87.5865 164.534 88.7021 165.262C89.5298 165.802 90.3954 166.274 91.2911 166.677C91.8609 166.932 92.6646 167.411 92.9824 166.713C93.2423 166.143 93.1983 165.196 93.1864 164.578C93.1604 163.176 92.8225 161.78 92.1927 160.544V160.542Z" fill="#7F9868"></path><path d="M93.206 174.165C94.8833 174.34 96.5667 174.941 97.8022 176.149C99.0377 177.358 99.7495 179.237 99.3536 180.964C99.2097 181.591 98.8618 182.243 98.27 182.409C98.0181 182.481 97.7522 182.453 97.4983 182.394C96.5267 182.165 95.711 181.466 95.0513 180.68C94.3915 179.893 93.8477 179.003 93.178 178.225C92.4843 177.419 91.6666 176.744 90.8529 176.075C90.609 175.875 90.3651 175.668 90.1012 175.5C89.8713 175.352 89.0156 174.681 89.4014 174.449C90.403 173.846 92.1064 174.051 93.206 174.165Z" fill="#7F9868"></path><path d="M86.6144 171.536C86.7323 170.294 86.4025 169.033 85.8167 167.949C85.2309 166.864 84.3972 165.947 83.4796 165.158C82.6399 164.437 81.6843 163.8 80.6107 163.642C79.5371 163.483 78.3316 163.907 77.7898 164.899C77.328 165.742 77.4319 166.839 77.8697 167.698C78.3056 168.556 79.0313 169.214 79.793 169.767C81.2504 170.823 82.9058 171.57 84.6352 171.952C85.143 172.063 86.5364 172.365 86.6144 171.538V171.536Z" fill="#7F9868"></path><path d="M84.3877 178.173C85.1674 178.006 85.9711 178.2 86.7448 178.392C87.4505 178.569 88.1623 178.746 88.822 179.067C90.2814 179.776 91.391 181.151 92.0588 182.695C92.4906 183.69 92.7545 184.821 92.4926 185.879C92.2307 186.938 91.3171 187.866 90.2814 187.82C89.3458 187.778 88.5981 187.014 87.9843 186.268C87.4205 185.584 86.8867 184.875 86.3809 184.141C85.7872 183.279 85.2294 182.376 84.4837 181.661C84.0099 181.208 82.3465 180.301 82.3885 179.539C82.4265 178.831 83.8699 178.282 84.3897 178.17L84.3877 178.173Z" fill="#7F9868"></path><path d="M80.6275 173.941C80.1097 172.753 79.172 171.832 78.2024 171.017C77.3527 170.302 76.4171 169.627 75.3435 169.45C74.2699 169.273 73.0324 169.731 72.5806 170.773C72.0528 171.988 72.7925 173.456 73.8321 174.221C74.8717 174.987 76.1492 175.274 77.3288 175.763C77.9645 176.027 78.5743 176.351 79.154 176.733C79.4999 176.961 80.0597 177.533 80.5115 177.303C81.4252 176.839 80.9334 174.635 80.6295 173.941H80.6275Z" fill="#7F9868"></path><path d="M79.1617 184.969C79.7754 184.978 80.3892 185.049 80.989 185.182C82.7343 185.568 84.4157 186.513 85.4633 188.036C86.5108 189.559 86.8207 191.695 86.001 193.364C85.7831 193.804 85.4773 194.222 85.0474 194.427C84.2697 194.798 83.3541 194.37 82.6903 193.8C81.3208 192.628 80.4992 190.909 79.4736 189.394C78.6519 188.181 77.6323 187.156 76.7726 185.984C76.2888 185.324 76.6706 185.269 77.3464 185.136C77.9441 185.018 78.5539 184.963 79.1617 184.969Z" fill="#7F9868"></path><path d="M74.4996 180.595C73.9299 179.397 73.2741 178.228 72.3805 177.277C71.4868 176.326 70.3312 175.603 69.0697 175.453C68.5619 175.392 68.0301 175.43 67.5683 175.662C67.1465 175.875 66.8106 176.237 66.4867 176.594C66.1748 176.938 65.857 177.294 65.683 177.733C65.3152 178.669 65.707 179.787 66.3948 180.494C67.0825 181.2 68.0121 181.576 68.9258 181.89C70.4492 182.413 72.0146 182.833 73.598 183.098C75.3173 183.387 75.0874 181.827 74.4996 180.593V180.595Z" fill="#7F9868"></path><path d="M76.8363 191.581C78.2298 192.461 79.7412 193.496 80.1631 195.15C80.4789 196.386 80.0491 197.797 79.1095 198.607C78.8915 198.795 78.6396 198.957 78.3598 198.999C77.8839 199.071 77.4281 198.79 77.0223 198.516C76.5424 198.191 76.0506 197.852 75.7268 197.356C75.4969 197.006 75.3609 196.599 75.237 196.192C74.8631 194.96 74.5692 193.682 73.9574 192.562C73.5636 191.843 72.8019 190.795 74.0554 190.577C75.031 190.409 76.0406 191.081 76.8343 191.581H76.8363Z" fill="#7F9868"></path><path d="M70.3233 187.509C69.6556 186.777 68.9758 186.039 68.1522 185.514C67.3285 184.988 66.3269 184.695 65.3912 184.934C64.1877 185.241 63.264 186.488 63.272 187.794C63.28 189.099 64.2177 190.335 65.4232 190.628C66.6187 190.917 67.8283 190.358 69.0198 190.05C69.5996 189.901 71.149 190.042 71.5469 189.618C72.1206 189.004 70.6832 187.901 70.3233 187.509Z" fill="#7F9868"></path><path d="M97.3326 178.924C97.2966 178.876 93.758 174.124 87.2305 174.233C87.4764 174.025 87.7163 173.818 87.9522 173.611C87.9522 173.611 87.9542 173.611 87.9562 173.611C87.9602 173.609 87.9622 173.603 87.9662 173.601C89.7835 172.019 91.3349 170.536 92.6464 169.121C96.6808 167.9 102.075 170.46 102.129 170.485C102.235 170.536 102.359 170.485 102.407 170.376C102.455 170.264 102.411 170.133 102.303 170.083C102.087 169.979 97.2506 167.685 93.1842 168.53C96.4389 164.877 98.0743 161.657 98.5341 158.328C98.5501 158.206 98.4682 158.094 98.3562 158.077C98.2422 158.061 98.1343 158.143 98.1183 158.265C97.6824 161.416 96.153 164.481 93.1322 167.944C92.9902 163.915 88.364 160.113 88.1581 159.944C88.0701 159.891 87.9342 159.887 87.8622 159.984C87.7922 160.081 87.8082 160.22 87.9002 160.296C87.9502 160.338 92.9523 164.447 92.7064 168.423C91.3749 169.899 89.7735 171.449 87.8742 173.109C84.1576 167.577 79.7633 165.748 79.7193 165.729C79.6114 165.685 79.4894 165.742 79.4474 165.856C79.4055 165.97 79.4594 166.098 79.5674 166.143C79.6094 166.16 83.9057 167.955 87.5483 173.39C85.813 174.891 83.8398 176.484 81.5986 178.194C81.5046 178.266 81.4147 178.342 81.3207 178.416C79.8993 173.506 74.8712 171.565 74.8192 171.544C74.7092 171.504 74.5893 171.563 74.5513 171.679C74.5133 171.795 74.5733 171.924 74.6793 171.962C74.7292 171.981 79.6733 173.888 80.9688 178.696C80.7869 178.844 80.607 178.996 80.4311 179.148C80.4151 179.158 80.3991 179.171 80.3851 179.188C78.6178 180.711 77.1343 182.387 75.8948 184.083C72.9499 178.363 67.578 177.91 67.522 177.905C67.406 177.897 67.3061 177.99 67.2981 178.112C67.2901 178.234 67.3781 178.34 67.494 178.348C67.548 178.353 72.8 178.796 75.6169 184.471C75.443 184.716 75.275 184.961 75.1131 185.205C75.0931 185.226 75.0771 185.249 75.0651 185.277C74.0895 186.747 73.2918 188.202 72.642 189.554C67.1861 186.319 64.7051 186.867 64.6011 186.893C64.4892 186.92 64.4192 187.038 64.4432 187.158C64.4552 187.213 64.4852 187.257 64.5251 187.289C64.5731 187.325 64.6331 187.34 64.6951 187.325C64.7191 187.319 67.1561 186.806 72.4521 189.951C72.4161 190.029 72.3821 190.103 72.3482 190.181C72.3362 190.193 72.3222 190.206 72.3142 190.221C72.2982 190.25 72.2902 190.284 72.2862 190.316C70.7088 193.804 70.161 196.439 70.149 196.493C70.131 196.582 70.167 196.668 70.231 196.719C70.255 196.736 70.2809 196.751 70.3109 196.755C70.4249 196.78 70.5368 196.704 70.5608 196.584C70.5708 196.531 71.0966 194.013 72.5981 190.653C78.5358 194.359 78.2259 196.955 78.2199 197.002C78.2039 197.088 78.2399 197.172 78.3039 197.221C78.3279 197.24 78.3559 197.253 78.3858 197.259C78.4998 197.282 78.6098 197.204 78.6317 197.084C78.6537 196.966 79.0816 194.175 72.78 190.252C73.4517 188.795 74.3054 187.196 75.373 185.581C80.629 185.256 84.0437 191.706 84.0777 191.771C84.1336 191.879 84.2616 191.919 84.3635 191.86C84.4655 191.801 84.5035 191.666 84.4475 191.558C84.4135 191.49 81.0148 185.064 75.6809 185.125C76.9984 183.204 78.6298 181.278 80.627 179.551C87.4544 179.31 90.1113 184.847 90.1373 184.901C90.1893 185.013 90.3133 185.058 90.4192 185.003C90.5232 184.948 90.5672 184.815 90.5152 184.705C90.4892 184.648 87.8622 179.154 81.1608 179.097C81.3847 178.914 81.6106 178.73 81.8445 178.553C83.6158 177.201 85.2232 175.921 86.6787 174.7C93.3421 174.303 96.9607 179.146 96.9967 179.194C97.0687 179.293 97.1986 179.31 97.2926 179.234C97.3846 179.16 97.4026 179.021 97.3306 178.922L97.3326 178.924Z" fill="#539173"></path><defs><filter id="filter0_d_2067_5309" x="20.7887" y="209.699" width="95.2971" height="15.4021" filterUnits="userSpaceOnUse" color-interpolation-filters="sRGB"><feFlood flood-opacity="0" result="BackgroundImageFix"></feFlood><feColorMatrix in="SourceAlpha" type="matrix" values="0 0 0 0 0 0 0 0 0 0 0 0 0 0 0 0 0 0 127 0" result="hardAlpha"></feColorMatrix><feOffset dy="3"></feOffset><feGaussianBlur stdDeviation="1.55"></feGaussianBlur><feComposite in2="hardAlpha" operator="out"></feComposite><feColorMatrix type="matrix" values="0 0 0 0 0 0 0 0 0 0 0 0 0 0 0 0 0 0 0.13 0"></feColorMatrix><feBlend mode="normal" in2="BackgroundImageFix" result="effect1_dropShadow_2067_5309"></feBlend><feBlend mode="normal" in="SourceGraphic" in2="effect1_dropShadow_2067_5309" result="shape"></feBlend></filter><clipPath id="clip0_2067_5309"><rect width="133" height="146" fill="white"></rect></clipPath></defs></svg> 