<?xml version="1.0" encoding="UTF-8"?> <svg xmlns="http://www.w3.org/2000/svg" width="269" height="198" viewBox="0 0 269 198" fill="none"><g clip-path="url(#clip0_2067_5382)"><path d="M204.016 25.4217C203.01 15.7919 207.062 5.7249 214.246 0C210.733 11.7651 213.371 27.2345 205.529 37.0148C223.285 28.037 233.574 41.9946 243.659 38.5482C240.955 42.7541 235.784 44.3161 231.087 43.9363C221.186 43.141 218.068 37.6167 203.904 38.584C205.464 34.113 204.503 30.036 204.016 25.4217Z" fill="#8BC084"></path><path d="M185.05 40.6833C179.8 32.6083 183.412 19.7828 176.116 13.2411C191.313 11.2778 192.043 37.5665 195.51 46.1073C196.602 44.3519 198.642 43.6067 200.569 43.2986C217.075 40.626 221.917 60.545 232.844 55.3861C226.009 59.6278 216.904 59.0618 210.555 54.0032C207.792 51.8036 205.444 48.7942 202.181 47.655C199.286 46.6447 189.806 47.9846 185.063 40.6833H185.05Z" fill="#8BC084"></path><path d="M173.531 52.871C170.472 45.8922 169.972 34.2991 158.42 30.0717C168.485 23.8023 179.34 51.6601 185.537 60.1006C196.043 50.7215 206.839 73.4205 218.509 68.9638C208.214 79.1597 193.773 63.0956 190.655 61.5479C186.076 59.2838 178.82 64.9657 173.524 52.871H173.531Z" fill="#8BC084"></path><path d="M165.012 71.3933C158.933 68.1404 144.96 63.9201 146.841 44.252C151.558 55.4367 154.71 54.7488 161.163 57.665C169.163 61.2834 175.932 69.9889 176.458 79.411C178.222 76.3515 180.886 75.1621 184.175 75.5992C194.365 76.9462 201.03 92.5303 208.931 89.4278C199.951 98.0331 189.425 81.8902 180.175 80.4715C178.59 80.2279 176.932 82.0908 175.643 81.3886C173.176 80.0487 173.801 76.1008 165.018 71.3933H165.012Z" fill="#8BC084"></path><path d="M162.295 96.1915C157.348 90.2731 153.729 88.8401 151.532 83.9392C148.815 77.899 147.42 70.4832 142.21 66.2486C146.868 64.8729 151.914 67.4165 155.177 71.2928C161.735 79.0884 163.17 90.8177 169.36 98.8999C180.892 84.9781 192.53 112.721 201.951 102.525C197.326 111.84 184.307 103.328 181.307 101.945C173.485 98.341 170.367 103.106 168.413 102.117C167.406 101.608 165.433 99.946 162.295 96.1843V96.1915Z" fill="#8BC084"></path><path d="M138.362 92.3434C156.295 91.6484 157.104 113.423 164.137 123.153C164.65 120.825 166.847 120.051 168.801 118.962C179.912 112.778 181.274 115.974 189.701 118.138C193.379 119.084 197.892 118.725 200.036 115.336C194.885 128.083 184.09 121.29 176.472 121.369C173.656 121.398 171.11 122.444 168.63 123.805C165.834 125.339 165.308 127.065 163.525 129.795C161.143 126.335 156.927 125.245 154.15 122.157C147.151 114.362 150.861 102.145 138.375 92.3506L138.362 92.3434Z" fill="#8BC084"></path><path d="M152.861 145.065C144.526 137.993 145.164 122.602 136.388 116.197C151.789 115.201 152.519 140.486 163.867 148.167C166.656 138.387 176.268 135.084 185.636 135.112C189.589 135.127 194.819 135.234 196.004 130.462C196.694 134.983 193.188 139.175 189.247 140.773C185.307 142.371 180.971 142.113 176.781 142.464C167.525 143.223 167.827 146.476 164.492 148.755C161.518 150.782 155.328 147.157 152.868 145.072L152.861 145.065Z" fill="#8BC084"></path><path d="M205.523 37.0146C199.773 41.6576 194.951 46.6302 190.372 52.6274C186.616 57.5426 183.774 63.2102 181.11 68.9136C174.801 82.4341 169.307 96.5064 166.13 111.281C162.953 126.055 162.137 141.582 165.143 156.392" stroke="#6A9065" stroke-linecap="round" stroke-linejoin="round"></path><path d="M51.2278 120.094C51.6159 121.032 57.7472 121.197 58.734 121.262C60.8128 121.391 66.1218 119.872 62.4049 117.479C59.7471 115.766 49.4055 117.908 42.6098 105.778C39.9389 100.999 38.5113 95.539 37.1101 90.1581C39.4389 90.6596 41.3072 92.5011 43.4584 93.5973C50.8923 97.3948 53.2343 87.3064 45.2544 85.5581C37.7153 83.9101 32.4721 89.8428 26.9592 54.1463C28.8999 54.4043 30.7156 57.2488 32.2616 55.9304C33.1958 55.128 32.8076 53.394 31.8998 52.5629C27.2487 48.2996 23.3936 56.8332 18.8215 13.291C55.767 41.5215 52.1619 42.3454 53.6224 51.309C55.3197 61.7628 58.2867 56.3532 57.1222 45.885C57.2735 47.275 66.5428 51.1155 68.0822 52.0183C77.7857 57.7002 77.1541 61.4404 77.9304 74.4522C78.7988 89.0117 78.0225 86.2029 78.437 87.335C79.7527 90.9176 84.0617 85.5223 82.3118 71.0488C100.541 81.8466 110.731 104.875 102.936 131.15C97.3505 149.972 56.2144 132.11 51.2212 120.108L51.2278 120.094Z" fill="#6A9065"></path><path d="M18.8215 13.291C49.8068 51.6959 79.4764 124.035 98.6597 136.953" stroke="#8BC084" stroke-linecap="round" stroke-linejoin="round"></path><path d="M22.0779 36.8926C28.0776 42.4813 35.1365 45.5623 42.3137 48.0701" stroke="#8BC084" stroke-linecap="round" stroke-linejoin="round"></path><path d="M66.0889 51.0371C70.3781 63.9199 68.9308 78.5152 67.3256 92.1002" stroke="#8BC084" stroke-linecap="round" stroke-linejoin="round"></path><path d="M40.4388 101.135C52.7606 106.824 66.0955 112.52 79.2527 112.52" stroke="#8BC084" stroke-linecap="round" stroke-linejoin="round"></path><path d="M94.1072 81.0371C97.8702 97.5526 97.4623 114.992 92.3113 131.064" stroke="#8BC084" stroke-linecap="round" stroke-linejoin="round"></path><path d="M29.4525 67.3584C38.0376 71.7363 47.2148 75.1254 57.017 73.6565" stroke="#8BC084" stroke-linecap="round" stroke-linejoin="round"></path><path d="M6.30892 93.1103C1.17759 89.6138 0.414473 100.404 12.2823 105.155C15.3545 106.258 18.157 106.96 21.1898 108.587C20.5056 100.397 24.1436 93.225 24.1041 85.6515C25.2159 77.5478 14.5519 80.5141 19.0517 104.589C15.223 99.4084 10.9074 95.6969 6.30234 93.1175L6.30892 93.1103Z" fill="#8BC084"></path><path d="M12.9138 110.27C10.9534 109.726 9.4469 110.256 9.85478 113.201C11.1113 120.86 18.1373 121.133 31.5445 122.573C28.6565 115.379 32.1168 108.286 30.8669 101.507C30.2354 91.6483 19.5122 100.741 27.9789 118.489C27.4131 118.482 19.1898 112.327 12.9204 110.263L12.9138 110.27Z" fill="#8BC084"></path><path d="M17.4991 129.659C17.2031 131.587 19.8214 136.237 25.6566 137.584C33.9983 139.304 40.327 134.868 48.1621 135.413C42.715 129.294 43.34 121.377 41.8664 114.355C40.9059 109.153 37.8666 108.723 36.1627 111.145C34.3733 113.574 33.6694 124.329 43.1689 132.404C38.0902 130.62 18.3741 125.26 17.4991 129.659Z" fill="#8BC084"></path><path d="M40.6099 148.89C48.8003 150.244 49.9713 143.624 65.0297 141.689C57.4051 136.187 57.859 117.593 51.0699 121.247C44.3597 123.984 58.6748 141.023 59.8721 140.342C37.7745 139.139 31.63 145.344 40.6033 148.89H40.6099Z" fill="#8BC084"></path><path d="M56.8328 157.159C65.3324 159.724 70.5361 152.144 90.068 142.284C83.838 142.514 74.6082 124.4 67.352 124.888C58.8261 125.081 68.0625 140.006 78.6738 142.005C80.575 142.456 82.4763 142.822 85.0156 142.901C78.8975 143.968 69.5887 146.899 62.4378 149.378C55.4381 152 50.5962 154.178 56.8328 157.152V157.159Z" fill="#8BC084"></path><path d="M12.1837 84.8633C18.2623 113.688 37.8732 133.271 58.1156 139.719C78.3778 146.956 99.2781 141.066 108.403 137.254" stroke="#6A9065" stroke-linecap="round" stroke-linejoin="round"></path><path d="M7.5852 75.6993C4.82875 65.0663 7.91413 57.5573 10.2693 56.1816C12.8481 54.6053 14.7033 59.1622 14.6441 68.1544C14.4664 81.7538 15.9466 95.7328 13.9138 92.5516C11.0982 87.7438 9.22986 81.8039 7.5852 75.6993Z" fill="#8BC084"></path><path d="M182.129 162.949C178.8 163.185 177.037 162.075 175.998 158.012C174.11 150.618 174.965 121.599 180.708 105.607C192.227 73.5069 223.298 47.1752 268.671 43.7432C266.244 71.7228 260.02 100.19 244.199 122.387C226.127 147.737 200.878 161.623 182.129 162.942V162.949Z" fill="#6A9065"></path><path d="M268.671 43.7432C226.91 69.1004 194.208 113.094 178.478 162.275" stroke="#8BC084" stroke-linecap="round" stroke-linejoin="round"></path><path d="M248.56 46.9463C245.376 52.0622 243.791 58.0378 242.791 62.7955C250.902 63.2254 259.448 61.4986 267.026 58.3245" stroke="#8BC084" stroke-linecap="round" stroke-linejoin="round"></path><path d="M227.542 54.5195C222.594 64.5363 219.884 75.7855 219.279 87.1422C234.41 88.3674 248.297 86.5331 262.606 81.0375" stroke="#8BC084" stroke-linecap="round" stroke-linejoin="round"></path><path d="M201.97 72.5039C197.734 86.225 196.786 101.773 199.161 116.017C217.022 119.543 235.706 116.677 252.356 108.824" stroke="#8BC084" stroke-linecap="round" stroke-linejoin="round"></path><path d="M181.425 103.629C177.491 118.296 179.86 133.593 183.603 147.916C200.135 148.475 216.253 145.523 231.679 137.126" stroke="#8BC084" stroke-linecap="round" stroke-linejoin="round"></path><path d="M230.594 197.821C227.041 198.358 243.758 197.663 182.07 196.431C61.2536 194.031 25.6764 200.529 13.6901 196.417C-2.34201 190.921 -3.96036 165.32 7.12463 156.586C13.6243 151.463 3.44719 156.213 213.193 153.777C225.811 153.634 240.712 153.87 228.62 161.945C223.535 165.334 220.213 175.738 222.719 182.373C226.403 192.11 230.265 192.261 231.581 193.679C232.502 194.668 233.199 197.427 230.594 197.814V197.821Z" fill="#8574EE"></path><path d="M230.647 159.344C121.001 164.567 77.5159 152.989 66.4375 162.97C61.1614 167.72 60.3917 176.805 63.2732 183.763C67.5295 194.052 77.0093 193.228 84.9892 192.647C103.745 191.286 229.587 192.991 230.647 194.331C224.265 183.892 223.877 165.671 230.647 159.337V159.344Z" fill="white"></path><path d="M72.1281 187.245C124.257 186.701 166.321 186.256 214.384 185.755" stroke="#FF8854" stroke-linecap="round" stroke-linejoin="round"></path><path d="M67.1546 176.326C90.4232 178.618 113.837 178.575 137.099 176.211" stroke="#FF8854" stroke-linecap="round" stroke-linejoin="round"></path><path d="M146.723 177.629C156.111 178.238 165.518 178.424 174.919 178.202" stroke="#FF8854" stroke-linecap="round" stroke-linejoin="round"></path><path d="M86.055 167.842C129.691 169.827 173.393 169.604 217.022 167.183" stroke="#FF8854" stroke-linecap="round" stroke-linejoin="round"></path><path d="M205.49 121.627C108.264 118.123 53.425 114.834 41.5637 124.608C31.9853 132.503 32.0708 152.394 49.7739 154.049C74.4832 156.349 190.076 154.672 208.352 154.264C208.575 149.943 202.148 151.491 203.576 133.105C204.102 126.313 210.141 121.799 205.49 121.634V121.627Z" fill="#8BC084"></path><path d="M204.852 125.797C204.779 125.797 110.396 125.553 81.0881 124.271C72.9043 123.912 51.4843 122.931 44.4583 127.423C36.7942 132.324 36.0969 147.45 46.1293 149.743C52.6948 151.24 58.6089 151.942 65.3126 151.978C172.36 152.53 196.49 152.852 208.003 151.606C207.089 151.706 201.918 133.772 206.227 125.646C205.76 126.091 205.865 125.697 204.845 125.79L204.852 125.797Z" fill="white"></path><path d="M183.905 131.243C150.039 129.358 116.106 128.491 82.1868 128.649" stroke="#FF8854" stroke-linecap="round" stroke-linejoin="round"></path><path d="M139.862 137.254C107.968 139.074 75.8976 138.2 44.1492 134.653" stroke="#FF8854" stroke-linecap="round" stroke-linejoin="round"></path><path d="M194.872 139.124C182.103 138.515 169.308 138.35 156.525 138.615" stroke="#FF8854" stroke-linecap="round" stroke-linejoin="round"></path><path d="M173.202 146.24C132.204 146.913 91.1798 146.627 50.1949 145.38" stroke="#FF8854" stroke-linecap="round" stroke-linejoin="round"></path><path d="M78.733 87.034C175.991 85.1926 209.536 82.4842 221.246 92.458C230.706 100.512 230.337 120.409 212.615 121.749C187.872 123.626 93.6664 120.33 75.3976 119.614C75.2397 115.293 81.6407 116.948 80.4763 98.5411C80.0487 91.7415 74.0753 87.1272 78.7264 87.034H78.733Z" fill="#FF8854"></path><path d="M79.3053 91.2039C79.3777 91.211 152.407 92.2141 181.728 91.4331C189.918 91.2182 211.351 90.602 218.312 95.2163C225.903 100.246 226.384 115.386 216.318 117.507C209.733 118.897 203.806 119.492 197.102 119.413C90.0614 118.13 87.272 118.403 75.7792 116.962C76.687 117.077 82.121 99.2359 77.9304 91.0391C78.3909 91.4905 78.2922 91.0892 79.3119 91.211L79.3053 91.2039Z" fill="white"></path><path d="M208.819 111.768C179.215 113.115 149.572 113.437 119.948 112.749" stroke="#FF8854" stroke-linecap="round" stroke-linejoin="round"></path><path d="M170.432 105.054C142.598 102.732 114.58 103.09 86.8049 106.136" stroke="#FF8854" stroke-linecap="round" stroke-linejoin="round"></path><path d="M218.502 104.058C207.338 104.46 196.161 104.431 185.004 103.958" stroke="#FF8854" stroke-linecap="round" stroke-linejoin="round"></path><path d="M199.674 96.5991C163.874 95.2736 128.046 94.9081 92.2323 95.5028" stroke="#FF8854" stroke-linecap="round" stroke-linejoin="round"></path><path d="M132.586 136.688L123.369 127.775L114.152 136.688V107.913C114.152 102.382 111.646 102.948 127.941 103.607C129.224 103.657 131.026 103.22 132.184 104.001C133.105 104.624 132.276 136.387 132.579 136.688H132.586Z" fill="#C85960"></path><path d="M182.458 178.568L173.241 169.654L164.025 178.568V149.793C164.025 144.261 161.518 144.827 177.814 145.487C179.096 145.537 180.899 145.1 182.057 145.881C182.978 146.504 182.149 178.267 182.452 178.568H182.458Z" fill="#FFBE61"></path></g><defs><clipPath id="clip0_2067_5382"><rect width="269" height="198" fill="white"></rect></clipPath></defs></svg> 