<svg xmlns="http://www.w3.org/2000/svg" width="26" height="27" viewBox="0 0 26 27" fill="none">
                <path
                  d="M12.9996 0.599609C9.49887 0.599609 9.05866 0.615734 7.6832 0.677009C6.30773 0.741509 5.37087 0.957584 4.55011 1.27686C3.68919 1.60068 2.90938 2.10863 2.2652 2.7652C1.60903 3.40971 1.10114 4.18942 0.776859 5.05011C0.457584 5.86926 0.239897 6.80773 0.177009 8.17836C0.115734 9.55705 0.0996094 9.99565 0.0996094 13.5012C0.0996094 17.0036 0.115734 17.4422 0.177009 18.8176C0.241509 20.1915 0.457584 21.1283 0.776859 21.9491C1.10742 22.7973 1.54763 23.5165 2.2652 24.234C2.98115 24.9516 3.70032 25.3934 4.5485 25.7224C5.37087 26.0416 6.30612 26.2593 7.67997 26.3222C9.05705 26.3835 9.49565 26.3996 12.9996 26.3996C16.5036 26.3996 16.9406 26.3835 18.3176 26.3222C19.6899 26.2577 20.63 26.0416 21.4507 25.7224C22.3111 25.3984 23.0903 24.8904 23.734 24.234C24.4516 23.5165 24.8918 22.7973 25.2224 21.9491C25.54 21.1283 25.7577 20.1915 25.8222 18.8176C25.8835 17.4422 25.8996 17.0036 25.8996 13.4996C25.8996 9.99565 25.8835 9.55705 25.8222 8.17997C25.7577 6.80774 25.54 5.86926 25.2224 5.05011C24.8981 4.1894 24.3902 3.40967 23.734 2.7652C23.09 2.10839 22.3102 1.6004 21.4491 1.27686C20.6267 0.957584 19.6883 0.739897 18.316 0.677009C16.9389 0.615734 16.502 0.599609 12.9964 0.599609H13.0012H12.9996ZM11.8434 2.92483H13.0012C16.4455 2.92483 16.8535 2.93612 18.2128 2.99901C19.4706 3.05545 20.1543 3.26668 20.609 3.44245C21.2105 3.67626 21.641 3.95683 22.0925 4.40833C22.544 4.85984 22.823 5.28876 23.0568 5.89184C23.2341 6.34495 23.4438 7.02865 23.5002 8.2864C23.5631 9.64574 23.576 10.0537 23.576 13.4964C23.576 16.9391 23.5631 17.3486 23.5002 18.708C23.4438 19.9657 23.2325 20.6478 23.0568 21.1026C22.85 21.6627 22.5198 22.1691 22.0909 22.5844C21.6394 23.0359 21.2105 23.3149 20.6074 23.5487C20.1559 23.7261 19.4722 23.9357 18.2128 23.9938C16.8535 24.055 16.4455 24.0695 13.0012 24.0695C9.55692 24.0695 9.14735 24.055 7.78801 23.9938C6.53026 23.9357 5.84817 23.7261 5.39345 23.5487C4.8331 23.3422 4.32617 23.0127 3.90995 22.5844C3.48062 22.1685 3.15001 21.6615 2.94245 21.1009C2.76668 20.6478 2.55545 19.9641 2.49901 18.7064C2.43773 17.347 2.42483 16.9391 2.42483 13.4932C2.42483 10.0489 2.43773 9.64251 2.49901 8.28317C2.55706 7.02542 2.76668 6.34172 2.94406 5.887C3.17787 5.28553 3.45845 4.855 3.90995 4.4035C4.36145 3.952 4.79037 3.67303 5.39345 3.43922C5.84817 3.26185 6.53026 3.05222 7.78801 2.99417C8.97803 2.93935 9.43921 2.92322 11.8434 2.92161V2.92483ZM19.8866 5.06623C19.6833 5.06623 19.482 5.10628 19.2942 5.18407C19.1064 5.26186 18.9357 5.37589 18.792 5.51963C18.6482 5.66338 18.5342 5.83403 18.4564 6.02184C18.3786 6.20965 18.3386 6.41095 18.3386 6.61424C18.3386 6.81752 18.3786 7.01882 18.4564 7.20663C18.5342 7.39444 18.6482 7.56509 18.792 7.70884C18.9357 7.85258 19.1064 7.96661 19.2942 8.0444C19.482 8.1222 19.6833 8.16224 19.8866 8.16224C20.2972 8.16224 20.6909 7.99914 20.9812 7.70884C21.2715 7.41853 21.4346 7.02479 21.4346 6.61424C21.4346 6.20368 21.2715 5.80994 20.9812 5.51963C20.6909 5.22933 20.2972 5.06623 19.8866 5.06623ZM13.0012 6.87546C12.1225 6.86175 11.2499 7.02298 10.4341 7.34976C9.61829 7.67654 8.87566 8.16235 8.24943 8.77889C7.62319 9.39544 7.12586 10.1304 6.78639 10.941C6.44692 11.7516 6.2721 12.6216 6.2721 13.5004C6.2721 14.3792 6.44692 15.2492 6.78639 16.0598C7.12586 16.8704 7.62319 17.6054 8.24943 18.2219C8.87566 18.8385 9.61829 19.3243 10.4341 19.6511C11.2499 19.9779 12.1225 20.1391 13.0012 20.1254C14.7404 20.0982 16.3991 19.3883 17.6194 18.1489C18.8397 16.9094 19.5236 15.2398 19.5236 13.5004C19.5236 11.7611 18.8397 10.0915 17.6194 8.85198C16.3991 7.61251 14.7404 6.90259 13.0012 6.87546ZM13.0012 9.19907C14.1418 9.19907 15.2357 9.65216 16.0422 10.4587C16.8487 11.2652 17.3018 12.359 17.3018 13.4996C17.3018 14.6402 16.8487 15.734 16.0422 16.5406C15.2357 17.3471 14.1418 17.8001 13.0012 17.8001C11.8606 17.8001 10.7668 17.3471 9.96028 16.5406C9.15377 15.734 8.70068 14.6402 8.70068 13.4996C8.70068 12.359 9.15377 11.2652 9.96028 10.4587C10.7668 9.65216 11.8606 9.19907 13.0012 9.19907Z"
                  fill="#356357" />
              </svg>