<svg xmlns="http://www.w3.org/2000/svg" width="27" height="27" viewBox="0 0 27 27" fill="none">
                <path fill-rule="evenodd" clip-rule="evenodd"
                  d="M21.6416 5.643C21.9072 5.53119 22.198 5.49263 22.4836 5.53132C22.7692 5.57002 23.0393 5.68457 23.2656 5.86304C23.4919 6.0415 23.6663 6.27737 23.7705 6.54609C23.8747 6.8148 23.905 7.10655 23.8582 7.39095L21.4201 22.1797C21.1836 23.6062 19.6184 24.4243 18.3102 23.7137C17.2158 23.1193 15.5904 22.2034 14.1284 21.2477C13.3974 20.7693 11.1582 19.2374 11.4334 18.1474C11.6699 17.2154 15.4324 13.713 17.5824 11.6307C18.4263 10.8127 18.0414 10.3407 17.0449 11.0932C14.5702 12.9616 10.597 15.8028 9.28339 16.6026C8.12454 17.3078 7.52039 17.4282 6.79799 17.3078C5.48004 17.0885 4.25777 16.7488 3.26017 16.335C1.91212 15.776 1.97769 13.9226 3.25909 13.383L21.6416 5.643Z"
                  fill="#356357" />
              </svg>