<svg xmlns="http://www.w3.org/2000/svg" width="61" height="61" viewBox="0 0 61 61" fill="none">
            <path
              d="M30.5 59.8C30.4723 56.6842 29.8007 53.6078 28.5272 50.764C27.2537 47.9203 25.406 45.3705 23.1 43.275L16.6825 37.44C14.5378 35.4797 12.8249 33.0942 11.6529 30.4355C10.4808 27.7768 9.87536 24.9031 9.875 21.9975C9.875 10.605 19.11 1.25 30.5 1.25C41.89 1.25 51.125 10.6025 51.125 21.995C51.125 27.8525 48.6525 33.495 44.3175 37.4375L37.8975 43.2725C35.5915 45.368 33.7438 47.9178 32.4703 50.7615C31.1968 53.6053 30.5252 56.6817 30.4975 59.7975L30.5 59.8ZM30.5 59.8V60V59.8575M30.5 28.75C28.8424 28.75 27.2527 28.0915 26.0806 26.9194C24.9085 25.7473 24.25 24.1576 24.25 22.5C24.25 20.8424 24.9085 19.2527 26.0806 18.0806C27.2527 16.9085 28.8424 16.25 30.5 16.25C32.1576 16.25 33.7473 16.9085 34.9194 18.0806C36.0915 19.2527 36.75 20.8424 36.75 22.5C36.75 24.1576 36.0915 25.7473 34.9194 26.9194C33.7473 28.0915 32.1576 28.75 30.5 28.75Z"
              stroke="#002714" />
          </svg>