<svg xmlns="http://www.w3.org/2000/svg" width="14" height="23" viewBox="0 0 14 23" fill="none">
          <path
            d="M1.08573 11.9536L11.5351 21.9099C11.7095 22.0761 11.9411 22.1688 12.182 22.1688C12.4229 22.1688 12.6545 22.0761 12.8289 21.9099L12.8401 21.8986C12.9249 21.8181 12.9925 21.7211 13.0386 21.6136C13.0848 21.5061 13.1086 21.3903 13.1086 21.2733C13.1086 21.1563 13.0848 21.0406 13.0386 20.9331C12.9925 20.8256 12.9249 20.7286 12.8401 20.648L3.00011 11.273L12.8401 1.90177C12.9249 1.82119 12.9925 1.72421 13.0386 1.61671C13.0848 1.50921 13.1086 1.39345 13.1086 1.27646C13.1086 1.15947 13.0848 1.04371 13.0386 0.936208C12.9925 0.828708 12.9249 0.731721 12.8401 0.651145L12.8289 0.639896C12.6545 0.473686 12.4229 0.380966 12.182 0.380966C11.9411 0.380966 11.7095 0.473686 11.5351 0.639896L1.08573 10.5961C0.993837 10.6837 0.920676 10.789 0.870687 10.9057C0.820698 11.0224 0.794922 11.148 0.794922 11.2749C0.794922 11.4018 0.820698 11.5274 0.870687 11.6441C0.920676 11.7608 0.993837 11.8661 1.08573 11.9536Z"
            fill="#AACBB3" />
        </svg>