<svg width="787" height="396" viewBox="0 0 787 396" fill="none" xmlns="http://www.w3.org/2000/svg">
<path d="M741.406 94.8713C722.108 89.817 699.179 91.9315 679.754 99.266C676.213 85.6218 666.376 73.1397 651.388 64.9747C637.166 57.2073 618.77 53.5382 600.053 53.9813C600.52 44.4812 597.204 35.0417 590.454 27.3339C576.756 11.7777 551.451 3.10685 525.112 1.12054C498.78 -0.824606 471.445 3.28146 445.319 9.27574C415.227 16.1526 384.911 26.1218 362.776 43.0141C349.693 52.9545 340.209 65.7952 336.832 78.6743C298.328 61.9271 246.207 60.2681 201.982 75.0495C186.009 80.3562 170.761 87.9113 160.588 98.331C150.415 108.751 146.024 122.44 152.322 133.314C125.236 119.898 79.6791 129.747 63.3994 152.584C54.2119 165.425 55.6856 180.403 64.5204 192.059C37.7762 198.726 14.1908 214.979 5.02263 234.403C-7.35753 260.601 6.47469 290.02 36.3466 304.309C57.4641 314.397 85.3353 316.759 111.591 312.13C111.057 320.717 113.481 329.273 119.1 336.508C132.587 353.98 161.313 363.396 190.31 362.751C219.312 362.147 248.187 352.46 271.689 338.608C279.961 333.735 287.567 328.324 294.524 322.5C299.682 339.276 310.712 354.823 326.779 366.949C354.288 387.729 396.043 398.408 438.092 395.334C406.48 390.762 381.814 374.706 366.237 354.964C357.256 343.538 351.454 330.248 350.034 316.52C388.851 320.937 429.775 319.15 469.028 310.842C512.829 301.571 554.099 284.261 588.339 261.506C619.508 275.323 663.719 275.892 697.558 260.111C716.872 251.114 732.926 236.948 736.842 221.101C738.614 213.769 737.279 206.237 733.361 199.732C758.212 190.936 778.441 173.971 784.273 154.84C792.001 129.703 773.476 103.196 741.401 94.8302L741.406 94.8713Z" fill="#CBE5D7"/>
</svg>
