<svg width="406" height="391" viewBox="0 0 406 391" fill="none" xmlns="http://www.w3.org/2000/svg">
<g clip-path="url(#clip0_2031_8030)">
<path d="M279.395 62.2705L276.377 74.5997L225.074 65.8952L279.395 62.2705Z" fill="#356357"/>
<path d="M266.073 48.852L279.918 62.6793L225.075 65.8954L266.073 48.852Z" fill="#AACBB3"/>
<path d="M224.388 65.8643L279.671 96.1399L291.682 80.4399L224.388 65.8643Z" fill="#E9F9EE"/>
<path d="M223.841 65.7941L285.527 68.4467L304.348 87.2415L223.841 65.7941Z" fill="#AACBB3"/>
<path d="M293.75 89.7099C302.28 90.3743 309.768 95.9659 314.965 102.773C320.163 109.566 323.497 117.564 327.258 125.247C336.881 144.887 350.749 163.9 371.005 172.145C378.159 175.059 387.347 176.107 392.746 170.59C399.652 163.542 395.402 151.652 389.765 143.549C386.345 138.644 382.389 133.882 377.132 131.027C369.056 126.639 359.241 127.394 350.169 128.816C342.604 129.998 334.897 131.644 328.493 135.837C317.296 143.181 312.109 157.082 310.817 170.408C309.525 183.734 311.415 197.175 310.87 210.558C310.325 223.94 306.852 238.057 297.023 247.166C287.188 256.28 272.497 258.664 259.323 256.213C246.143 253.754 234.166 247.048 222.89 239.791C203.55 227.347 185.03 212.51 173.334 192.713C167.719 183.208 163.723 172.088 165.623 161.206C167.524 150.323 176.837 140.247 187.876 140.471C198.065 140.674 206.546 149.433 209.482 159.195C214 174.162 206.933 191.799 193.325 199.513C181.577 206.17 167.015 205.464 153.878 202.349C136.972 198.345 121.124 190.783 104.416 186.041C87.7081 181.3 69.1312 179.586 53.4675 187.1C38.0391 194.505 -11.5772 235.117 41.9212 274.383" stroke="#365AA8" stroke-opacity="0.25" stroke-width="1.11" stroke-linecap="round" stroke-linejoin="round"/>
</g>
<defs>
<clipPath id="clip0_2031_8030">
<rect width="211.44" height="352.89" fill="white" transform="translate(267.775) rotate(49.359)"/>
</clipPath>
</defs>
</svg>
