<svg width="140" height="129" viewBox="0 0 140 129" fill="none" xmlns="http://www.w3.org/2000/svg">
<g style="mix-blend-mode:multiply">
<path d="M28.3304 8.78821L8.006 103.87L89.441 121.338L115.912 105.451L131.835 30.9949L28.3304 8.78821Z" fill="#D9DAE8"/>
</g>
<path d="M95.6071 96.3746L88.8415 115.197L8.50801 102.813L22.9447 9.17323L125.037 24.9074L113.734 98.2318L95.6071 96.3746Z" fill="white"/>
<path d="M113.733 98.2317L88.8407 115.196L95.6063 96.3744L113.733 98.2317Z" fill="white" fill-opacity="0.63"/>
<path d="M102.303 41.0732C96.4147 40.5279 90.5268 39.9925 84.6281 39.448C81.7348 39.186 78.8506 38.9131 75.9574 38.6511C73.1754 38.3995 70.3661 38.1804 67.619 37.6348C65.1984 37.1512 62.633 36.2687 61.2495 34.0796C61.1677 33.9462 60.9581 33.8438 60.7996 33.8675C58.3412 34.3408 55.8616 34.6854 53.3692 34.8806C52.353 34.9684 51.2796 35.0912 50.2643 34.9581C49.1984 34.8193 48.6365 34.3559 48.2009 33.3797C47.828 32.5487 47.3328 31.9291 46.403 31.7384C45.3917 31.5346 44.268 31.7722 43.2617 31.8591C40.7411 32.0768 38.2188 32.2745 35.6982 32.4922C35.0605 32.5473 35.1466 33.5436 35.7842 33.4885C38.3048 33.2708 40.8272 33.0731 43.3478 32.8554C43.9754 32.8012 44.6131 32.7461 45.2407 32.6919C45.6891 32.6532 46.198 32.6193 46.6089 32.8447C47.0831 33.1049 47.2326 33.6741 47.4533 34.1369C47.6254 34.5034 47.8349 34.8366 48.1397 35.1114C49.512 36.358 51.7888 35.9907 53.4643 35.8661C55.8671 35.6787 58.2579 35.3517 60.6283 34.9061C61.841 36.6282 63.7523 37.6074 65.7405 38.1985C68.3671 38.9754 71.1673 39.2053 73.8895 39.462C79.8397 40.0221 85.7982 40.5614 91.7567 41.1008C95.2165 41.4142 98.6772 41.7377 102.137 42.0512C102.774 42.1065 102.961 41.1269 102.323 41.0715L102.303 41.0732Z" fill="#A58BFF"/>
<path d="M100.577 56.2982C98.5407 56.5443 96.4875 56.7116 94.4382 56.8083C93.4484 56.8536 92.4677 56.8881 91.4845 56.8928C90.4921 56.9082 89.4634 56.9669 88.4698 56.852C88.135 56.8106 87.7487 56.7537 87.4772 56.5162C87.195 56.2695 87.1307 55.8736 87.0308 55.5309C86.8328 54.8655 86.5113 54.281 85.8089 54.0506C85.1688 53.8449 84.5091 53.9922 83.8701 54.1477C82.9755 54.3655 82.0766 54.5335 81.16 54.6126C74.0374 55.2378 67.2649 51.8981 60.1687 51.8987C56.1941 51.9007 52.1578 52.9318 48.2311 51.9761C48.5657 50.8532 48.9003 49.7302 49.2341 48.5973C49.336 48.2673 48.9914 47.9959 48.7016 48.0109C44.2865 48.1413 39.8644 48.192 35.4472 48.182C34.8044 48.1773 34.8904 49.1736 35.5332 49.1783C39.7096 49.189 43.8909 49.139 48.066 49.0194C47.7479 50.1007 47.4189 51.173 47.1008 52.2544C47.0144 52.5329 47.266 52.7721 47.5029 52.842C51.1277 53.904 54.8883 53.1677 58.5732 52.9499C62.2183 52.7355 65.7597 53.4133 69.3089 54.1807C72.7559 54.9269 76.2379 55.7303 79.7872 55.6847C80.6491 55.6705 81.5168 55.6056 82.3684 55.4719C83.1711 55.3523 83.9609 55.0834 84.7645 54.9738C85.1314 54.9221 85.5515 54.9059 85.8091 55.2149C86.0441 55.4957 86.0837 55.954 86.1935 56.2958C86.4097 56.9396 86.8421 57.4141 87.4857 57.6597C88.3253 57.9686 89.3125 57.8933 90.1862 57.8982C91.3405 57.8989 92.4832 57.8805 93.6341 57.8413C95.9749 57.7496 98.3079 57.5682 100.632 57.2871C101.268 57.2121 101.182 56.2158 100.546 56.2908L100.577 56.2982Z" fill="#A58BFF"/>
<path d="M76.4307 69.2339C72.9489 68.7818 69.5399 69.6383 66.0936 69.946C63.4535 70.174 60.5289 70.015 58.2432 68.5362C57.6799 68.1733 57.1894 67.7239 56.7453 67.2302C56.302 66.7466 55.8761 66.2313 55.2699 65.9525C54.5904 65.6398 53.8558 65.7333 53.1393 65.8052C52.2335 65.8935 51.3377 65.9809 50.4328 66.0791C48.701 66.2487 46.9726 66.4582 45.2382 66.598C43.9829 66.7064 42.5712 66.748 41.425 66.1444C40.7621 65.7901 40.477 65.1623 39.9268 64.718C39.3116 64.2191 38.6063 64.4205 37.9335 64.6493C36.168 65.2434 34.2926 65.1444 32.6076 64.3464C32.0222 64.0758 31.598 64.9756 32.1835 65.2462C33.5332 65.8824 35.0422 66.1536 36.5232 65.9856C37.2886 65.8994 37.948 65.6317 38.6841 65.4376C39.4691 65.2293 39.8241 66.2024 40.3519 66.6185C42.4971 68.3303 45.8423 67.5495 48.3197 67.2954C50.1113 67.1206 51.9094 66.9051 53.7036 66.7602C54.66 66.6776 55.1974 66.9725 55.8298 67.6706C56.2739 68.1643 56.7163 68.638 57.2423 69.0342C59.3682 70.6372 62.1258 71.0715 64.7316 71.0272C68.6005 70.9641 72.3978 69.7227 76.275 70.221C76.9148 70.3062 77.1003 69.3166 76.4614 69.2413L76.4307 69.2339Z" fill="#A58BFF"/>
<path d="M86.0481 80.0763C84.2176 78.6384 81.8566 78.3806 79.6119 78.6548C77.1894 77.8 74.5798 78.2663 72.2592 79.2898C69.9478 80.3024 67.7773 81.7846 66.0821 83.6574C64.478 85.422 63.3536 87.6269 63.2911 90.0413C63.2325 92.385 64.3162 94.5899 65.9066 96.2693C69.574 100.148 75.5198 100.889 80.3346 98.8776C84.9843 96.9303 88.5063 92.27 88.79 87.1867C88.9367 84.5844 88.179 81.7391 86.0481 80.0763ZM81.3985 97.25C77.2501 99.6559 71.6785 99.6452 67.8278 96.6655C66.1831 95.4023 64.834 93.6117 64.425 91.5493C63.9975 89.3881 64.6636 87.2227 65.9165 85.4584C67.3397 83.4585 69.3729 81.8978 71.5329 80.7577C73.4432 79.7496 75.6774 79.0046 77.8382 79.2697C77.8142 79.5728 78.0968 79.9399 78.511 79.8539C78.8263 79.7865 79.1525 79.7283 79.4796 79.68C79.5212 79.6964 79.5519 79.7038 79.5935 79.7203C79.8221 79.811 80.0171 79.7439 80.1554 79.6015C81.8789 79.4527 83.6642 79.6699 85.1138 80.6488C86.9254 81.8674 87.7159 84.0475 87.8178 86.1565C88.0148 90.6462 85.2344 95.0618 81.411 97.279L81.3985 97.25Z" fill="#A58BFF"/>
</svg>
