<svg width="212" height="353" viewBox="0 0 212 353" fill="none" xmlns="http://www.w3.org/2000/svg">
<g clip-path="url(#clip0_2041_8063)">
<path d="M54.8214 31.74L62.2114 42.06L22.1914 75.32L54.8214 31.74Z" fill="#356357"/>
<path d="M35.9614 33.1101L55.4714 31.6101L22.1914 75.3201L35.9614 33.1101Z" fill="#AACBB3"/>
<path d="M21.7207 75.82L80.7007 53.59L76.6107 34.25L21.7207 75.82Z" fill="#E9F9EE"/>
<path d="M21.3105 76.1901L63.5005 31.1101L90.0205 29.0701L21.3105 76.1901Z" fill="#AACBB3"/>
<path d="M84.9901 38.7199C91.0501 32.6799 100.17 30.6399 108.72 31.1299C117.26 31.6099 125.5 34.2899 133.78 36.4399C154.95 41.9299 178.41 43.7899 197.86 33.7899C204.73 30.2599 211.51 23.9699 210.84 16.2799C209.99 6.44994 198.2 1.92994 188.38 0.929936C182.43 0.329936 176.24 0.229936 170.65 2.35994C162.06 5.62994 156.24 13.5699 151.41 21.3799C147.38 27.8899 143.61 34.8099 142.62 42.3999C140.9 55.6799 148.07 68.6699 157.34 78.3299C166.61 87.9899 178.04 95.3099 187.84 104.44C197.64 113.57 206.09 125.4 206.6 138.79C207.11 152.19 199.35 164.89 188.91 173.29C178.46 181.69 165.57 186.41 152.72 190.24C130.68 196.81 107.36 201.2 84.7201 197.18C73.8501 195.25 62.8101 191.04 55.7901 182.51C48.7701 173.98 47.1901 160.35 54.5501 152.12C61.3401 144.52 73.5101 143.79 82.8301 147.92C97.1301 154.24 105.91 171.09 102.9 186.44C100.3 199.69 90.2801 210.28 79.3601 218.22C65.3101 228.44 49.2501 235.54 34.7701 245.13C20.2901 254.72 6.89005 267.7 2.39005 284.48C-2.03995 301.01 -3.53995 365.11 61.1001 350.09" stroke="#365AA8" stroke-opacity="0.25" stroke-width="1.11" stroke-linecap="round" stroke-linejoin="round"/>
</g>
<defs>
<clipPath id="clip0_2041_8063">
<rect width="211.44" height="352.89" fill="white"/>
</clipPath>
</defs>
</svg>
