<svg width="136" height="63" viewBox="0 0 136 63" fill="none" xmlns="http://www.w3.org/2000/svg">
<path d="M44.0703 40.2812L41.7734 41.0547L40.625 39.1328L37.4609 31.6328C37.3672 31.4141 37.1953 31.0781 36.9453 30.625C36.7109 30.1719 36.4766 29.7422 36.2422 29.3359C36.0234 28.9141 35.8984 28.6719 35.8672 28.6094C35.8203 28.6406 35.75 28.6875 35.6562 28.75C35.5781 28.8125 35.5234 28.8594 35.4922 28.8906C35.4609 28.9062 35.4141 28.9453 35.3516 29.0078C35.2891 29.0547 35.2422 29.0938 35.2109 29.125C35.1953 29.1406 35.1641 29.1719 35.1172 29.2188C35.0703 29.25 35.0391 29.2812 35.0234 29.3125C35.0078 29.3438 34.9922 29.3828 34.9766 29.4297C34.9609 29.4609 34.9453 29.5 34.9297 29.5469C34.9141 29.5781 34.9062 29.6172 34.9062 29.6641C34.9062 30.6484 34.8906 31.4453 34.8594 32.0547C34.8281 32.6484 34.7656 33.3984 34.6719 34.3047C34.5938 35.1953 34.5312 35.9844 34.4844 36.6719L34.3672 38.1719C34.2266 38.1719 33.2578 38.1953 31.4609 38.2422C29.6641 38.2891 28.6328 38.3125 28.3672 38.3125C28.7891 32.6094 29.0547 28.2969 29.1641 25.375C29.2734 22.4375 29.3281 18.6875 29.3281 14.125C29.3281 12.6719 29.3594 11.6641 29.4219 11.1016C30.4375 11.2266 31.4297 11.2891 32.3984 11.2891C32.9922 11.2891 33.6562 11.2734 34.3906 11.2422C35.1406 11.2109 35.5234 11.1953 35.5391 11.1953C35.4609 11.5078 35.3281 11.9844 35.1406 12.625C34.9219 15.1562 34.8125 18.6484 34.8125 23.1016C34.9062 22.9922 35.75 22.1406 37.3438 20.5469L40.7188 17.4766L44.5625 14.8281L47.5859 13.0234C49.4766 13.6641 50.8828 14.1094 51.8047 14.3594C51.8047 14.4844 51.7969 14.6875 51.7812 14.9688C51.7656 15.2344 51.7578 15.4297 51.7578 15.5547L50.75 16.4219C49.8906 17.1562 47.9531 18.7734 44.9375 21.2734L42.7812 22.7031L41.3281 23.8047V23.8516C41.375 23.9453 42 24.8438 43.2031 26.5469C44.4062 28.25 45.6641 30.1328 46.9766 32.1953C48.3047 34.2422 49.2422 35.8828 49.7891 37.1172L49.6484 38.2188L44.1172 40.2344C44.1172 40.2656 44.1016 40.2812 44.0703 40.2812Z" fill="#E34C26"/>
<path d="M67.7891 22.75L68.9609 38.5L64.9766 38.4062C64.2266 35.3906 63.8359 33.1328 63.8047 31.6328C63.6797 32.2109 63.4297 32.8203 63.0547 33.4609C62.6953 34.0859 62.25 34.7656 61.7188 35.5C61.1875 36.2344 60.8125 36.7891 60.5938 37.1641L54.2656 36.1562C53.9688 35.6406 53.6016 34.9766 53.1641 34.1641C52.7266 33.3516 52.1406 32.0938 51.4062 30.3906C50.6875 28.6875 50.3281 27.4688 50.3281 26.7344C50.5 26.2031 50.9375 25.4688 51.6406 24.5312C52.3594 23.5938 53.1641 22.6562 54.0547 21.7188C54.9453 20.7656 55.8281 19.8594 56.7031 19C57.5781 18.125 58.3125 17.4141 58.9062 16.8672L59.7734 16.0469C61.7266 16.4375 63.3906 16.9922 64.7656 17.7109C65.9219 19.1484 66.9297 20.8281 67.7891 22.75ZM55.5547 27.3203L58.2031 31.3516C58.9375 30.3516 59.625 29.1875 60.2656 27.8594C60.9062 26.5156 61.3984 25.2344 61.7422 24.0156L59.9844 22.0469C59.0938 22.7812 58.2422 23.625 57.4297 24.5781C56.6328 25.5312 56.0078 26.4453 55.5547 27.3203Z" fill="#FCC44B"/>
<path d="M86 12.8594L94.5781 12.3438L96.0312 19.7266L85.7891 19.8672L85.1328 44.4062L79.6016 46.5156L77.5859 26.3125L77.7734 19.9609L71.8672 20.0781L71.8203 13.7266L77.9844 13.3516L78.2656 2.78125L86.3281 0.390625L86.0469 10.5625L86 12.8594Z" fill="#46C2F3"/>
<path d="M99.5469 12.25C99.5312 10.875 99.4375 9.63281 99.2656 8.52344C99.0938 7.39844 98.9766 6.25781 98.9141 5.10156C98.9453 5.07031 99 5.05469 99.0781 5.05469C101.453 4.33594 103.977 3.75781 106.648 3.32031C106.68 3.55469 106.766 4.07812 106.906 4.89062C107.062 5.6875 107.203 6.51562 107.328 7.375C107.453 8.23438 107.547 9.05469 107.609 9.83594C107.172 9.96094 106.391 10.1875 105.266 10.5156C104.141 10.8438 103.086 11.1562 102.102 11.4531C101.117 11.7344 100.266 12 99.5469 12.25ZM99.7812 38.5C99.7812 36.4219 99.75 33.3984 99.6875 29.4297C99.625 25.4453 99.5625 21.8828 99.5 18.7422C99.4375 15.6016 99.4062 13.9922 99.4062 13.9141C99.875 13.9922 100.148 14.0312 100.227 14.0312C101.18 14.1094 101.938 14.1641 102.5 14.1953C103.078 14.2109 103.445 14.2109 103.602 14.1953C103.773 14.1797 104.109 14.2031 104.609 14.2656C105.109 14.3125 105.867 14.4062 106.883 14.5469C106.945 14.5781 107.047 14.5938 107.188 14.5938C107.312 18.9062 107.375 21.4219 107.375 22.1406C107.375 22.2812 107.328 27.4609 107.234 37.6797C107.156 37.7109 107.047 37.7422 106.906 37.7734C106.766 37.8047 106.445 37.8906 105.945 38.0312C105.461 38.1562 104.867 38.3125 104.164 38.5C103.914 38.4688 103.156 38.4531 101.891 38.4531C100.703 38.4531 100 38.4688 99.7812 38.5Z" fill="#ED21EA" fill-opacity="0.61"/>
<path d="M3.79102 59.5C3.68034 59.5 3.52083 59.487 3.3125 59.4609L1.81836 59.3633L1.27148 59.1973C1.07617 59.1582 0.972005 59.1387 0.958984 59.1387C0.919922 56.9121 0.884115 54.0312 0.851562 50.4961C0.851562 48.5625 0.858073 47.1172 0.871094 46.1602L3.9375 46.0625L5.25586 46.0039C5.80273 46.3034 6.87695 46.7754 8.47852 47.4199C8.60872 48.123 8.8138 48.9434 9.09375 49.8809L8.89844 50.5156L8.73242 51.7559L6.07617 53.416C5.91341 53.4811 5.64323 53.5951 5.26562 53.7578C4.89453 53.9206 4.58529 54.054 4.33789 54.1582C4.09701 54.2559 3.97656 54.2949 3.97656 54.2754C3.97005 54.2754 3.96029 54.2819 3.94727 54.2949C3.93424 54.3014 3.92448 54.3047 3.91797 54.3047C3.91797 54.6953 3.89518 55.6556 3.84961 57.1855C3.81055 58.7155 3.79102 59.487 3.79102 59.5ZM3.85938 52.0391L4.85547 51.6582L6.39844 51.0039C6.39844 50.7956 6.39193 50.5742 6.37891 50.3398C6.3724 50.099 6.36263 49.8809 6.34961 49.6855C6.33659 49.4837 6.32357 49.3014 6.31055 49.1387C6.30404 48.9694 6.29427 48.8327 6.28125 48.7285C6.27474 48.6243 6.27148 48.569 6.27148 48.5625C5.45117 48.4258 4.61784 48.3379 3.77148 48.2988C3.77148 48.5983 3.78125 49.2591 3.80078 50.2812C3.82031 51.3034 3.83984 51.8893 3.85938 52.0391ZM10.0215 60.3984C10.0085 59.1549 9.94987 57.5534 9.8457 55.5938C9.74805 53.6276 9.69922 52.2441 9.69922 51.4434C9.69922 50.4082 9.75456 49.4674 9.86523 48.6211L13.1855 47.6641L13.2637 50.457C14.1556 49.5195 15.1615 48.8262 16.2812 48.377L18.6445 50.7402L17.9023 53.1035L15.7051 51.502C15.5488 51.5736 15.36 51.7526 15.1387 52.0391C14.9173 52.319 14.6504 52.6901 14.3379 53.1523C14.0254 53.6081 13.7878 53.9434 13.625 54.1582L12.9609 59.6172C12.1862 59.9622 11.2064 60.2227 10.0215 60.3984ZM27.0039 57.7617L25.4219 59.4219L21.1445 59.5L19.9434 58.2012C19.8717 56.4694 19.8359 55.1152 19.8359 54.1387C19.8359 53.8522 19.8522 53.1393 19.8848 52L21.0371 50.5352L26.125 50.0762L27.1992 51.3359L27.0039 57.7617ZM22.5605 52.6445L22.4629 56.1602L24.9434 56.5801L24.6602 52.4395L22.5605 52.6445ZM32.7168 55.2422L32.9512 59.1387L31.2129 59.5L30.1582 55.623L28.3906 55.916L28.6152 54.002L29.9336 53.416C29.9792 52.0553 30.1387 50.7305 30.4121 49.4414C30.6855 48.1458 31.0404 47.013 31.4766 46.043C32.3815 44.7539 33.3743 43.8392 34.4551 43.2988C34.9173 43.3965 35.3763 43.582 35.832 43.8555C36.2878 44.1224 36.7044 44.487 37.082 44.9492C37.4661 45.4049 37.7233 45.903 37.8535 46.4434L36.1152 48.2012L35.0703 46.8242L33.459 48.3574L32.7949 52.7422L35.5586 52.1172L34.8359 54.8613L32.7168 55.2422ZM40.9492 46.8242L41.0371 49.1582L38.6738 49.6562L38.498 47.5176L40.9492 46.8242ZM41.3691 55.2031L41.1152 59.0801L38.8301 59.5L38.4492 53.6797L38.6738 50.0957L41.0176 50.3008L41.3691 55.2031ZM48.5664 55.3008L49.4746 53.0352L51.5352 52.918C54.8815 52.918 56.7272 52.9245 57.0723 52.9375L55.832 55.0957C55.487 55.0957 54.3151 55.1217 52.3164 55.1738C50.3177 55.2194 49.0677 55.2617 48.5664 55.3008ZM64.3379 59.5C64.3379 59.0638 64.3249 58.1882 64.2988 56.873C64.2793 55.5579 64.2695 54.5 64.2695 53.6992C64.2695 51.6615 64.3314 49.8743 64.4551 48.3379C65.373 48.3574 66.418 48.4193 67.5898 48.5234L67.6387 48.582L70.2754 54.5391L70.5781 55.1445C70.6237 50.9974 70.6432 48.888 70.6367 48.8164V48.6797C70.7083 48.6862 71.0794 48.709 71.75 48.748C72.4271 48.7806 72.8633 48.8034 73.0586 48.8164C73.0521 49.0573 73.0423 50.3561 73.0293 52.7129C73.0228 55.0632 73.0163 56.3652 73.0098 56.6191C73.0098 58.1296 73.0033 59.0378 72.9902 59.3438C72.2806 59.3307 71.2227 59.3242 69.8164 59.3242C69.7513 59.1419 69.6829 58.9531 69.6113 58.7578C69.5397 58.556 69.4941 58.4323 69.4746 58.3867C69.4616 58.3411 69.429 58.2565 69.377 58.1328C69.3249 58.0091 69.2858 57.931 69.2598 57.8984C69.2402 57.8659 69.1816 57.7715 69.084 57.6152C68.9928 57.4525 68.9017 57.3027 68.8105 57.166C68.7259 57.0293 68.5859 56.8047 68.3906 56.4922C68.2018 56.1797 68.0033 55.8477 67.7949 55.4961C67.4694 54.9557 67.1276 54.3568 66.7695 53.6992L66.7891 56.6387L66.6523 59.4023C65.6367 59.4023 64.9499 59.4284 64.5918 59.4805C64.4746 59.4805 64.39 59.487 64.3379 59.5ZM80.9297 52.9375L81.418 59.5L79.7578 59.4609C79.4453 58.2044 79.2826 57.2637 79.2695 56.6387C79.2174 56.8796 79.1133 57.1335 78.957 57.4004C78.8073 57.6608 78.6217 57.944 78.4004 58.25C78.179 58.556 78.0228 58.7871 77.9316 58.9434L75.2949 58.5234C75.1712 58.3086 75.0182 58.0319 74.8359 57.6934C74.6536 57.3548 74.4095 56.8307 74.1035 56.1211C73.804 55.4115 73.6543 54.9036 73.6543 54.5977C73.7259 54.3763 73.9082 54.0703 74.2012 53.6797C74.5007 53.2891 74.8359 52.8984 75.207 52.5078C75.5781 52.1107 75.946 51.7331 76.3105 51.375C76.6751 51.0104 76.9811 50.7142 77.2285 50.4863L77.5898 50.1445C78.4036 50.3073 79.097 50.5384 79.6699 50.8379C80.1517 51.4368 80.5716 52.1367 80.9297 52.9375ZM75.832 54.8418L76.9355 56.5215C77.2415 56.1048 77.528 55.6198 77.7949 55.0664C78.0618 54.5065 78.2669 53.9727 78.4102 53.4648L77.6777 52.6445C77.3066 52.9505 76.9518 53.3021 76.6133 53.6992C76.2812 54.0964 76.0208 54.4772 75.832 54.8418ZM85.8516 59.5C85.2591 59.4479 84.4681 59.1159 83.4785 58.5039C83.0488 57.6836 82.7591 56.4499 82.6094 54.8027C82.7721 53.416 83.2474 52.2214 84.0352 51.2188C84.8034 50.6003 85.7214 50.1738 86.7891 49.9395C87.5508 50.1087 88.2734 50.3691 88.957 50.7207L89.6504 51.2578C89.6374 51.3164 89.5918 51.4108 89.5137 51.541C89.4421 51.6647 89.3444 51.8145 89.2207 51.9902C89.097 52.1595 88.9896 52.306 88.8984 52.4297C88.8138 52.5534 88.7064 52.7031 88.5762 52.8789C88.446 53.0482 88.3776 53.1361 88.3711 53.1426C88.1953 53.0449 87.9772 52.9961 87.7168 52.9961C87.4434 52.9961 87.1341 53.0482 86.7891 53.1523C86.444 53.25 86.1673 53.3477 85.959 53.4453L85.6367 53.6016C85.5326 53.7773 85.4349 53.9824 85.3438 54.2168C85.2591 54.4447 85.1973 54.6302 85.1582 54.7734L85.1094 54.9785C85.0898 55.9486 85.2461 56.6484 85.5781 57.0781L87.4922 56.6582L88.4492 57.8008C88.3971 58.0156 88.153 58.2663 87.7168 58.5527C87.2871 58.8327 86.8704 59.0605 86.4668 59.2363L85.8516 59.5ZM99.3965 60.9844L96.877 62.0195C96.8639 62.0521 96.8509 62.013 96.8379 61.9023C96.8249 61.7721 96.8053 61.388 96.7793 60.75C96.6686 58.4062 96.5286 56.8014 96.3594 55.9355L94.3184 56.9805L93.3516 60.0176L90.8516 58.9238L92.4922 44.041C93.2539 43.8717 93.8138 43.7513 94.1719 43.6797L95.959 43.9434L94.6113 53.6602C94.8913 53.569 95.3145 53.4258 95.8809 53.2305C96.4538 53.0352 96.8249 52.9115 96.9941 52.8594C97.0723 52.8464 97.3392 52.8724 97.7949 52.9375C98.2572 52.9961 98.5371 53.0645 98.6348 53.1426C99.0775 57.6087 99.3314 60.2227 99.3965 60.9844ZM109.143 60.9844L106.623 62.0195C106.61 62.0521 106.597 62.013 106.584 61.9023C106.571 61.7721 106.551 61.388 106.525 60.75C106.415 58.4062 106.275 56.8014 106.105 55.9355L104.064 56.9805L103.098 60.0176L100.598 58.9238L102.238 44.041C103 43.8717 103.56 43.7513 103.918 43.6797L105.705 43.9434L104.357 53.6602C104.637 53.569 105.061 53.4258 105.627 53.2305C106.2 53.0352 106.571 52.9115 106.74 52.8594C106.818 52.8464 107.085 52.8724 107.541 52.9375C108.003 52.9961 108.283 53.0645 108.381 53.1426C108.824 57.6087 109.077 60.2227 109.143 60.9844ZM112.844 46.8242L112.932 49.1582L110.568 49.6562L110.393 47.5176L112.844 46.8242ZM113.264 55.2031L113.01 59.0801L110.725 59.5L110.344 53.6797L110.568 50.0957L112.912 50.3008L113.264 55.2031ZM117.111 54.1387L117.512 59.4609L115.549 60.8574L114.592 56.0625C114.507 54.5911 114.465 53.3314 114.465 52.2832C114.465 50.6882 114.553 49.1615 114.729 47.7031L115.266 44.0801L117.834 43.5234L117.209 49.0605L117.111 54.1387ZM123.342 55.2422L123.576 59.1387L121.838 59.5L120.783 55.623L119.016 55.916L119.24 54.002L120.559 53.416C120.604 52.0553 120.764 50.7305 121.037 49.4414C121.311 48.1458 121.665 47.013 122.102 46.043C123.007 44.7539 123.999 43.8392 125.08 43.2988C125.542 43.3965 126.001 43.582 126.457 43.8555C126.913 44.1224 127.329 44.487 127.707 44.9492C128.091 45.4049 128.348 45.903 128.479 46.4434L126.74 48.2012L125.695 46.8242L124.084 48.3574L123.42 52.7422L126.184 52.1172L125.461 54.8613L123.342 55.2422ZM131.105 59.5C130.513 59.4479 129.722 59.1159 128.732 58.5039C128.303 57.6836 128.013 56.4499 127.863 54.8027C128.026 53.416 128.501 52.2214 129.289 51.2188C130.057 50.6003 130.975 50.1738 132.043 49.9395C132.805 50.1087 133.527 50.3691 134.211 50.7207L134.904 51.2578C134.989 51.4076 135.031 51.7884 135.031 52.4004C135.031 52.7975 135.015 53.2044 134.982 53.6211C134.95 54.0312 134.924 54.2591 134.904 54.3047C134.527 54.6237 133.856 55.0078 132.893 55.457C131.936 55.9062 131.148 56.2415 130.529 56.4629C130.607 56.7103 130.708 56.9154 130.832 57.0781L134.172 56.0234L135.148 57.1562C135.096 57.3711 134.732 57.6738 134.055 58.0645C133.384 58.4551 132.723 58.7904 132.072 59.0703L131.105 59.5ZM130.344 55.2227C130.812 54.9883 131.906 54.2949 133.625 53.1426C133.397 53.0059 133.173 52.9375 132.951 52.9375C132.671 52.9375 132.359 52.9928 132.014 53.1035C131.675 53.2142 131.402 53.3249 131.193 53.4355L130.891 53.6016C130.546 54.0182 130.363 54.5586 130.344 55.2227Z" fill="#28B32C"/>
</svg>
