<svg width="1285" height="476" viewBox="0 0 1285 476" fill="none" xmlns="http://www.w3.org/2000/svg">
<g clip-path="url(#paint0_diamond_2009_8668_clip_path)" data-figma-skip-parse="true"><g transform="matrix(0.38975 0.2505 -0.676245 1.05216 1032.25 250.5)"><rect x="0" y="0" width="2169.57" height="598.999" fill="url(#paint0_diamond_2009_8668)" opacity="1" shape-rendering="crispEdges"/><rect x="0" y="0" width="2169.57" height="598.999" transform="scale(1 -1)" fill="url(#paint0_diamond_2009_8668)" opacity="1" shape-rendering="crispEdges"/><rect x="0" y="0" width="2169.57" height="598.999" transform="scale(-1 1)" fill="url(#paint0_diamond_2009_8668)" opacity="1" shape-rendering="crispEdges"/><rect x="0" y="0" width="2169.57" height="598.999" transform="scale(-1)" fill="url(#paint0_diamond_2009_8668)" opacity="1" shape-rendering="crispEdges"/></g></g><path d="M0 136.379C0 96.2587 27.6999 61.5162 67.0269 53.5754C191.029 28.5373 449.251 -17.1832 510.958 22.2455C592.951 74.6369 1294.89 -149.735 1284.89 206.754C1276.41 509.216 357.379 482.906 79.0073 467.984C34.1891 465.582 0 428.395 0 383.512V136.379Z" data-figma-gradient-fill="{&#34;type&#34;:&#34;GRADIENT_DIAMOND&#34;,&#34;stops&#34;:[{&#34;color&#34;:{&#34;r&#34;:0.84313726425170898,&#34;g&#34;:0.98431372642517090,&#34;b&#34;:0.90980392694473267,&#34;a&#34;:1.0},&#34;position&#34;:0.0},{&#34;color&#34;:{&#34;r&#34;:0.79607844352722168,&#34;g&#34;:0.89803922176361084,&#34;b&#34;:0.84313726425170898,&#34;a&#34;:1.0},&#34;position&#34;:1.0}],&#34;stopsVar&#34;:[{&#34;color&#34;:{&#34;r&#34;:0.84313726425170898,&#34;g&#34;:0.98431372642517090,&#34;b&#34;:0.90980392694473267,&#34;a&#34;:1.0},&#34;position&#34;:0.0},{&#34;color&#34;:{&#34;r&#34;:0.79607844352722168,&#34;g&#34;:0.89803922176361084,&#34;b&#34;:0.84313726425170898,&#34;a&#34;:1.0},&#34;position&#34;:1.0}],&#34;transform&#34;:{&#34;m00&#34;:779.50,&#34;m01&#34;:-1352.4895019531250,&#34;m02&#34;:1318.7447509765625,&#34;m10&#34;:501.0,&#34;m11&#34;:2104.3225097656250,&#34;m12&#34;:-1052.1612548828125},&#34;opacity&#34;:1.0,&#34;blendMode&#34;:&#34;NORMAL&#34;,&#34;visible&#34;:true}"/>
<defs>
<clipPath id="paint0_diamond_2009_8668_clip_path"><path d="M0 136.379C0 96.2587 27.6999 61.5162 67.0269 53.5754C191.029 28.5373 449.251 -17.1832 510.958 22.2455C592.951 74.6369 1294.89 -149.735 1284.89 206.754C1276.41 509.216 357.379 482.906 79.0073 467.984C34.1891 465.582 0 428.395 0 383.512V136.379Z"/></clipPath><linearGradient id="paint0_diamond_2009_8668" x1="0" y1="0" x2="500" y2="500" gradientUnits="userSpaceOnUse">
<stop stop-color="#D7FBE8"/>
<stop offset="1" stop-color="#CBE5D7"/>
</linearGradient>
</defs>
</svg>
