<svg xmlns="http://www.w3.org/2000/svg" width="81" height="86" viewBox="0 0 81 86" fill="none">
  <path d="M57.765 55.4811C54.4836 63.1977 68.7383 71.3596 66.3068 79.382C64.5873 85.0554 54.674 87.1654 48.8885 84.7678C41.324 81.6329 41.6829 69.0642 34.0782 66.0259C28.7135 63.8825 24.4975 72.4491 18.7701 72.7344C12.4172 73.0509 0.774135 73.8008 0.433464 67.702C-0.0562161 58.9355 13.3309 55.6355 17.3831 47.9032C18.7499 45.2952 16.6664 41.9959 15.3223 39.2917C11.663 31.9295 -4.01274 22.9831 2.67169 18.3055C10.2833 12.9791 20.4481 34.094 28.7981 29.8616C37.4273 25.4876 27.3609 9.13328 34.0776 2.38652C38.2906 -1.84524 46.8605 3.12597 52.1539 6.40143C57.316 9.59566 58.9529 16.0314 63.1265 20.3616C67.1129 24.4975 73.3174 26.5096 76.2309 31.3817C79.2176 36.3762 83.1038 43.4938 79.6528 47.9976C75.0452 54.0109 60.714 48.5463 57.765 55.4811Z" fill="#92E3A9"/>
</svg>