<svg width="148" height="167" viewBox="0 0 148 167" fill="none" xmlns="http://www.w3.org/2000/svg">
<g style="mix-blend-mode:multiply">
<path d="M21.6089 61.1711L54.6389 148.202L127.582 118.837L140.182 92.0072L114.322 23.8516L21.6089 61.1711Z" fill="#D9DAE8"/>
</g>
<path d="M119.56 95.534L123.945 114.223L54.4864 147.076L17.5762 64.3364L105.846 22.5811L134.75 87.3696L119.56 95.534Z" fill="white"/>
<path d="M134.785 87.529L123.984 114.371L119.6 95.6902L134.785 87.529Z" fill="white" fill-opacity="0.63"/>
<path d="M96.2261 47.6301C91.3288 50.324 86.4374 53.0253 81.5328 55.7252C79.1297 57.0535 76.7282 58.3683 74.3251 59.6965C72.0146 60.974 69.6995 62.292 67.2651 63.3157C65.1186 64.2155 62.6534 64.8731 60.4426 63.8571C60.3098 63.7938 60.0929 63.8233 59.9808 63.9266C58.2969 65.612 56.5303 67.2057 54.6766 68.6867C53.9251 69.2971 53.1467 69.9659 52.2823 70.3991C51.3752 70.8546 50.6963 70.7826 49.8526 70.2332C49.1328 69.7665 48.4258 69.534 47.5987 69.8757C46.7011 70.2502 45.9423 71.0376 45.1981 71.642C43.334 73.156 41.4582 74.6549 39.5941 76.1689C39.1225 76.5519 39.7025 77.3032 40.1741 76.9203C42.0382 75.4063 43.914 73.9073 45.7781 72.3933C46.2423 72.0163 46.7139 71.6333 47.1781 71.2563C47.5096 70.987 47.8912 70.6894 48.3294 70.6513C48.8349 70.6074 49.245 70.9834 49.656 71.2363C49.9795 71.438 50.3152 71.5933 50.6955 71.6511C52.4126 71.919 54.0087 70.4149 55.2582 69.4246C57.0455 67.9974 58.7516 66.4651 60.3808 64.8486C62.2174 65.5817 64.2195 65.3491 66.0824 64.7652C68.5412 63.9906 70.8548 62.6861 73.1211 61.4445C78.0741 58.7298 83.0229 55.994 87.9718 53.2583C90.8455 51.67 93.725 50.0892 96.5987 48.501C97.1267 48.2066 96.7688 47.3238 96.2408 47.6181L96.2261 47.6301Z" fill="#A58BFF"/>
<path d="M102.751 60.7797C101.281 62.0591 99.757 63.2843 98.2002 64.4509C97.4475 65.0133 96.6965 65.5621 95.928 66.0885C95.1579 66.6283 94.3816 67.2221 93.5436 67.6583C93.2598 67.8032 92.9276 67.9629 92.5926 67.9172C92.2445 67.8699 91.9904 67.5873 91.7358 67.3663C91.2383 66.9391 90.6856 66.6424 90.0164 66.8314C89.4087 67.0071 88.9673 67.4756 88.5463 67.9397C87.957 68.5895 87.3387 69.2016 86.6609 69.7522C81.3985 74.0383 74.371 74.9663 68.808 78.7387C65.6931 80.8529 63.0592 83.8233 59.489 85.146C59.1737 84.0697 58.8583 82.9934 58.5372 81.9097C58.4474 81.5914 58.0376 81.5575 57.8181 81.7236C54.4238 84.1747 50.9831 86.5657 47.515 88.9057C47.0086 89.2436 47.5886 89.9949 48.0949 89.657C51.3746 87.4456 54.6269 85.1832 57.8386 82.8682C58.1455 83.9024 58.4392 84.9351 58.7461 85.9694C58.8216 86.2381 59.1419 86.2958 59.3635 86.2258C62.7517 85.1487 65.3211 82.5607 68.0979 80.4277C70.8453 78.3187 73.9704 76.9785 77.1477 75.706C80.2339 74.4707 83.377 73.2626 86.1361 71.3396C86.8046 70.8701 87.4514 70.357 88.0502 69.7972C88.6181 69.275 89.0989 68.64 89.6725 68.1252C89.9335 67.8888 90.2546 67.6525 90.6154 67.7628C90.9442 67.8625 91.2109 68.2081 91.4729 68.4232C91.9735 68.8234 92.5567 68.9732 93.1875 68.8276C94.0047 68.6284 94.7399 68.0434 95.4274 67.5829C96.3327 66.9699 97.2191 66.3478 98.1012 65.7047C99.8891 64.3871 101.625 63.0019 103.303 61.5415C103.763 61.1435 103.183 60.3922 102.723 60.7902L102.751 60.7797Z" fill="#A58BFF"/>
<path d="M90.5222 83.9981C87.56 85.4871 85.3282 87.9842 82.7847 90.0621C80.8322 91.6478 78.4577 93.0751 75.9051 93.107C75.2768 93.1161 74.6611 93.0172 74.059 92.8584C73.4627 92.707 72.8637 92.5212 72.245 92.6204C71.5515 92.7313 71.0237 93.1967 70.499 93.635C69.8343 94.1871 69.177 94.7331 68.5181 95.2927C67.2477 96.3489 66.0005 97.4352 64.7127 98.4688C63.7843 99.2228 62.699 100.006 61.49 100.133C60.788 100.202 60.2416 99.851 59.5816 99.788C58.8427 99.7159 58.3934 100.252 57.9836 100.792C56.9052 102.206 55.384 103.124 53.6526 103.381C53.0544 103.476 53.1848 104.421 53.783 104.326C55.1684 104.118 56.4908 103.533 57.5654 102.611C58.1212 102.135 58.5004 101.571 58.9776 101.024C59.4858 100.44 60.2647 101.03 60.8925 101.082C63.4548 101.312 65.6758 98.909 67.4872 97.3889C68.8018 96.2968 70.1006 95.1687 71.4326 94.0991C72.1399 93.5246 72.7129 93.4749 73.5678 93.6973C74.1699 93.8561 74.7604 94 75.3766 94.0373C77.8678 94.1898 80.253 93.0716 82.2731 91.651C85.2737 89.5441 87.612 86.5327 90.9079 84.8705C91.4533 84.5987 91.0897 83.7083 90.5501 83.9876L90.5222 83.9981Z" fill="#A58BFF"/>
<path d="M103.701 87.635C101.523 87.4574 99.5369 88.5079 97.9158 89.9228C95.5735 90.5277 93.7649 92.2909 92.4702 94.3467C91.1772 96.3889 90.2367 98.7325 89.8706 101.136C89.5203 103.404 89.7734 105.77 90.9681 107.738C92.1296 109.648 94.1163 110.838 96.2301 111.337C101.108 112.492 106.158 109.921 108.901 105.745C111.549 101.708 111.913 96.0982 109.517 91.8734C108.292 89.7099 106.231 87.833 103.701 87.635ZM108.898 103.874C106.881 108.011 102.501 110.969 97.9426 110.631C96.0005 110.495 94.0189 109.778 92.6353 108.343C91.1862 106.839 90.5937 104.749 90.6684 102.667C90.7555 100.307 91.5478 97.9736 92.6562 95.9099C93.6367 94.0848 95.007 92.2981 96.84 91.36C96.9774 91.6158 97.3883 91.7594 97.6692 91.47C97.8821 91.2481 98.1082 91.0277 98.34 90.8149C98.3812 90.8059 98.4091 90.7955 98.4503 90.7866C98.6765 90.7375 98.795 90.5799 98.8302 90.3922C100.107 89.3552 101.62 88.5786 103.263 88.5913C105.313 88.6033 107.057 89.9295 108.223 91.5655C110.691 95.0587 110.783 100.078 108.923 103.89L108.898 103.874Z" fill="#A58BFF"/>
</svg>
